<?xml version="1.0" standalone="no"?>
<!DOCTYPE svg PUBLIC "-//W3C//DTD SVG 20010904//EN"
 "http://www.w3.org/TR/2001/REC-SVG-20010904/DTD/svg10.dtd">
<svg version="1.0" xmlns="http://www.w3.org/2000/svg"
 width="260.000000pt" height="260.000000pt" viewBox="0 0 260.000000 260.000000"
 preserveAspectRatio="xMidYMid meet">
<metadata>
Created by potrace 1.11, written by Peter Selinger 2001-2013
</metadata>
<g transform="translate(0.000000,260.000000) scale(0.100000,-0.100000)"
fill="#000000" stroke="none">
<path d="M25 2015 l0 -585 161 0 160 0 -1 221 c0 140 3 223 10 228 5 4 118 7
250 7 l240 -1 3 -228 2 -227 161 2 161 3 0 555 c-1 305 -1 567 -1 583 l-1 27
-573 0 -572 0 0 -585z m823 195 l3 -65 -248 1 c-136 1 -250 2 -253 3 -4 1 -5
75 -1 114 1 9 58 12 249 12 l247 0 3 -65z"/>
<path d="M1430 2593 c-1 -12 -1 -548 -1 -633 l1 -75 412 0 413 0 0 -62 c0 -47
-3 -63 -15 -65 -8 -2 -194 -4 -412 -3 l-398 0 -1 -50 c-1 -56 -1 -132 0 -217
l1 -58 573 0 573 0 -1 358 0 357 -412 3 -413 2 0 60 c0 41 4 60 13 61 6 1 192
2 412 3 l400 1 0 160 0 160 -572 3 c-315 1 -573 -1 -573 -5z"/>
<path d="M25 588 l0 -583 573 -3 572 -2 1 72 c0 85 0 1030 0 1071 l-1 27 -160
0 -160 0 -2 -227 -3 -228 -250 0 -250 0 1 228 0 227 -161 0 -160 0 0 -582z
m245 288 c0 -170 3 -225 13 -228 6 -2 154 -4 327 -4 l315 1 0 225 0 225 88 3
87 3 0 -68 c1 -104 1 -745 1 -860 l-1 -103 -500 0 -500 0 0 23 c-1 39 -1 951
0 980 l0 27 85 0 85 0 0 -224z"/>
<path d="M273 390 l2 -135 318 0 c175 0 321 2 325 5 9 6 11 259 3 261 -3 1
-151 2 -328 3 l-322 1 2 -135z m577 0 l0 -65 -250 0 c-215 0 -250 2 -251 15
-4 35 -4 96 -2 105 2 6 95 10 253 10 l250 0 0 -65z"/>
<path d="M1429 1145 c-5 -229 -3 -295 9 -296 6 -1 188 -3 402 -4 215 -1 396
-3 403 -4 9 -1 12 -18 11 -58 -1 -32 -2 -60 -3 -63 0 -3 -185 -5 -411 -5
l-410 0 -1 -35 c0 -49 0 -641 0 -662 1 -17 35 -18 574 -18 l572 0 -1 153 c-1
83 -2 157 -3 162 -1 7 -131 10 -398 10 -219 -1 -404 1 -410 3 -9 3 -13 25 -13
63 l0 59 413 2 412 3 0 358 1 357 -573 0 -573 0 -1 -25z m1072 -57 c3 -66 -1
-549 -4 -555 -3 -5 -188 -8 -411 -8 -269 0 -407 -3 -409 -10 -2 -5 -3 -66 -3
-135 l1 -125 413 0 412 0 1 -27 c1 -36 1 -112 0 -138 -1 -20 -6 -20 -502 -18
l-501 3 1 279 c1 154 3 281 5 284 3 2 189 4 415 4 l411 0 -1 137 -1 136 -411
0 -412 0 -5 65 c-3 36 -3 77 -1 93 l3 27 499 0 c392 0 499 -3 500 -12z"/>
</g>
</svg>
