<svg xmlns="http://www.w3.org/2000/svg"><symbol id="trends" viewBox="0 0 178.19 178.19"><path d="M89.1 0a89.1 89.1 0 1 0 89.09 89.1A89 89 0 0 0 89.1 0zm0 164.27a75.18 75.18 0 1 1 75.17-75.17 75.13 75.13 0 0 1-75.17 75.17zm62.64-93.74V97a7 7 0 1 1-13.92 0v-9.66l-25.24 25.24a7 7 0 0 1-9.84 0l-32.21-32.2-32.2 32.2a7 7 0 0 1-9.84-9.84l37.12-37.13a7 7 0 0 1 9.85 0l32.2 32.2L128 77.5h-9.65a7 7 0 0 1 0-13.93h26.45a7 7 0 0 1 6.94 6.96z"/></symbol><symbol id="research" viewBox="0 0 174.7 178.19"><path d="M121.71 105.74a67 67 0 1 0-20.61 19l49.41 49.11a14 14 0 0 0 20.33-19.32l-.51-.51zM67 110.32A43.22 43.22 0 1 1 110.17 67 43.23 43.23 0 0 1 67 110.32z"/></symbol><symbol id="value" viewBox="0 0 209.53 181.94"><path d="M185.9 85.12l-22.8-35.21a9.51 9.51 0 0 0-8-4.35H54.51a9.5 9.5 0 0 0-8 4.34L23.64 85.11a9.55 9.55 0 0 0 .88 11.55l73.11 82.09a9.56 9.56 0 0 0 7.13 3.19 9.56 9.56 0 0 0 7.13-3.19L185 96.66a9.58 9.58 0 0 0 .9-11.54zm-35.43-31.38L131.3 83.39l-19.18-29.65zm-26.69 33.09h-38l19-29.39zM97.41 53.74L78.27 83.31 59.15 53.74zm-45.83 3.37l19.23 29.72H32.28zM34 95h41.2L97 165.7zm70.75 68.16L83.76 95h42zm7.79 2.54L134.32 95h41.2zm26.27-78.88L158 57.13l19.23 29.7zm-126.4.01H4.09a4.09 4.09 0 0 0 0 8.18h8.32a4.09 4.09 0 1 0 0-8.18zm193.03 0h-8.32a4.09 4.09 0 1 0 0 8.18h8.32a4.09 4.09 0 0 0 0-8.18zM178.9 16.86a4.09 4.09 0 0 0-5.79 0l-13.59 13.6a4.09 4.09 0 1 0 5.78 5.78l13.6-13.59a4.09 4.09 0 0 0 0-5.79zM50.19 30.38L36.6 16.79a4.09 4.09 0 1 0-5.79 5.79L44.4 36.17a4.09 4.09 0 1 0 5.79-5.79zM104.87 0a4.09 4.09 0 0 0-4.09 4.09v26.67a4.09 4.09 0 1 0 8.18 0V4.09A4.09 4.09 0 0 0 104.87 0z"/></symbol><symbol id="process" viewBox="0 0 178.55 178.19"><path d="M162.78 73.33a15.79 15.79 0 0 0-14.88 10.58h-22.06V72.2a5.27 5.27 0 0 0-3.07-4.76l-3.91-1.77L135 49.46a15.6 15.6 0 0 0 6 1.16 15.81 15.81 0 1 0-13.77-8.11l-18.5 18.56-14.23-6.42V30.73a15.77 15.77 0 1 0-10.45 0v23.88L68.72 61.3 51.47 44a15.78 15.78 0 1 0-7.39 7.4l14.35 14.38-2.54 1.11a5.26 5.26 0 0 0-3.14 4.79v12h-22.1a15.82 15.82 0 1 0 0 10.45h22.1v12.34a5.22 5.22 0 0 0 3.11 4.77l3.57 1.59-15.86 15.91a15.5 15.5 0 0 0-5.94-1.17 15.82 15.82 0 1 0 13.77 8.12l18.25-18.33 14.4 6.4v23.7a15.78 15.78 0 1 0 10.45 0v-23.7l15.39-6.83 17.22 17.29a15.76 15.76 0 1 0 7.38-7.4l-14.37-14.43 2.62-1.17a5.21 5.21 0 0 0 3.1-4.77V94.36h22.06a15.78 15.78 0 1 0 14.88-21zM141 29.45a5.36 5.36 0 0 1 0 10.72 5.25 5.25 0 0 1-3.32-1.17l-.3-.26a5.36 5.36 0 0 1 3.62-9.29zM32 37.12a5.32 5.32 0 1 1 9.15 3.71l-.07.06-.08.09a5.26 5.26 0 0 1-3.68 1.5 5.35 5.35 0 0 1-5.38-5.36zM15.77 94.25a5.36 5.36 0 1 1 5.32-5.36 5.35 5.35 0 0 1-5.32 5.36zm21.86 54.49a5.36 5.36 0 0 1 0-10.72 5.25 5.25 0 0 1 3.26 1.14 3.88 3.88 0 0 0 .31.26 5.36 5.36 0 0 1-3.57 9.32zm109-7.67a5.32 5.32 0 1 1-9.15-3.71l.07-.06.08-.09a5.29 5.29 0 0 1 3.68-1.5 5.35 5.35 0 0 1 5.32 5.36zM94.5 112.33v-22l20.89-9.87v22.6zm-24-6h-.09l-7.22-3.22v-23l20.86 10.16v22zm18.74-42.58l18.92 8.56-18.84 8.9L70.42 72zm0-53.3A5.36 5.36 0 1 1 84 15.81a5.34 5.34 0 0 1 5.28-5.36zm0 157.29a5.36 5.36 0 1 1 5.31-5.36 5.35 5.35 0 0 1-5.27 5.36zm73.5-73.24a5.36 5.36 0 1 1 5.32-5.36 5.34 5.34 0 0 1-5.28 5.36z"/></symbol><symbol id="time" viewBox="0 0 178.19 178.19"><path d="M120.84 104.83L96 86.2v-38a6.91 6.91 0 0 0-13.81 0v41.45A6.92 6.92 0 0 0 85 95.17l27.61 20.7a6.9 6.9 0 0 0 8.28-11z"/><path d="M89.1 0a89.1 89.1 0 1 0 89.09 89.1A89.2 89.2 0 0 0 89.1 0zm0 164.39a75.3 75.3 0 1 1 75.29-75.29 75.38 75.38 0 0 1-75.29 75.29z"/></symbol></svg>