<svg xmlns="http://www.w3.org/2000/svg"><symbol id="email" viewBox="0 0 400 400"><path d="M63.06 158.61v82.78a32.82 32.82 0 0 0 5.32 17.9c2-1.67 43.65-36.9 82.16-59.29-36.86-21.28-75.91-54-82.16-59.29a32.82 32.82 0 0 0-5.32 17.9zm240.88 115.78a32.77 32.77 0 0 0 14.93-3.6c-9.15-7.6-52.29-42.88-87.4-61.33-11.84 5.53-22.77 9-31.47 9s-19.63-3.51-31.47-9c-35.14 18.47-78.26 53.73-87.4 61.33a32.77 32.77 0 0 0 14.93 3.6zm-132.89-82.46a8.74 8.74 0 0 1 2.16 1.08c10.59 5.22 19.95 8.49 26.79 8.49 7.58 0 27-4.71 71.88-36.27 22.07-15.52 41.25-31.24 47-36a32.77 32.77 0 0 0-14.93-3.6H96.06a32.65 32.65 0 0 0-14.93 3.61c18.66 15.64 58.99 46.92 89.92 62.69zm165.89 49.46v-82.78a32.73 32.73 0 0 0-5.32-17.9c-6.25 5.3-45.3 38-82.16 59.29 38.51 22.39 80.19 57.62 82.16 59.29a32.73 32.73 0 0 0 5.32-17.9z"/></symbol><symbol id="gh" viewBox="0 0 400 400"><path d="M359.14 204.22a159.14 159.14 0 1 0-210.92 150.51c3.81-2.74 8.19-6.13 8.19-11.85 0-8.75-.19-31.26-.19-31.26a111 111 0 0 1-16.76 1.17c-24.84 0-32.7-15.76-36.43-24.58-4.87-11.49-11.18-16.89-17.88-21.2-4.12-2.65-5.06-5.77-.3-6.67 22-4.11 27.61 24.8 42.29 29.41 10.48 3.29 24 1.87 30.66-2.44.88-8.84 7.29-16.47 12.62-20.5-37.35-3.56-59.49-16.47-71-37.2l-1.23-2.32-2.88-6.59-.85-2.36c-3.6-10.53-5.19-22.58-5.19-36 0-23.91 7.49-32.93 17.54-45.67-7.68-27.25 2.76-45.88 2.76-45.88s16.17-3.33 46.73 18.43c16.56-7.06 60.72-7.65 81.61-1.57 12.82-8.43 36.28-20.39 45.74-17 2.56 4.1 8.08 16.06 3.35 42.33 3.21 5.77 19.91 18 20 52.74-.27 12.8-1.61 23.61-4.1 32.75l-1.38 4.67s-.79 2.2-1.65 4.31l-1 2.32c-11.08 24.2-33.81 33.23-70.53 37 11.9 7.45 15.31 16.8 15.31 42.09s-.34 28.69-.26 34.51c.07 5.14 4.18 8.84 7.88 11.63a159.2 159.2 0 0 0 107.87-150.78z"/></symbol><symbol id="ig" viewBox="0 0 400 400"><path d="M199.9 120.21a79.42 79.42 0 1 0 79.41 79.42 79.42 79.42 0 0 0-79.41-79.42zm0 131a51.59 51.59 0 1 1 51.58-51.59 51.59 51.59 0 0 1-51.58 51.6z"/><circle cx="282.45" cy="117.29" r="18.52" transform="rotate(-13.28 282.501 117.297)"/><path d="M346.49 301.55a113.52 113.52 0 0 0 7.22-37.55c.73-16.54.94-21.77.94-63.73s0-47.29-.94-63.72a113.46 113.46 0 0 0-7.22-38.09 79.09 79.09 0 0 0-45.2-45.2A113.27 113.27 0 0 0 263.72 46c-16.53-.73-21.76-.94-63.72-.94s-47.3 0-63.72.94a113.27 113.27 0 0 0-37.57 7.22 79.09 79.09 0 0 0-45.2 45.2A113.22 113.22 0 0 0 46.29 136c-.73 16.54-.94 21.77-.94 63.73s0 47.29.94 63.72A113.32 113.32 0 0 0 53.51 301a79.15 79.15 0 0 0 45.2 45.2 113.57 113.57 0 0 0 37.57 7.8c16.53.73 21.76.94 63.72.94s47.3 0 63.72-.94a113.27 113.27 0 0 0 37.57-7.22 79.09 79.09 0 0 0 45.2-45.23zm-20.72-39.34h-.21a85.63 85.63 0 0 1-5.33 29 51.25 51.25 0 0 1-29.41 29.4 85.55 85.55 0 0 1-28.67 5.34c-16.32.73-20.92.94-62.78.94s-46.14 0-62.78-.94a85.6 85.6 0 0 1-28.67-5.34 51.17 51.17 0 0 1-29.51-29.4 85.59 85.59 0 0 1-5.33-28.67c-.74-16.32-1-20.93-1-62.78s0-46.15 1-62.78a85.65 85.65 0 0 1 5.33-29 51.17 51.17 0 0 1 29.51-29.4 85.6 85.6 0 0 1 28.67-5.34c16.32-.73 20.93-.94 62.78-.94s46.15 0 62.78.94a85.55 85.55 0 0 1 28.67 5.34A51.28 51.28 0 0 1 320.23 108a85.59 85.59 0 0 1 5.33 28.67c.74 16.33.95 20.93.95 62.78s0 46.33-.74 62.76z"/></symbol><symbol id="in" viewBox="0 0 400 400"><path d="M118.74 143.65a25 25 0 1 0-25-25 25 25 0 0 0 25 25zm182.94 157.61V225.2c0-37.33-8.06-66-51.69-66-21 0-35 11.5-40.78 22.4h-.58v-19H167.3v138.66h43.06v-68.59c0-18.09 3.44-35.6 25.86-35.6 22.1 0 22.4 20.68 22.4 36.76v67.43zM97.18 162.6h43.1v138.66h-43.1z"/></symbol><symbol id="link" viewBox="0 0 400 400"><path d="M353.93 57.7c0-.2-.06-.39-.09-.58s-.06-.52-.11-.77-.11-.45-.17-.67-.1-.44-.17-.66-.15-.44-.22-.65-.15-.43-.24-.64a6.54 6.54 0 0 0-.28-.6c-.1-.22-.19-.43-.31-.64s-.22-.38-.33-.57-.24-.41-.37-.61-.3-.41-.45-.61-.23-.33-.36-.49a14.45 14.45 0 0 0-2-2c-.15-.13-.31-.23-.46-.35s-.42-.32-.64-.47-.39-.24-.58-.35-.39-.24-.6-.35a6.63 6.63 0 0 0-.6-.29c-.21-.1-.42-.21-.64-.3l-.59-.22c-.23-.08-.46-.17-.7-.24l-.6-.15c-.24-.07-.48-.13-.73-.18s-.45-.07-.68-.11-.45-.07-.68-.09c-.39 0-.79-.06-1.19-.07H129.66a14 14 0 0 0 0 28H306.2L50.1 329.18A14 14 0 0 0 69.9 349L326 92.88v176.54a14 14 0 1 0 28 0V59.09c0-.46 0-.93-.07-1.39z"/></symbol><symbol id="next" viewBox="0 0 400 400"><path d="M396.84 209.51c.13-.16.24-.32.37-.49s.3-.39.44-.6.25-.41.37-.61.23-.37.33-.56.21-.43.31-.64.19-.4.28-.6.16-.42.23-.64.16-.43.23-.65.11-.43.17-.65.12-.44.16-.67.08-.51.12-.77.06-.38.08-.58a14.14 14.14 0 0 0 0-2.76c0-.2-.05-.39-.08-.58s-.07-.51-.12-.77-.11-.45-.16-.67-.11-.44-.17-.65-.15-.44-.23-.65-.14-.43-.23-.64-.18-.4-.28-.59-.19-.44-.31-.65-.22-.37-.33-.55-.23-.42-.37-.62l-.44-.6c-.13-.16-.24-.33-.37-.49a12.9 12.9 0 0 0-.93-1L256.38 51.27A14 14 0 1 0 236.65 71l115.71 115.72H14a13.95 13.95 0 1 0 0 27.9h338.36L236.65 330.34a14 14 0 1 0 19.73 19.73l139.53-139.53a12.9 12.9 0 0 0 .93-1.03z"/></symbol><symbol id="vimeo" viewBox="0 0 400 400"><path d="M242 215.23a120.63 120.63 0 0 1-12 16.41c-4.66 5.38-11 7.71-17.75 4.4a30.08 30.08 0 0 1-9.31-7.75c-8.6-10.21-11.43-22.81-13.36-35.55-2.43-16.09-4.17-32.28-6.48-48.39-1.85-12.91-4.11-25.77-8.71-38.06a54.69 54.69 0 0 0-10.84-18.23c-8.42-9.13-18.75-9.39-29.8-6.26-12.1 3.42-22.33 10.33-31.85 18-16.57 13.43-32.57 27.55-48.83 41.34-1.67 1.41-1.83 2.73-.5 4.42a47 47 0 0 1 3.43 4.72c3.44 5.67 8.5 7.39 14.71 6 4.72-1 9.41-2.32 14.06-3.68 10.08-2.94 16.26-.45 20.49 9.09 3 6.68 5.38 13.6 7.78 20.5 9.61 27.74 16.11 56.34 23.53 84.69 4.13 15.76 9.07 31.3 18.45 44.92 5.36 7.77 11.88 14.34 21.55 16.47 6.88 1.52 13.72.62 20.45-1.23 14.57-4 26.7-12.43 38.25-21.66 13.76-11 25.67-23.86 36.91-37.43 14.23-17.17 26.26-35.78 37.13-55.13 13.74-24.45 25.57-49.83 34.38-76.53 3.63-11 6.72-22.13 5.67-33.88-1.17-13-7.53-22.12-20-26.81-10.36-3.9-21.14-3.6-31.92-2.79a37.66 37.66 0 0 0-10.09 2.07c-24.64 9.13-43.91 24.82-57 47.74-3 5.18-5 10.85-7.88 17 6.21 0 11.38-.2 16.54 0 13.24.62 20.57 7.47 20.94 20.54a77.2 77.2 0 0 1-2.15 20.14c-3 12.63-9.22 23.95-15.8 34.93z"/></symbol><symbol id="prev" viewBox="0 0 400 400"><path d="M386.05 186.72H47.64L163.35 71a14 14 0 1 0-19.73-19.73L4.09 190.8a12.9 12.9 0 0 0-.93 1c-.13.16-.24.33-.37.49l-.44.6c-.13.2-.25.41-.37.62s-.23.36-.33.55-.21.43-.31.65-.19.39-.28.59-.16.43-.23.64-.16.43-.23.65-.11.43-.17.65-.12.44-.16.67-.08.51-.12.77-.06.38-.08.58a14.14 14.14 0 0 0 0 2.76c0 .2.06.39.08.58s.07.52.12.77.11.45.16.67.11.44.17.65.15.44.23.65.15.43.23.64l.28.6c.1.21.19.43.31.64s.22.37.33.56.24.41.37.61.29.4.44.6.24.33.37.49a12.9 12.9 0 0 0 .93 1l139.53 139.59a14 14 0 1 0 19.73-19.73L47.64 214.62h338.41a13.95 13.95 0 0 0 0-27.9z"/></symbol></svg>