<svg xmlns="http://www.w3.org/2000/svg"><symbol id="ac" viewBox="0 0 400 400"><defs><style>.cls-1{fill:#00703c}.cls-2{fill:#fff}</style></defs><path d="M300-.19H100c-55 0-100 45-100 100v200c0 55 45 100 100 100h200c55 0 100-45 100-100v-200c0-55-45-100-100-100z" class="cls-1"/><path d="M339.68 303.82c-2.51-.1-5-.08-7.53-.32-4.12-.39-8.25-.8-12.32-1.46a100.94 100.94 0 0 1-22.32-6.45 102.67 102.67 0 0 1-37.17-26.2c-.17-.2-.35-.38-.53-.56 0 0-.08 0-.31-.15 4.52 10.61 9 21.07 13.47 31.65h-48.05a1 1 0 0 1-1.15-.78q-7.68-20-15.39-40a1 1 0 0 0-1.1-.76h-82.43a1 1 0 0 0-1.1.76q-7.69 20.06-15.42 40.08a1 1 0 0 1-1.06.72H60.32c.15-.37.24-.63.35-.88q8.55-20.08 17.09-40.17a1.65 1.65 0 0 1 .95-.92q20.48-9.15 41.45-17.07 25.07-9.49 50.68-17.44 22.57-7 45.45-12.91c5.4-1.39 10.82-2.72 16.23-4.05.53-.13.69-.31.69-.87 0-4.66-.08-9.32.17-14a93.46 93.46 0 0 1 4.32-23.18 100.67 100.67 0 0 1 43.3-56.3 104 104 0 0 1 36-14.14 112.24 112.24 0 0 1 18.63-2.11 5.46 5.46 0 0 0 .89-.13h3.21v40.66h-.56a63.28 63.28 0 0 0-17.61 2.59c-16.54 5.07-28.65 15.4-36.19 30.94-6.1 12.56-7.49 25.85-5.2 39.54A60.44 60.44 0 0 0 294 239.74a57.53 57.53 0 0 0 27 17.81 63.72 63.72 0 0 0 18.7 2.81z" class="cls-2"/><path d="M226.25 190.57l-42.06 6.22q-9-23.34-18.12-47c-.41 1-.75 1.9-1.08 2.76q-9.66 25.08-19.31 50.17a1.53 1.53 0 0 1-1.36 1.11q-6.58 1.19-13.15 2.51-13.17 2.66-26.42 5.39c-2.23.46-4.45 1-6.67 1.45l-.73.11c.3-.72.55-1.34.8-1.95Q122 155.24 145.9 99.13a1.27 1.27 0 0 1 1.37-.92h38.77a1.2 1.2 0 0 1 1.32.89q19.24 45.29 38.52 90.54c.12.29.24.6.37.93z" class="cls-2"/></symbol><symbol id="ig-white" viewBox="0 0 400 400"><defs><style>.cls-1{fill:#fff}</style></defs><path d="M308.66 117.48a46.09 46.09 0 0 0-26.43-26.43 76.88 76.88 0 0 0-25.77-4.79c-14.95-.85-18.81-.85-56.42-.85s-41.76.19-56.43.85a76.82 76.82 0 0 0-25.76 4.79 46 46 0 0 0-26.52 26.43 76.72 76.72 0 0 0-4.8 26.05c-.85 14.95-.85 18.81-.85 56.42s.19 41.76.85 56.43a76.83 76.83 0 0 0 4.8 25.76 46 46 0 0 0 26.52 26.43 77.08 77.08 0 0 0 25.76 4.8c15 .84 18.81.84 56.43.84s41.75-.19 56.42-.84a77.14 77.14 0 0 0 25.77-4.8 46.09 46.09 0 0 0 26.43-26.43 77 77 0 0 0 4.79-26.05h.19c.66-14.76.66-18.8.66-56.42s-.19-41.75-.85-56.42a76.88 76.88 0 0 0-4.79-25.77zM200.51 271.24a71.38 71.38 0 1 1 71.38-71.38 71.38 71.38 0 0 1-71.38 71.38zm74.2-128.75a16.65 16.65 0 1 1 16.64-16.64 16.64 16.64 0 0 1-16.64 16.64z" class="cls-1"/><circle cx="200.51" cy="199.86" r="46.36" class="cls-1" transform="rotate(-67.5 200.506 199.86)"/><path d="M299.9.19H100.1C45 .19 0 45.23 0 100.28v199.81c0 55.06 45 100.1 100.1 100.1h199.8c55.06 0 100.1-45 100.1-100.1V100.28C400 45.23 355 .19 299.9.19zm38.85 257.5a102 102 0 0 1-6.49 33.76 71.06 71.06 0 0 1-40.63 40.63 102 102 0 0 1-33.76 6.49c-14.76.85-19.56.85-57.27.85s-42.41-.19-57.27-.85a102.06 102.06 0 0 1-33.76-7A71.07 71.07 0 0 1 69 291a101.72 101.72 0 0 1-6.49-33.76c-.85-14.76-.85-19.56-.85-57.27s.19-42.41.85-57.27A101.77 101.77 0 0 1 69 108.92a71.08 71.08 0 0 1 40.57-40.62 102 102 0 0 1 33.76-6.49C158.1 61 162.89 61 200.6 61s42.42.19 57.27.85a102 102 0 0 1 33.76 6.49 71.07 71.07 0 0 1 40.63 40.62 102.17 102.17 0 0 1 6.49 34.23c.85 14.77.85 19.56.85 57.27s-.19 42.38-.85 57.23z" class="cls-1"/></symbol><symbol id="ig" viewBox="0 0 400 400"><path d="M308.66 117.29a46.1 46.1 0 0 0-26.43-26.42 76.64 76.64 0 0 0-25.77-4.8c-14.95-.85-18.81-.85-56.42-.85s-41.76.19-56.43.85a76.59 76.59 0 0 0-25.76 4.8 45.94 45.94 0 0 0-26.52 26.42 76.77 76.77 0 0 0-4.8 26.05c-.85 14.95-.85 18.81-.85 56.42s.19 41.76.85 56.43a76.94 76.94 0 0 0 4.8 25.81 46 46 0 0 0 26.52 26.42 77.08 77.08 0 0 0 25.76 4.8c15 .84 18.81.84 56.43.84s41.75-.18 56.42-.84a77.14 77.14 0 0 0 25.77-4.8A46.1 46.1 0 0 0 308.66 282a77 77 0 0 0 4.79-26h.19c.66-14.77.66-18.81.66-56.43s-.19-41.75-.85-56.42a76.88 76.88 0 0 0-4.79-25.86zM200.51 271.05a71.38 71.38 0 1 1 71.38-71.38 71.38 71.38 0 0 1-71.38 71.38zm74.2-128.74a16.65 16.65 0 1 1 16.64-16.65 16.65 16.65 0 0 1-16.64 16.65z"/><circle cx="200.51" cy="199.67" r="46.36" transform="rotate(-67.5 200.514 199.67)"/><path d="M299.9 0H100.1C45 0 0 45 0 100.1v199.8C0 355 45 400 100.1 400h199.8C355 400 400 355 400 299.9V100.1C400 45 355 0 299.9 0zm38.85 257.51a102 102 0 0 1-6.49 33.76 71.07 71.07 0 0 1-40.63 40.62 102 102 0 0 1-33.76 6.49c-14.76.85-19.56.85-57.27.85s-42.41-.19-57.27-.85a102.06 102.06 0 0 1-33.76-7A71.08 71.08 0 0 1 69 290.8a101.77 101.77 0 0 1-6.54-33.8c-.85-14.77-.85-19.56-.85-57.28s.19-42.41.85-57.27A101.77 101.77 0 0 1 69 108.73a71.08 71.08 0 0 1 40.62-40.62 102 102 0 0 1 33.76-6.49c14.77-.85 19.56-.85 57.27-.85s42.42.19 57.27.85a102 102 0 0 1 33.76 6.49 71.07 71.07 0 0 1 40.63 40.62 102.22 102.22 0 0 1 6.44 34.27c.85 14.77.85 19.56.85 57.27s-.19 42.38-.85 57.24z"/></symbol><symbol id="gh" viewBox="0 0 400 400"><path d="M300-.38H100c-55 0-100 45-100 100v200c0 55 45 100 100 100h200c55 0 100-45 100-100v-200c0-55-45-100-100-100zm-53.92 339.61c-3.33-2.52-7-5.84-7.08-10.46-.07-5.23.23-8.28.23-31s-3.07-31.14-13.76-37.83c33-3.38 53.43-11.5 63.38-33.25l.91-2.09c.77-1.88 1.48-3.86 1.48-3.86l1.24-4.21c2.24-8.21 3.44-17.92 3.68-29.42-.06-31.19-15.07-42.22-18-47.4 4.25-23.61-.71-34.36-3-38-8.51-3-29.59 7.74-41.11 15.32-18.78-5.46-58.47-4.94-73.35 1.41-27.46-19.56-42-16.57-42-16.57s-9.39 16.74-2.48 41.24c-9 11.45-15.77 19.56-15.77 41 0 12.1 1.43 22.93 4.66 32.39l.77 2.12 2.59 5.92 1.11 2.09c10.32 18.64 30.22 30.23 63.78 33.44-4.79 3.61-10.54 10.48-11.34 18.41-6 3.88-18.13 5.16-27.55 2.2-13.2-4.14-18.25-30.13-38-26.43-4.28.81-3.43 3.61.27 6 6 3.88 11.69 8.73 16.06 19.06 3.36 7.92 10.42 22.09 32.75 22.09a98.76 98.76 0 0 0 15.06-1.06s.18 20.24.18 28.11c0 5.13-4 8.18-7.37 10.65a143 143 0 1 1 92.62.16z"/></symbol><symbol id="gh-white" viewBox="0 0 400 400"><defs><style>.cls-1{fill:#fff}</style></defs><path d="M300-.19H100c-55 0-100 45-100 100v200c0 55 45 100 100 100h200c55 0 100-45 100-100v-200c0-55-45-100-100-100zm-53.92 339.61c-3.33-2.52-7-5.84-7.08-10.46-.07-5.23.23-8.29.23-31s-3.07-31.13-13.76-37.82c33-3.38 53.43-11.5 63.38-33.25l.91-2.09c.77-1.89 1.48-3.87 1.48-3.87l1.24-4.2c2.24-8.21 3.44-17.92 3.68-29.42-.06-31.19-15.07-42.22-18-47.4 4.25-23.62-.71-34.36-3-38-8.51-3-29.59 7.74-41.11 15.32-18.78-5.47-58.47-4.94-73.35 1.41-27.46-19.56-42-16.57-42-16.57s-9.39 16.74-2.48 41.23c-9 11.46-15.77 19.56-15.77 41.05 0 12.1 1.43 22.93 4.66 32.39l.77 2.12 2.59 5.92 1.11 2.09c10.42 18.56 30.27 30.13 63.83 33.37-4.79 3.61-10.54 10.48-11.34 18.41-6 3.88-18.13 5.16-27.55 2.2-13.2-4.14-18.25-30.13-38-26.43-4.28.8-3.43 3.61.27 6 6 3.88 11.69 8.73 16.06 19 3.36 7.93 10.42 22.1 32.75 22.1a98.76 98.76 0 0 0 15.06-1.06s.18 20.24.18 28.1c0 5.14-4 8.18-7.37 10.65a143 143 0 1 1 92.62.17z" class="cls-1"/></symbol><symbol id="in-white" viewBox="0 0 400 400"><defs><style>.cls-1{fill:#fff}</style></defs><path d="M300 .19H100c-55 0-100 45-100 100v200c0 55 45 100 100 100h200c55 0 100-45 100-100v-200c0-55-45-100-100-100zM140.64 300.77H97.83V163h42.81zm-21.39-156.59a24.82 24.82 0 1 1 24.81-24.82 24.82 24.82 0 0 1-24.81 24.82zM301 300.77h-42.78v-67c0-16-.29-36.52-22.25-36.52-22.27 0-25.69 17.4-25.69 35.37v68.14H167.5V163h41.06v18.82h.58c5.71-10.83 19.68-22.25 40.51-22.25 43.35 0 51.36 28.53 51.36 65.62z" class="cls-1"/></symbol><symbol id="in" viewBox="0 0 400 400"><path d="M300 0H100C45 0 0 45 0 100v200c0 55 45 100 100 100h200c55 0 100-45 100-100V100C400 45 355 0 300 0zM140.64 300.58H97.83V162.83h42.81zM119.25 144a24.83 24.83 0 1 1 24.81-24.83A24.83 24.83 0 0 1 119.25 144zM301 300.58h-42.78v-67c0-16-.29-36.52-22.25-36.52-22.27 0-25.69 17.4-25.69 35.37v68.14H167.5V162.83h41.06v18.82h.58c5.71-10.83 19.68-22.25 40.51-22.25C293 159.4 301 187.94 301 225z"/></symbol><symbol id="link" viewBox="0 0 400 400"><path d="M399.8 15.62a13.93 13.93 0 0 0-4-11.44h-.11A13.94 13.94 0 0 0 385.86 0L106.92.2a13.95 13.95 0 1 0 0 27.89l245.42-.17L4.19 376.09a13.94 13.94 0 0 0 19.72 19.72l348-348 .18 245.09a13.94 13.94 0 0 0 13.94 13.94 13.94 13.94 0 0 0 13.94-14z"/></symbol><symbol id="logo" viewBox="0 0 1000 1000"><path fill="#231f20" d="M0 0v450h125V275h200v175h125V0zm325 175H125v-50h200z" class="logoafill"/><path fill="#231f20" d="M1000 125V0H550v274.85h325V325H550v125h450V174.85H675V125z" class="logosfill"/><path fill="rgba(0, 0, 0, 0)" d="M15 985V565h95v175h230V565h95v420zm95-95h230v-80H110z" class="logoreverseafill"/><path fill="#231f20" d="M420 580v390H30V580h65v175h260V580zM95 905h260V795H95zm355-355H325v175H125V550H0v450h450zM125 875v-50h200v50z" class="logoreverseastroke"/><path fill="rgba(0, 0, 0, 0)" d="M565 985V740.15h325V660H565v-95h420v245.15H660V890h325v95z" class="logoreversesfill"/><path fill="#231f20" d="M970 580v215.15H645V905h325v65H580V755.15h325V645H580v-65zm30-30H550v125h325v50.15H550V1000h450V875H675v-49.85h325z" class="logoreversesstroke"/></symbol><symbol id="next" viewBox="0 0 400 400"><path d="M396.84 209.51c.13-.16.24-.32.37-.49s.3-.39.44-.6.25-.41.37-.61.23-.37.33-.56.21-.43.31-.64.19-.4.28-.6.16-.42.23-.64.16-.43.23-.65.11-.43.17-.65.12-.44.16-.67.08-.51.12-.77.06-.38.08-.58a14.14 14.14 0 0 0 0-2.76c0-.2-.05-.39-.08-.58s-.07-.51-.12-.77-.11-.45-.16-.67-.11-.44-.17-.65-.15-.44-.23-.65-.14-.43-.23-.64-.18-.4-.28-.59-.19-.44-.31-.65-.22-.37-.33-.55-.23-.42-.37-.62l-.44-.6c-.13-.16-.24-.33-.37-.49a12.9 12.9 0 0 0-.93-1L256.38 51.27A14 14 0 1 0 236.65 71l115.71 115.72H14a13.95 13.95 0 1 0 0 27.9h338.36L236.65 330.34a14 14 0 1 0 19.73 19.73l139.53-139.53a12.9 12.9 0 0 0 .93-1.03z"/></symbol><symbol id="prev" viewBox="0 0 400 400"><path d="M386.05 186.72H47.64L163.35 71a14 14 0 1 0-19.73-19.73L4.09 190.8a12.9 12.9 0 0 0-.93 1c-.13.16-.24.33-.37.49l-.44.6c-.13.2-.25.41-.37.62s-.23.36-.33.55-.21.43-.31.65-.19.39-.28.59-.16.43-.23.64-.16.43-.23.65-.11.43-.17.65-.12.44-.16.67-.08.51-.12.77-.06.38-.08.58a14.14 14.14 0 0 0 0 2.76c0 .2.06.39.08.58s.07.52.12.77.11.45.16.67.11.44.17.65.15.44.23.65.15.43.23.64l.28.6c.1.21.19.43.31.64s.22.37.33.56.24.41.37.61.29.4.44.6.24.33.37.49a12.9 12.9 0 0 0 .93 1l139.53 139.59a14 14 0 1 0 19.73-19.73L47.64 214.62h338.41a13.95 13.95 0 0 0 0-27.9z"/></symbol><symbol id="vimeo-white" viewBox="0 0 400 400"><defs><style>.cls-1{fill:#fff}</style></defs><path d="M300 0H100C45 0 0 45 0 100v200c0 55 45 100 100 100h200c55 0 100-45 100-100V100C400 45 355 0 300 0zm38 139.05c-8.46 25.64-19.81 50-33 73.48-10.44 18.58-22 36.45-35.64 52.94-10.8 13-22.23 25.37-35.44 35.93-11.09 8.87-22.74 16.94-36.72 20.79-6.47 1.78-13 2.65-19.64 1.19-9.29-2.05-15.54-8.36-20.69-15.82-9-13.07-13.75-28-17.71-43.12-7.13-27.22-13.37-54.68-22.6-81.31-2.3-6.63-4.63-13.28-7.47-19.68-4-9.16-10-11.55-19.67-8.73-4.46 1.3-9 2.52-13.5 3.53-6 1.32-10.82-.33-14.12-5.77a44.86 44.86 0 0 0-3.27-4.5c-1.29-1.61-1.13-2.88.47-4.24 15.62-13.24 31-26.8 46.89-39.69 9.13-7.4 19-14 30.57-17.32 10.62-3 20.53-2.76 28.62 6a52.46 52.46 0 0 1 10.41 17.5c4.41 11.81 6.58 24.15 8.36 36.54 2.22 15.47 3.88 31 6.22 46.47 1.85 12.22 4.57 24.32 12.82 34.13a29 29 0 0 0 9 7.44c6.51 3.18 12.56.94 17-4.23a115.6 115.6 0 0 0 11.43-15.75c6.37-10.54 12.34-21.41 15.25-33.47a74 74 0 0 0 2.05-19.36c-.36-12.55-7.4-19.12-20.12-19.72-4.94-.23-9.91 0-15.87 0 2.72-5.94 4.73-11.39 7.56-16.36 12.54-22 31-37.07 54.7-45.83a36.24 36.24 0 0 1 9.69-2c10.35-.81 20.66-1.07 30.66 2.69 12 4.5 18.09 13.3 19.2 25.74 1.02 11.28-1.95 21.96-5.44 32.53z" class="cls-1"/></symbol><symbol id="rgd" viewBox="0 0 400 400"><defs><style>.cls-1{fill:#ba292e}</style></defs><path d="M399.62 267.94H0V131.68c1.33 0 2.67.07 4 .07h396v133.09a25 25 0 0 1-.38 3.1zm-77.87-24.36v.34c7.61-.36 15.31-.09 22.8-1.21 16.16-2.41 27.11-11.41 31.73-27.42a59 59 0 0 0 1.72-22.38c-2-20.64-16.57-35.08-37.28-36.09-12.46-.61-25-.31-37.45-.48-1.81 0-2.56.52-2.56 2.43q.06 41.19 0 82.38c0 1.87.67 2.49 2.51 2.46 6.14-.08 12.34-.03 18.53-.03zm-144.38-36.93c1.49-.67 2.65-1.1 3.74-1.69 9.8-5.3 13.79-13.84 13.42-24.63-.34-10.06-5.18-17.26-14.56-20.94a34.8 34.8 0 0 0-11.37-2.54c-13.91-.41-27.84-.37-41.76-.47a12.2 12.2 0 0 0-2 .3 14.49 14.49 0 0 0-.22 1.79v82.7c0 1.89.64 2.48 2.48 2.45 5.62-.09 11.25-.11 16.88 0 2 0 2.61-.69 2.6-2.65-.08-9.54 0-19.08 0-28.62v-3.77a30.89 30.89 0 0 0 4.23 0c3-.45 4.57.86 6 3.42 5.57 9.78 11.44 19.38 17.06 29.12a4.4 4.4 0 0 0 4.53 2.55c5.53-.16 11.06 0 16.6-.06h5.47c-4.14-6.62-7.85-12.57-11.57-18.51s-7.59-12.1-11.53-18.45zm105.79-32.94c-1.49-2.2-2.58-4.21-4-5.93-8.5-10.08-19.86-13.32-32.5-13.15-19.82.25-34.64 11.75-39.42 30.72a58.62 58.62 0 0 0 1.06 33c4.38 13.4 13.24 22.45 27.11 25.7a59.18 59.18 0 0 0 16.15 1.36c11.87-.57 22.58-4.48 31.23-13a5.55 5.55 0 0 0 1.8-3.35c.13-11.83.1-23.66 0-35.49 0-.65-1.09-1.85-1.68-1.86-11.83-.11-23.66-.1-35.49 0-.61 0-1.74.78-1.75 1.21-.13 5.2-.08 10.4-.08 16h17.38c0 4.58.06 8.77-.06 12.95a3.22 3.22 0 0 1-1.2 2.07c-10 8-26.37 3.54-30.93-8.36-2.74-7.15-2.81-14.59-2.1-22 .6-6.16 2.32-12.06 7-16.49 8.11-7.61 21.43-5.85 27.72 3.5.44.66 1.77 1.45 2.26 1.23 5.75-2.53 11.4-5.24 17.5-8.11z" class="cls-1"/><path d="M322.9 226.32c-.08-1.78-.16-2.72-.16-3.66 0-15.06 0-30.11-.05-45.17 0-2.5.52-3.66 3.29-3.37 4.62.48 9.35.29 13.89 1.14 7.54 1.41 12.21 6.34 14.15 13.7a43.2 43.2 0 0 1 .09 21.78c-1.95 7.75-6.83 12.8-14.72 14.18-5.29.92-10.73.94-16.49 1.4zm-176.33-35.05v-17.7c6 0 11.92-.37 17.74.12 4.77.4 7.33 3.8 7.41 8.29.1 5-2.19 8.64-7.09 9.14-5.89.61-11.89.15-18.06.15z" class="cls-1"/></symbol><symbol id="vimeo" viewBox="0 0 400 400"><path d="M300-.19H100c-55 0-100 45-100 100v200c0 55 45 100 100 100h200c55 0 100-45 100-100v-200c0-55-45-100-100-100zm38 139.05c-8.46 25.64-19.81 50-33 73.48-10.44 18.58-22 36.45-35.64 52.94-10.8 13-22.23 25.37-35.44 35.93-11.09 8.87-22.74 17-36.72 20.8-6.47 1.77-13 2.64-19.64 1.18-9.29-2.05-15.54-8.35-20.69-15.82-9-13.07-13.75-28-17.71-43.12-7.13-27.22-13.37-54.68-22.6-81.31-2.3-6.63-4.63-13.28-7.47-19.68-4-9.16-10-11.55-19.67-8.73-4.46 1.3-9 2.52-13.5 3.53-6 1.32-10.82-.33-14.12-5.77a46 46 0 0 0-3.27-4.5c-1.29-1.61-1.13-2.88.47-4.23 15.62-13.25 31-26.81 46.89-39.69 9.13-7.41 19-14.05 30.57-17.33 10.62-3 20.53-2.76 28.62 6a52.46 52.46 0 0 1 10.41 17.5c4.41 11.81 6.58 24.15 8.36 36.55 2.22 15.46 3.88 31 6.22 46.46 1.85 12.22 4.57 24.32 12.82 34.13a29 29 0 0 0 9 7.44c6.51 3.18 12.56.94 17-4.23a115.6 115.6 0 0 0 11.43-15.75c6.37-10.54 12.34-21.41 15.25-33.46a74.06 74.06 0 0 0 2.07-19.33c-.36-12.56-7.4-19.13-20.12-19.73-4.94-.23-9.91 0-15.87 0 2.72-5.95 4.73-11.39 7.56-16.37 12.54-22 31-37.07 54.7-45.83a36.24 36.24 0 0 1 9.69-2c10.35-.81 20.66-1.07 30.66 2.69 12 4.5 18.09 13.3 19.2 25.74 1 11.27-1.97 21.94-5.46 32.51z"/></symbol></svg>