<svg xmlns="http://www.w3.org/2000/svg" width="400" height="400" viewBox="0 0 400 400"><path d="M386.05 186.72H47.64L163.35 71a14 14 0 1 0-19.73-19.73L4.09 190.8a12.9 12.9 0 0 0-.93 1c-.13.16-.24.33-.37.49l-.44.6c-.13.2-.25.41-.37.62s-.23.36-.33.55-.21.43-.31.65-.19.39-.28.59-.16.43-.23.64-.16.43-.23.65-.11.43-.17.65-.12.44-.16.67-.08.51-.12.77-.06.38-.08.58a14.14 14.14 0 0 0 0 2.76c0 .2.06.39.08.58s.07.52.12.77.11.45.16.67.11.44.17.65.15.44.23.65.15.43.23.64l.28.6c.1.21.19.43.31.64s.22.37.33.56.24.41.37.61.29.4.44.6.24.33.37.49a12.9 12.9 0 0 0 .93 1l139.53 139.59a14 14 0 1 0 19.73-19.73L47.64 214.62h338.41a13.95 13.95 0 0 0 0-27.9z"/></svg>