<svg xmlns="http://www.w3.org/2000/svg"><symbol id="illustration" viewBox="0 0 144 144"><defs><style>.cls-1{fill:#fff}</style></defs><path d="M73.17 70.62a17.52 17.52 0 0 1-9.55-3.31 1.5 1.5 0 0 1 1.81-2.39c.06 0 6.09 4.49 11.47 1.85a1.5 1.5 0 0 1 1.32 2.7 11.43 11.43 0 0 1-5.05 1.15z" class="cls-1"/><path d="M106.51 61.41c2.07-5.5 2.24-9.78.51-12.71a7.63 7.63 0 0 0-5.76-3.63c-4.2-.61-8.61-7.17-8.63-8.75a2.5 2.5 0 0 0-4.27-1.77 38 38 0 0 0-2.8 3.2c-2.55 3.19-4 5-21.23 8.76h-.14C55 49.11 52.76 59.57 52.67 60a2.36 2.36 0 0 0 0 .28c-.1.72-1.48 16.72 5.85 23.47a11.62 11.62 0 0 0 2.63 1.83 7.17 7.17 0 0 0-.83 1.58c-1.74 4.61 1 10.64 8.29 18.44a14.5 14.5 0 0 0 6.58 4.15 16.22 16.22 0 0 0 4.94.74c3.55 0 8.06-1 13.37-4.44l.22-.16A16.34 16.34 0 0 0 99 96.67c.28-1.47 1.56-3.45 2.91-5.55 2.48-3.84 5.56-8.61 5.56-14.57a27.17 27.17 0 0 0-1.2-8.22 8.83 8.83 0 0 1 .24-6.92zm-5.37.42a6.7 6.7 0 0 0-4.78-.21 9.49 9.49 0 0 1 5.86-3.08q-.18.54-.39 1.11a18.57 18.57 0 0 0-.69 2.18zm-3.45 26.58c-1.63 2.52-3.16 4.9-3.62 7.34a11.53 11.53 0 0 1-3.4 6.17c-12 7.6-18 .74-18.24.46l-.13-.15c-7.92-8.42-7.75-12.1-7.31-13.29.58-1.57 2.74-2.14 3.62-2.32l.58-.09a2.5 2.5 0 0 0-.66-5 8 8 0 0 0-.88.12 6.87 6.87 0 0 1-5.74-1.62c-4.52-4.12-4.66-15.03-4.32-19.12a18.3 18.3 0 0 1 1-2.75c3 2 4.56 1.73 7 1.14a21.38 21.38 0 0 1 5.75-.74c7.37 0 9.64 1 10.63 4.34A12.53 12.53 0 0 0 70 61.15a1 1 0 0 0 .66 1.85 10.78 10.78 0 0 1 10.78 2.1 1 1 0 0 0 .69.27 1.19 1.19 0 0 0 .26-.05c.13.88.24 1.85.36 3l.12 1.14c.35 3.11-.17 5.14-1.44 5.58a7.81 7.81 0 0 0-4.73 4.15 3.59 3.59 0 0 0 .12 3.81c1 1.32 2.88 1.79 6 1.49a12.61 12.61 0 0 0 5.59 1.62 6.11 6.11 0 0 0 2-.31 5.24 5.24 0 0 0 3.22-3.25 1.5 1.5 0 1 0-2.8-1.08 2.22 2.22 0 0 1-1.38 1.49c-1.75.6-4.64-.76-5.5-1.29a1.53 1.53 0 0 0-1-.21c-3.13.37-3.72-.22-3.72-.22a1.65 1.65 0 0 1 .2-.85 4.88 4.88 0 0 1 3-2.52c1.94-.67 4.12-2.73 3.44-8.76L85.73 68c-.94-8.59-1.89-12.39-14.47-12.39a24.26 24.26 0 0 0-6.47.83c-1.81.44-2.6.64-4.78-.85a10 10 0 0 1 5.47-4.16c17.78-3.98 20.52-6.2 23.79-10.32a22.23 22.23 0 0 0 2.37 3.28c1.6 1.85 4.89 5 8.89 5.63a2.67 2.67 0 0 1 2.18 1.21 6.66 6.66 0 0 1 .3 4.26c-2.79 0-8.26 1.1-12.15 8.88a1.5 1.5 0 1 0 2.68 1.34c.17-.32.34-.61.5-.9 1.31-.79 4.55-2.42 6.7-.89a11.8 11.8 0 0 0 .25 4 6.41 6.41 0 0 1-6.46.61 1.5 1.5 0 0 0-1.16 2.77 10 10 0 0 0 3.92.83 9.32 9.32 0 0 0 4.5-1.18 22.08 22.08 0 0 1 .66 5.57c0 4.48-2.53 8.48-4.76 11.89z" class="cls-1"/><path d="M88.92 94.14a2.5 2.5 0 0 0-3.44-.79S83 94.57 78.8 92c2.18-1 5.72-.68 5.77-.67a1 1 0 0 0 1.1-.89 1 1 0 0 0-.88-1.1c-.26 0-5.05-.52-7.79 1.42a28 28 0 0 1-2.35-2.1 2.5 2.5 0 1 0-3.54 3.53c5.19 5.19 9.59 6.43 12.62 6.43a8.84 8.84 0 0 0 4.4-1 2.51 2.51 0 0 0 .79-3.48z" class="cls-1"/><path d="M17.2 115.82a2.45 2.45 0 0 1-1.76-.73 2.49 2.49 0 0 1 0-3.53c10.94-11 11.62-22.94 12.34-35.63.84-14.74 1.79-31.46 19.22-48.17C57.8 17.43 68.68 12.9 79.31 14.27c14.32 1.85 23.42 13.8 25.74 17.19 2.86 1 9.17 4.94 10.37 21a1.93 1.93 0 0 1 0 .24c0 .38-.62 38.55 13 50.06a2.5 2.5 0 1 1-3.23 3.82C110 93.79 110.38 55.67 110.43 52.75c-1.18-15.35-7.22-16.62-7.28-16.63a2 2 0 0 1-1.79-1.12c-.08-.14-8.75-13.94-22.72-15.72-9.06-1.16-18.54 2.92-28.16 12.14-16 15.35-16.88 30.34-17.71 44.84C32 89.29 31.26 102.8 19 115.09a2.49 2.49 0 0 1-1.8.73zM105.7 129a1.52 1.52 0 0 1-1.21-.61c-6.83-9.25-17.93-12-18-12a1.5 1.5 0 0 1 .7-2.92c.5.12 12.28 3 19.75 13.15a1.51 1.51 0 0 1-.31 2.1 1.49 1.49 0 0 1-.93.28z" class="cls-1"/><path d="M57.2 126.25a1.59 1.59 0 0 1-.73-.19 1.52 1.52 0 0 1-.58-2 17.61 17.61 0 0 0 2-5.74c.59-2.94 1.15-5.71 5.85-8.91a1.5 1.5 0 0 1 1.68 2.49c-3.68 2.5-4 4.29-4.58 7a21 21 0 0 1-2.28 6.62 1.49 1.49 0 0 1-1.36.73zm-13-2.07a2.8 2.8 0 0 1-.48-.05 2.49 2.49 0 0 1-2-2.93c.06-.34 6.62-34.27 5.06-46.48a2.5 2.5 0 1 1 5-.63c1.67 13-4.84 46.64-5.11 48.07a2.51 2.51 0 0 1-2.47 2.02zm24.37-80.94a2.47 2.47 0 0 1-1.63-.61 2.5 2.5 0 0 1-.26-3.53c.42-.48 10.42-11.89 21.23-11.89a2.5 2.5 0 0 1 0 5c-7.1 0-15 7.34-17.44 10.17a2.52 2.52 0 0 1-1.9.86z" class="cls-1"/></symbol><symbol id="motion" viewBox="0 0 144 144"><defs><style>.cls-1{fill:#fff}</style></defs><path d="M79.92 89.08a2.42 2.42 0 0 1-1.25-.34 2.47 2.47 0 0 1-1.25-2.16V57.42a2.5 2.5 0 0 1 3.75-2.16l25.25 14.57a2.52 2.52 0 0 1 1.25 2.17 2.5 2.5 0 0 1-1.25 2.16L81.17 88.74a2.45 2.45 0 0 1-1.25.34zm2.5-27.33v20.5L100.17 72zM36.8 76.94h-22a2.5 2.5 0 0 1 0-5h22a2.5 2.5 0 0 1 0 5zm1.77 32.64h-9.42a2.5 2.5 0 1 1 0-5h9.42a2.5 2.5 0 1 1 0 5z" class="cls-1"/><path d="M89.85 30.16A41.69 41.69 0 0 0 61 41.75H14.81a2.5 2.5 0 0 0 0 5h41.7a41.77 41.77 0 0 0-5.83 40h-7a2.5 2.5 0 0 0 0 5h9.3a41.84 41.84 0 1 0 36.87-61.59zm0 78.68A36.84 36.84 0 1 1 126.69 72a36.87 36.87 0 0 1-36.84 36.84zM28 91.7h-9.4a2.5 2.5 0 0 1 0-5H28a2.5 2.5 0 1 1 0 5z" class="cls-1"/><path d="M43.92 58.81H24.45a2.5 2.5 0 0 1 0-5h19.47a2.5 2.5 0 0 1 0 5z" class="cls-1"/></symbol><symbol id="packaging" viewBox="0 0 144 144"><defs><style>.cls-1{fill:#fff}</style></defs><path d="M133.34 78.67L118.72 64a2.33 2.33 0 0 0-.38-.31l-.18-.1-.25-.13-.25-.08a1.41 1.41 0 0 0-.22-.06 2.63 2.63 0 0 0-.49 0h-89.9a2.63 2.63 0 0 0-.49 0 1.41 1.41 0 0 0-.22.06l-.25.08-.25.13-.18.1a2.33 2.33 0 0 0-.38.31L10.66 78.67a2.49 2.49 0 0 0 1.76 4.26h12.13v35.83a2.5 2.5 0 0 0 2.5 2.5H117a2.5 2.5 0 0 0 2.5-2.5V82.93h12.13a2.49 2.49 0 0 0 1.76-4.26zM28.08 68.31H51l-9.62 9.62H18.46zm1.47 14.62h12.84a2.49 2.49 0 0 0 1.77-.73l10.36-10.36v44.42h-25zm84.9 33.33H59.52V71.84L69.87 82.2a2.51 2.51 0 0 0 1.77.73h42.81zM72.68 77.93l-9.63-9.62h52.87l9.62 9.62z" class="cls-1"/><path d="M107.57 112.29H91.38a2.5 2.5 0 0 1-2.5-2.5V97.05a2.5 2.5 0 0 1 2.5-2.5h16.19a2.5 2.5 0 0 1 2.5 2.5v12.74a2.5 2.5 0 0 1-2.5 2.5zm-13.69-5h11.19v-7.74H93.88zm-12.58 5H69.09a2.5 2.5 0 0 1 0-5H81.3a2.5 2.5 0 0 1 0 5zm0-9.37h-7.74a2.5 2.5 0 0 1 0-5h7.74a2.5 2.5 0 0 1 0 5zM45.89 55.14a2.54 2.54 0 0 1-1.25-.33L34 48.64a2.5 2.5 0 0 1 2.5-4.33l10.68 6.17a2.49 2.49 0 0 1 .92 3.41 2.52 2.52 0 0 1-2.21 1.25zm6.73-8.02a2.47 2.47 0 0 1-1.91-.89l-7.93-9.45a2.5 2.5 0 0 1 3.83-3.21L54.54 43a2.5 2.5 0 0 1-.31 3.52 2.47 2.47 0 0 1-1.61.6zm9.07-5.23a2.51 2.51 0 0 1-2.35-1.65l-4.22-11.59a2.5 2.5 0 0 1 4.7-1.71L64 38.53a2.5 2.5 0 0 1-1.5 3.2 2.33 2.33 0 0 1-.81.16zM72 40.07a2.5 2.5 0 0 1-2.5-2.5V25.24a2.5 2.5 0 1 1 5 0v12.33a2.5 2.5 0 0 1-2.5 2.5zm10.31 1.82a2.33 2.33 0 0 1-.85-.16 2.5 2.5 0 0 1-1.5-3.2l4.22-11.59a2.5 2.5 0 0 1 4.7 1.71l-4.22 11.59a2.51 2.51 0 0 1-2.35 1.65zm9.07 5.23a2.47 2.47 0 0 1-1.61-.59 2.5 2.5 0 0 1-.31-3.53l7.93-9.44a2.5 2.5 0 0 1 3.83 3.21l-7.93 9.45a2.47 2.47 0 0 1-1.91.9zm6.73 8.02a2.52 2.52 0 0 1-2.17-1.25 2.49 2.49 0 0 1 .92-3.41l10.68-6.17a2.5 2.5 0 0 1 2.5 4.33l-10.68 6.17a2.54 2.54 0 0 1-1.25.33z" class="cls-1"/></symbol><symbol id="branding" viewBox="0 0 144 144"><defs><style>.cls-1{fill:#fff}</style></defs><path d="M121.16 63.7c-1.1 7.19-2.68 14.35-2.08 21.72a14.9 14.9 0 0 1 0 1.89c-.09 1.88-.55 2.4-2.11 2.45a2.56 2.56 0 0 1-2.9-2.25c-.15-2 0-4-.09-6-.23-5.25.8-10.33 1.65-15.48.8-4.89 1.67-9.88.36-14.9-.46-1.8-.39-3.74-.84-5.55A41 41 0 0 0 103 24.87a38.29 38.29 0 0 0-12.26-7.45 52 52 0 0 0-11.8-2.77c-7.9-1-15.16.73-22 4.19-8 4.07-14 10.45-18.35 18.32a49.82 49.82 0 0 0-5.16 14.69c-.88 4.49-3.21 8.38-5.25 12.37a6.42 6.42 0 0 1-1.69 1.84 2.11 2.11 0 0 1-2.85.22c-1-.75-1.63-1.66-1-3a19.19 19.19 0 0 1 1.36-2.7c2.62-3.76 3.89-8 4.92-12.42A47.83 47.83 0 0 1 35 32.83a57.25 57.25 0 0 1 8-10.38 45.83 45.83 0 0 1 21.58-12.07 39.48 39.48 0 0 1 12.7-1.26c10.12 1 19.49 3.84 27.57 10.51 8.71 7.19 13.6 16.41 16.05 27.19 0 0 1.46 9.04.26 16.88zM67 133.55a2.39 2.39 0 0 1 .77-3.34c4.1-2.79 7.44-6.39 10.91-9.86.52-.52 1-1.08 1.56-1.55 1.3-1.08 2.53-1.07 3.54.24 1.65 2.15 3.15 4.41 4.7 6.62a1.91 1.91 0 0 1 .16.27 3 3 0 0 1-.92 3.65 2.55 2.55 0 0 1-3.36-.63 26.28 26.28 0 0 1-2.28-3c-.34-.48-.52-.85-1.13-.31q-5 4.45-10.08 8.88a2.7 2.7 0 0 1-3.87-.97z" class="cls-1"/><path d="M75.14 20.15a34.66 34.66 0 0 1 22.19 7.44 32.51 32.51 0 0 1 12.31 19.81 45.85 45.85 0 0 1 1.17 7.68 69.8 69.8 0 0 1-.64 9.34c-.27 2.36-.85 4.69-1.24 7-.23 1.43-.39 2.87-.55 4.31-.2 1.75-.38 3.51-.56 5.26a5.34 5.34 0 0 0 0 1.26c.75 6 .69 12.09 3.74 17.57a7.61 7.61 0 0 1 .64 2.39 2 2 0 0 1-1.49 2.39c-1.31.47-2 .22-2.93-1-2.11-2.73-3-6-3.69-9.23a48.51 48.51 0 0 1-1.35-13.64 125.39 125.39 0 0 1 1.6-13.92c1.32-7 1.77-14.15-.5-21.05a28.68 28.68 0 0 0-6-10.52 29.52 29.52 0 0 0-14-8.61 28.07 28.07 0 0 0-20.68 1.56c-10.73 5.19-16.33 14.17-19 25.41a56 56 0 0 1-2.43 8 52.24 52.24 0 0 1-7.35 12.73 79.27 79.27 0 0 1-7.48 7.64 2.77 2.77 0 0 1-3.7.18 4 4 0 0 1-.07-3.87 3.91 3.91 0 0 1 .86-.91c4.89-3.78 8.23-8.81 11.22-14.07a39.26 39.26 0 0 0 3.91-10.84 45.61 45.61 0 0 1 5.74-14.79c5.35-8.4 12.67-14.09 22.29-16.64 2.54-.58 5.31-.57 7.99-.88z" class="cls-1"/><path d="M75.62 42.46A12.6 12.6 0 0 1 82 43.75c3.48 1.55 5.06 4.55 6.18 7.89 1.28 3.81.6 7.64-.21 11.41-.84 4-1.77 7.91-2.88 11.8a75.15 75.15 0 0 1-8.59 20.07c-2.24 3.51-4.2 7.29-6.92 10.39-5.46 6.2-11.27 12.13-18.88 15.82-1.51.73-3 1.52-4.52 2.2a2.49 2.49 0 0 1-3.59-1.33c-.63-1.27-.35-2.17 1.19-3.1 2.32-1.4 4.75-2.63 7-4.06a61.83 61.83 0 0 0 19-19.21 90 90 0 0 0 12-29c.71-3 1.72-6.09 1.75-9.15.06-5.56-1.9-10.19-8.84-9.84-3 .15-5.21 2-6.77 4.51a21.26 21.26 0 0 0-2.47 6.71A70 70 0 0 1 54.69 83.6a85.68 85.68 0 0 1-20 20.19 6.45 6.45 0 0 1-1.94 1 2.35 2.35 0 0 1-2.72-1.09 2 2 0 0 1 .16-2.86c1.53-1.41 3.22-2.65 4.78-4 3.11-2.74 6.49-5.13 9.14-8.48A107.19 107.19 0 0 0 52 77.84a68.43 68.43 0 0 0 8.49-20.38c.73-3.14 1.56-6.22 3.53-9 3.05-4.19 6.16-6.01 11.6-6z" class="cls-1"/><path d="M92 82.34A76.74 76.74 0 0 1 93.71 64a47.4 47.4 0 0 0 .74-8 21.43 21.43 0 0 0-3.4-11.52c-2.51-4.21-6.53-6.18-10.88-7.48a17.22 17.22 0 0 0-10.7.44 20.46 20.46 0 0 0-11.21 9.46c-2.14 3.67-3 7.76-4.06 11.78a56.7 56.7 0 0 1-9.9 20.44 95.55 95.55 0 0 1-7.56 8.76 99 99 0 0 1-7.91 6.62 4.87 4.87 0 0 1-1.68.82 2.38 2.38 0 0 1-2.74-1.06 2 2 0 0 1 .11-2.85c1.48-1.41 3.26-2.62 4.76-4.06 2.93-2.81 5.77-5.72 8.64-8.6C41 75.67 43 71.86 45 68.11a48.77 48.77 0 0 0 4.71-12.88 34.64 34.64 0 0 1 5-12.72 25 25 0 0 1 12.82-10c8.21-2.78 15.92-1.3 22.8 3.76 6.19 4.56 8.85 11 9.22 18.64.25 5.07-.79 9.94-1.65 14.86a54.57 54.57 0 0 0-.87 7.74c-.17 5.85-.19 11.69 1.2 17.45 1.17 4.9 2.66 9.64 5.88 13.67a19.38 19.38 0 0 1 1.57 2.33 2.75 2.75 0 0 1-.51 3.37 2.48 2.48 0 0 1-3.42-.2 21.91 21.91 0 0 1-2.75-3.42 42 42 0 0 1-5.76-13.78A51.8 51.8 0 0 1 92 82.34z" class="cls-1"/><path d="M98.5 121c0 1.64-.7 2.44-1.71 2.44s-1.91.33-2.72-.44a29.63 29.63 0 0 1-7-10.64c-1.08-2.7-1.76-5.54-2.64-8.32a5.77 5.77 0 0 0-.35-.76c-.26.17-.6.28-.76.52-1.67 2.52-3.23 5.11-5 7.58a59.7 59.7 0 0 1-11.35 12A62.76 62.76 0 0 1 55.46 131c-.37.18-.74.39-1.13.55-1.71.69-3 .28-3.72-1.14C50 129.2 50.52 128 52 127c1-.62 2-1.21 3-1.76a58.14 58.14 0 0 0 22-21.38c2.16-3.58 4-7.37 5.89-11.08.51-1 1-1.8 2.27-1.84 2 0 2.94 1 3.13 3.4.1 1.27.19 2.55.38 3.81 1.14 7.32 3.17 14.3 8 20 .67.76 2.2.99 1.83 2.85zm-21-63c-.26 1.43-.41 2.89-.8 4.29a100.75 100.75 0 0 1-12.94 29.04 65.67 65.67 0 0 1-25.14 22.56 14 14 0 0 1-1.7.83 2.58 2.58 0 0 1-3.38-1.41 2.66 2.66 0 0 1 1.21-3.45c2.62-1.52 5.35-2.87 7.89-4.52A56.69 56.69 0 0 0 55.8 92.91c8-10 13-21.33 16-33.64a16.18 16.18 0 0 1 .71-2.4 2.94 2.94 0 0 1 2.81-1.58A2.54 2.54 0 0 1 77.5 58z" class="cls-1"/></symbol><symbol id="photography" viewBox="0 0 144 144"><defs><style>.cls-1{fill:#fff}</style></defs><path d="M82.51 96.85a18.57 18.57 0 1 1 18.57-18.57 18.59 18.59 0 0 1-18.57 18.57zm0-32.13a13.57 13.57 0 1 0 13.57 13.56 13.58 13.58 0 0 0-13.57-13.56z" class="cls-1"/><path d="M124.57 32.92H44.13a2.5 2.5 0 0 0-2.5 2.5V40h-2v-4.58a2.5 2.5 0 0 0-2.5-2.5H22.56a2.5 2.5 0 0 0-2.5 2.5V40h-.63a2.5 2.5 0 0 0-2.5 2.5v58.8a2.5 2.5 0 0 0 2.5 2.5H61.9a32.72 32.72 0 0 0 41.23 0h21.44a2.5 2.5 0 0 0 2.5-2.5V35.42a2.5 2.5 0 0 0-2.5-2.5zm-99.51 5h9.53v2h-9.53zm29.66 40.36a27.8 27.8 0 1 1 27.79 27.8 27.83 27.83 0 0 1-27.79-27.8zm67.35 20.49h-14a32.8 32.8 0 1 0-51.17 0h-35V45h22.2a2.5 2.5 0 0 0 2.5-2.5v-4.58h75.44v60.85z" class="cls-1"/><path d="M44.44 66.16H29.91a2.5 2.5 0 0 1-2.5-2.5V53.22a2.5 2.5 0 0 1 2.5-2.5h14.53a2.5 2.5 0 0 1 2.5 2.5v10.44a2.5 2.5 0 0 1-2.5 2.5zm-12-5h9.53v-5.44h-9.56z" class="cls-1"/></symbol><symbol id="posters" viewBox="0 0 144 144"><defs><style>.cls-1{fill:#fff}</style></defs><path d="M131.74 29.09a6.3 6.3 0 0 0-5-2.48h-57a19.18 19.18 0 0 0-18.57-13.94A18 18 0 0 0 33.32 28l-21.18 78.87a18.39 18.39 0 0 0-.93 3.46L11 111h.07a18.64 18.64 0 0 0-.16 2.26A18.1 18.1 0 0 0 29 131.33h73a6.33 6.33 0 0 0 6.11-4.69l24.71-92.06a6.31 6.31 0 0 0-1.08-5.49zM51.17 17.67c6.87 0 13 5.15 13.92 11.37l-20.26 75.49a18 18 0 0 0-25.07-6.76l18.36-68.4h.05a13 13 0 0 1 13-11.7zM16 113.26a12.35 12.35 0 0 1 .15-1.84l.83-3.1a13 13 0 1 1-1 4.94zm112-79.98l-24.71 92.07a1.34 1.34 0 0 1-1.28 1H41.46a18.13 18.13 0 0 0 5.31-9.74l22.8-85h57.15a1.31 1.31 0 0 1 1 .52 1.29 1.29 0 0 1 .28 1.15z" class="cls-1"/><path d="M26.21 120.63a2.45 2.45 0 0 1-1.25-.34 8.12 8.12 0 0 1-3-11.09 8.11 8.11 0 0 1 11.09-3 2.5 2.5 0 1 1-2.5 4.33 3.16 3.16 0 0 0-2.37-.31 3.13 3.13 0 0 0-.75 5.72 2.5 2.5 0 0 1-1.25 4.67z" class="cls-1"/></symbol><symbol id="print" viewBox="0 0 144 144"><defs><style>.cls-1{fill:#fff}</style></defs><path d="M74.9 45.1L58.4 27.44a6.14 6.14 0 0 0-4.47-1.94H17.39a6.13 6.13 0 0 0-6.13 6.12v78.84a6.14 6.14 0 0 0 6.13 6.13h53a6.14 6.14 0 0 0 6.13-6.13V49.28a6.12 6.12 0 0 0-1.62-4.18zM58 34.34l10.29 11h-9.16A1.13 1.13 0 0 1 58 44.23zm12.42 77.25h-53a1.14 1.14 0 0 1-1.13-1.13V31.62a1.13 1.13 0 0 1 1.13-1.12H53v13.73a6.13 6.13 0 0 0 6.13 6.12h12.42v60.11a1.14 1.14 0 0 1-1.13 1.13z" class="cls-1"/><path d="M62.79 64.66H24.54a2.5 2.5 0 1 1 0-5h38.25a2.5 2.5 0 1 1 0 5zm0 9.91H24.54a2.5 2.5 0 1 1 0-5h38.25a2.5 2.5 0 1 1 0 5zm0 9.9H24.54a2.5 2.5 0 1 1 0-5h38.25a2.5 2.5 0 1 1 0 5zm63.04-19.41h-33a6.92 6.92 0 0 1-6.91-6.91V42.34a6.92 6.92 0 0 1 6.91-6.91h33a6.92 6.92 0 0 1 6.91 6.91v15.81a6.92 6.92 0 0 1-6.91 6.91zm-33-24.63a1.9 1.9 0 0 0-1.91 1.91v15.81a1.91 1.91 0 0 0 1.91 1.91h33a1.92 1.92 0 0 0 1.91-1.91V42.34a1.91 1.91 0 0 0-1.91-1.91z" class="cls-1"/><path d="M119.26 55.86H99.37a2.5 2.5 0 0 1 0-5h19.89a2.5 2.5 0 0 1 0 5zm6.57 49.01h-33A6.92 6.92 0 0 1 85.89 98V82.15a6.93 6.93 0 0 1 6.91-6.92h33a6.93 6.93 0 0 1 6.91 6.92V98a6.92 6.92 0 0 1-6.88 6.87zm-33-24.64a1.91 1.91 0 0 0-1.91 1.92V98a1.91 1.91 0 0 0 1.91 1.91h33a1.92 1.92 0 0 0 1.91-1.91V82.15a1.92 1.92 0 0 0-1.91-1.92z" class="cls-1"/><path d="M119.26 95.67H99.37a2.5 2.5 0 0 1 0-5h19.89a2.5 2.5 0 0 1 0 5z" class="cls-1"/></symbol><symbol id="social" viewBox="0 0 144 144"><defs><style>.cls-1{fill:#fff}</style></defs><path d="M69 71.6a2.55 2.55 0 0 1-1.45-.46L54.06 61.6H14.15a2.5 2.5 0 0 1-2.5-2.5V20.15a2.5 2.5 0 0 1 2.5-2.5H69a2.5 2.5 0 0 1 2.5 2.5V69.1a2.51 2.51 0 0 1-1.36 2.22 2.43 2.43 0 0 1-1.14.28zm-52.3-15h38.16a2.47 2.47 0 0 1 1.44.46l10.15 7.2V22.65h-49.8zM54.73 107a2.49 2.49 0 0 1-1.36-.41l-8.5-5.59H19.26a2.5 2.5 0 0 1-2.5-2.5V77.31a2.5 2.5 0 0 1 2.5-2.5h35.47a2.5 2.5 0 0 1 2.5 2.5v27.15a2.5 2.5 0 0 1-2.5 2.5zm-33-11h23.88a2.47 2.47 0 0 1 1.37.41l5.25 3.43v-20H21.76zm60.8-16A2.5 2.5 0 0 1 80 77.5V44.63a2.49 2.49 0 0 1 2.5-2.5h47.32a2.49 2.49 0 0 1 2.5 2.5v27.6a2.5 2.5 0 0 1-2.5 2.5H91.34l-7.45 4.86a2.49 2.49 0 0 1-1.36.41zM85 47.13v25.75l4.2-2.75a2.55 2.55 0 0 1 1.37-.4h36.75v-22.6zm-15 79.22a2.5 2.5 0 0 1-2.5-2.5V87.14a2.5 2.5 0 0 1 2.5-2.5h52.85a2.5 2.5 0 0 1 2.5 2.5V118a2.5 2.5 0 0 1-2.5 2.5H79.76l-8.4 5.48a2.47 2.47 0 0 1-1.36.37zm2.5-36.71v29.59l5.15-3.36a2.52 2.52 0 0 1 1.36-.41h41.34V89.64z" class="cls-1"/><path d="M97.08 111.38c-5.48 0-8.35-2-10.61-7.52a2.5 2.5 0 1 1 4.62-1.86c1.5 3.64 2.56 4.43 6 4.43s4.5-.79 6-4.43a2.5 2.5 0 1 1 4.62 1.91c-2.27 5.43-5.15 7.47-10.63 7.47zM57.93 33.29h-33a2.5 2.5 0 0 1 0-5h33a2.5 2.5 0 0 1 0 5zm0 9h-33a2.5 2.5 0 0 1 0-5h33a2.5 2.5 0 0 1 0 5zm63.29 14.28h-30a2.5 2.5 0 0 1 0-5h30.05a2.5 2.5 0 0 1 0 5zM44.67 90.78h-16a2.5 2.5 0 0 1 0-5h16a2.5 2.5 0 0 1 0 5zm76.55-25.32h-30a2.5 2.5 0 0 1 0-5h30.05a2.5 2.5 0 1 1 0 5zM57.93 51.29h-33a2.5 2.5 0 0 1 0-5h33a2.5 2.5 0 0 1 0 5zm34.9 41.78a2.84 2.84 0 1 0 2.83 2.83 2.84 2.84 0 0 0-2.83-2.83zm9 0a2.84 2.84 0 1 0 2.83 2.83 2.84 2.84 0 0 0-2.83-2.83z" class="cls-1"/></symbol><symbol id="web" viewBox="0 0 144 144"><defs><style>.cls-1{fill:#fff}</style></defs><path d="M128.52 37.24h-12.41a2.5 2.5 0 0 0 0 5H126v45.44H18V42.24h10.9a2.5 2.5 0 0 0 0-5H15.48a2.5 2.5 0 0 0-2.5 2.5v62.54a2.5 2.5 0 0 0 2.5 2.5h48.09l-2 9.48h-9.18a10 10 0 0 0-10 10 2.5 2.5 0 0 0 2.5 2.5h54.22a2.5 2.5 0 0 0 2.5-2.5 10 10 0 0 0-10-10h-9.22l-2-9.48h48.09a2.5 2.5 0 0 0 2.5-2.5V39.74a2.5 2.5 0 0 0-2.46-2.5zm-32.58 84.52H48.06a5 5 0 0 1 4.33-2.5H91.6a5 5 0 0 1 4.34 2.5zm-18.65-7.5H66.71l2-9.48h6.64zM126 99.78H18v-7.1h108z" class="cls-1"/><path d="M72 79.47a34.94 34.94 0 1 0-34.94-34.94A35 35 0 0 0 72 79.47zM49.3 64a43.5 43.5 0 0 1 9.14-2.81 36.13 36.13 0 0 0 5.13 12A30 30 0 0 1 49.3 64zm34.9-17.84a69.31 69.31 0 0 1-1.13 11.29 76.05 76.05 0 0 0-22.14 0 69.31 69.31 0 0 1-1.13-11.29zM59.8 42.9a69.31 69.31 0 0 1 1.13-11.29 74.48 74.48 0 0 0 11.07.81 74.48 74.48 0 0 0 11.07-.81A69.31 69.31 0 0 1 84.2 42.9zM75 74.32a29.28 29.28 0 0 1-5.92 0c-2.93-2-5.68-6.81-7.41-13.68a74 74 0 0 1 20.74 0c-1.77 6.87-4.52 11.7-7.41 13.68zm5.47-1.07a36.13 36.13 0 0 0 5.13-12A43.5 43.5 0 0 1 94.7 64a30 30 0 0 1-14.27 9.25zm16.28-11.89A46.66 46.66 0 0 0 86.26 58a70.08 70.08 0 0 0 1.2-11.85h14.43a29.77 29.77 0 0 1-5.14 15.21zm0-33.66a29.77 29.77 0 0 1 5.14 15.2H87.46a70.08 70.08 0 0 0-1.2-11.85 46.5 46.5 0 0 0 10.49-3.35zm-2-2.65a43.5 43.5 0 0 1-9.14 2.81 36.13 36.13 0 0 0-5.13-12 30 30 0 0 1 14.22 9.19zM69 14.74a29.28 29.28 0 0 1 5.92 0c2.93 2 5.68 6.81 7.41 13.68a71.93 71.93 0 0 1-10.33.73 71.93 71.93 0 0 1-10.37-.73c1.73-6.87 4.48-11.7 7.37-13.68zm-5.47 1.07a36.13 36.13 0 0 0-5.13 12A43.5 43.5 0 0 1 49.26 25a30 30 0 0 1 14.31-9.19zM47.25 27.7a46.66 46.66 0 0 0 10.49 3.35 70.08 70.08 0 0 0-1.2 11.85H42.11a29.77 29.77 0 0 1 5.14-15.2zm-5.14 18.46h14.43A70.08 70.08 0 0 0 57.74 58a46.66 46.66 0 0 0-10.49 3.35 29.77 29.77 0 0 1-5.14-15.19z" class="cls-1"/></symbol><symbol id="typography" viewBox="0 0 144 144"><defs><style>.cls-1{fill:#fff}</style></defs><path d="M70.2 103.12l-7.06-62.8a2.5 2.5 0 0 0-2.49-2.22h-17.9a2.5 2.5 0 0 0-2.46 2.06L35 69.5h-7.13a2.5 2.5 0 0 0 0 5h6.21l-4.77 26.4h-9.14a2.5 2.5 0 0 0 0 5H31.4a2.5 2.5 0 0 0 2.46-2.06l5.3-29.34H62l3.28 29.18a2.51 2.51 0 0 0 2.48 2.22h.29a2.5 2.5 0 0 0 2.15-2.78zM40.07 69.5l4.77-26.4h13.58l3 26.4zm82.76-22.4H74.08a2.5 2.5 0 0 1 0-5h48.75a2.5 2.5 0 0 1 0 5zM106.47 60H76.19a2.5 2.5 0 0 1 0-5h30.28a2.5 2.5 0 0 1 0 5zm8.23 12.85H77.53a2.5 2.5 0 0 1 0-5h37.17a2.5 2.5 0 1 1 0 5zm9.13 12.87h-44.3a2.5 2.5 0 0 1 0-5h44.3a2.5 2.5 0 1 1 0 5zm0 12.88H81.76a2.5 2.5 0 0 1 0-5h42.07a2.5 2.5 0 1 1 0 5z" class="cls-1"/></symbol></svg>