<svg viewBox="0 0 126.1 121.69" xmlns="http://www.w3.org/2000/svg"><path d="m91.71 104c.75-1.67-1-4.34-2.7-6.92-1.14-1.74-2.56-3.91-2.22-4.59s.64-1.25.94-1.82c-.41-3.27.61-7 1.45-10 .6-2.14 1.21-4.34.77-4.92 0 0-.11-.15-.42-.15-3.42 0-4.28 3.75-5 7.07-.58 2.54-1.09 4.74-2.79 4.74-2.06 0-2.64-2.16-3.14-4-.46-1.73-.83-2.85-1.66-2.85s-1.34 2.31-1.68 4.16c-.44 2.45-.89 5-2.65 5s-2.21-1.82-2.66-3.43c-.13-.45-.25-.86-.38-1.21-.75 4-.58 8.34 3.19 11.16 5 3.12 10.16 7.18 9.78 8.35-.65 5.32-2 10.08-2.79 10.19-8.15 1-10.77 1.58-11.67 6.3a.55.55 0 0 0 .09.39.55.55 0 0 0 .35.2c1 .11 2.44.15 4 .15 4.21 0 9.25-.33 9.54-.35a.47.47 0 0 0 .35-.18.48.48 0 0 0 .11-.38c-.27-2.08 4.58-9.49 7.19-13.48.99-1.8 1.78-3 2-3.43z" fill="#f1f2f2"/><g fill="#fff"><path d="m126.09 101.83a50.87 50.87 0 0 0 -1.43-8.38c-1.07-4.71-2.28-10-1.81-16.85.69-9.95-1.13-17.1-5.58-21.85-6.43-6.9-17.9-7.83-28.27-7.83-12.62 0-26.24 4-35.26 6.62-4.67 1.37-9.08 2.66-9.9 2.24-1.62-.84-3.34-3-4.37-4.39l-.64.31a15.75 15.75 0 0 0 -4.36 3.42 16.2 16.2 0 0 1 3.81-4.25l.54-.4c2.84-1.94 15.51-10.72 15.78-13.69.11-1.21-1-7.57-2.75-8.93a1.29 1.29 0 0 0 -1.28-.22 113.43 113.43 0 0 0 -10.21 5.05c-1.64.9-2.91.59-4.53.21a10.29 10.29 0 0 0 -5.38-.2 38.3 38.3 0 0 0 -3.86 1.19c-2.9-1.28-10.37-3.52-11.63-1.46-.72 1.19.64 3.07 4.41 6.05a12.26 12.26 0 0 0 -1.12 1.53.31.31 0 0 0 -.13-.06c-6.51-1.49-13.7-.36-14.5 2.28-.55 1.78 1.56 3.6 6.25 5.41 4.35 1.66 6.11 1.68 6.18 1.68h.16c0 1 .07 1.94.14 2.8.66 9 4.58 17.42 7.5 23l.15 1.89a35.51 35.51 0 0 0 1.86 10.34c-1.2 2.19-2.89 5.78-4.69 9.58-3 6.44-8.12 17.22-9.51 17.47-8.14 1.06-10.76 1.61-11.66 6.32a.45.45 0 0 0 .09.39.45.45 0 0 0 .34.2c3.93.44 13.11-.16 13.5-.19a.5.5 0 0 0 .38-.22 64.94 64.94 0 0 1 5.4-7.06l.23-.23c7-7 14.3-14.3 15.63-17.41a28.13 28.13 0 0 0 1.11-3.19 21.49 21.49 0 0 1 .7-2.1c-.38-.22-.74-.45-1.1-.7a17 17 0 0 1 -5.64-6.46 15.68 15.68 0 0 0 4 3.84 15.34 15.34 0 0 0 2.36 1.32 13.36 13.36 0 0 0 2.48.87c1.24.06 2.72.26 2.94 1-.06.41-.5 2.6-3.14 8.07a79.12 79.12 0 0 0 -3.46 9c-1.07 3.14-2.17 6.38-3 6.86-8.09 1-10.69 1.59-11.58 6.29a.47.47 0 0 0 .09.39.5.5 0 0 0 .34.2c3.93.43 13.1-.17 13.49-.2a.48.48 0 0 0 .44-.33 13.49 13.49 0 0 1 2.93-4 16.68 16.68 0 0 0 2.18-2.64c1.25-2.17 12-18.75 16.22-23a.49.49 0 0 0 .15-.36 39.89 39.89 0 0 0 -.58-6.22 15.89 15.89 0 0 0 -2.26-4.67 16.23 16.23 0 0 1 3.3 4.65 17.76 17.76 0 0 1 1 2.74q.14.47.24.93a24.11 24.11 0 0 0 2.4-1.8.45.45 0 0 1 .26 0c.33.14.55 1 .73 1.72.33 1.26.74 2.83 2.18 2.83 2 0 2.28-2.42 2.56-4.55.19-1.49.41-3.18 1.14-3.18s1.22 1.06 1.67 2.67 1 3.43 2.66 3.43 2.21-2.54 2.65-5c.34-1.85.75-4.16 1.68-4.16s1.2 1.12 1.66 2.85c.5 1.89 1.08 4 3.14 4 1.7 0 2.21-2.2 2.79-4.74.77-3.32 1.63-7.07 5-7.07.31 0 .39.11.42.15.44.58-.17 2.78-.77 4.92-1.38 5-3.28 11.85 1.61 15.51 5 3.12 10.15 7.18 9.79 8.25a.36.36 0 0 0 0 .1c-.65 5.32-2 10.08-2.79 10.19-8.15 1-10.77 1.58-11.66 6.3a.5.5 0 0 0 .08.39.55.55 0 0 0 .35.2c1 .11 2.44.15 4 .15 4.21 0 9.25-.33 9.53-.35a.5.5 0 0 0 .36-.18.57.57 0 0 0 .11-.38c-.28-2.08 4.58-9.5 7.18-13.48 1.1-1.67 1.88-2.87 2.1-3.35.75-1.67-1-4.34-2.69-6.92-1.15-1.74-2.57-3.91-2.23-4.59a63.45 63.45 0 0 1 5.8-9.52 20.45 20.45 0 0 0 2.17-3.46c0 .43 0 .9.08 1.42.63 10.66 4.34 17.37 7.34 21.11 1.34 1.67 3.31 3.12 4.68 2.6.76-.17 1.43-.83 1.33-2.71zm-93.92-61.23c-1.16.24-6.1 1-4-1.08s3.34-1.49 6.33-1.08.09 1.65-2.33 2.16z"/><path d="m86.7 10.64c0 .19.24.36.56.65a3.56 3.56 0 0 1 1.24 1.8c.68-1 1.62-2 2.88-1.85l1 .11a30 30 0 0 1 3.7.53l.07-.3h.06.08a2.56 2.56 0 0 0 1.92-2.41c0-.36-.33-1.22-1.9-1.36-2.52-.23-4.92.36-9.65 2.42z"/><path d="m102.62 26.27c-.8-.47-1.63.41-2.59 1.42a6.4 6.4 0 0 1 -2.18 1.77c-1 .27-2.35-.92-2.87-1.5v.16a22.6 22.6 0 0 1 -.14 4.62v.45a.88.88 0 0 1 0 .14 1.17 1.17 0 0 0 .38.69 10.51 10.51 0 0 0 1.15.09 3.71 3.71 0 0 0 3-1.44c.36-.34.77-.74 1.33-1.19 1.26-1 1.57-.88 2-.7a2.68 2.68 0 0 0 1.92.14 1.19 1.19 0 0 0 1-1c.17-1.41-2.62-3.42-3-3.65z"/><path d="m102.88 15.94c-1.08-2-3.38-3.34-6.82-4.06a30 30 0 0 0 -3.7-.53l-1-.11c-1.26-.19-2.2.87-2.88 1.85a3.56 3.56 0 0 0 -1.24-1.8c-.32-.29-.51-.46-.56-.65-.18-1.51-.6-3.25-2.32-3.25-.52 0-.58-.07-1-.61-.22-.25-.5-.57-.91-1a1.62 1.62 0 0 0 -2.36-.2c-.34.21-.54.33-.81.27-1-.21-2.23-.46-2.77.47a.78.78 0 0 0 -.13.38 3 3 0 0 1 -.7.07 2.4 2.4 0 0 0 -2.23 1.63l-.2.35a2.28 2.28 0 0 0 -.31 1.36c0 .27 0 .28-.1.37a1.88 1.88 0 0 0 -.92 2.26 1.23 1.23 0 0 0 -.38 1.1c.12.6.74 1.09 1.83 1.45a2.76 2.76 0 0 0 1 2.06c.38.39.59.62.58 1.05a3.55 3.55 0 0 0 1.4 2.94 3.84 3.84 0 0 0 3.42.26v.16a14.39 14.39 0 0 0 1.23 4.81l.08.54v.3a10.25 10.25 0 0 0 -1.29 2.53 6.91 6.91 0 0 1 -.41 1 3.34 3.34 0 0 0 -2 1.4l-.07.1a1.85 1.85 0 0 0 0 2.39l.12.19a2.26 2.26 0 0 0 1.87 1.09 1.72 1.72 0 0 0 .39 0 1.66 1.66 0 0 0 1.31-1.53l.51-.54a13.09 13.09 0 0 0 2.83-3.95 16.41 16.41 0 0 0 .19-3.44 16.45 16.45 0 0 1 .42 3.72 10.28 10.28 0 0 0 3.83.78c0 .18.09.37.13.56.52 2.17 1.22 5.16 3.78 5.45a4.9 4.9 0 0 1 3.79 3 1.57 1.57 0 0 0 .94.81 1.92 1.92 0 0 0 .58.03 2.85 2.85 0 0 0 1.29-.35c1-.53.51-2.18.19-3.27l-.09-.31c0-.12 0-.23-.07-.34-.14-.62-.3-1.46-1.67-1.41a4.51 4.51 0 0 1 -2.31-1.21c-.4-.39-.5-.66-.5-.81a.88.88 0 0 0 0-.14v-.45a22.6 22.6 0 0 0 .16-4.58 5.13 5.13 0 0 0 -1.58-3.73 9.41 9.41 0 0 0 -3.86-1.5 9.71 9.71 0 0 1 -3.07-1.07c.18-.15.32-.13.78 0 .24.05.51.11.85.15a1 1 0 0 0 1-.36 1 1 0 0 0 .15-.63l.14.08 2.11 1.09a2 2 0 0 0 .87.26.83.83 0 0 0 .57-.2 1 1 0 0 0 .3-.79 9.52 9.52 0 0 0 2.66.77h.19a.93.93 0 0 0 .88-.44c.1-.17.35-.64-.41-2a12.33 12.33 0 0 0 3.06.35c.9 0 1.27-.43 1.41-.76a2.23 2.23 0 0 0 -.36-1.86c.88 0 1.84-.19 2.16-.69a.83.83 0 0 0 .03-.86z"/><path d="m50.34 4.75c-2 .51-2.55 1.32-3 3.32a.52.52 0 0 1 -1 0c-.4-2-1-2.81-2.95-3.32a.52.52 0 0 1 0-1c2-.5 2.55-1.32 2.95-3.32a.52.52 0 0 1 1 0c.4 2 1 2.82 3 3.32a.52.52 0 0 1 0 1z"/></g><path d="m73.69 100.77a1 1 0 0 0 0 .36 1.65 1.65 0 0 1 1.18.44c.12.12.3.27.51.45a23.9 23.9 0 0 1 2.49 2.39 1.83 1.83 0 0 0 1.46-.87c.12-.24.43-1.09-.66-2a10.31 10.31 0 0 0 -4.1-2 5.21 5.21 0 0 1 -.88 1.23z" fill="#f1f2f2"/><path d="m62 112.93a4.42 4.42 0 0 0 1-.67 7.24 7.24 0 0 1 -1.28-2.26 2.87 2.87 0 0 0 -2.36 1.32c-.25.28-.53.61-.92 1-.83.79-1 .73-1.38.63a2.14 2.14 0 0 0 -1.53 0 1 1 0 0 0 -.77.91c-.06 1.18 2.21 2.52 2.55 2.69a.93.93 0 0 0 .35.08c.58 0 1.11-.66 1.66-1.36a6.11 6.11 0 0 1 1.3-1.33 3.75 3.75 0 0 1 1.38-1.01z" fill="#f1f2f2"/><path d="m75.34 102c-.21-.18-.39-.33-.51-.45a1.65 1.65 0 0 0 -1.18-.44 1 1 0 0 1 0-.36c.47-.53 1.7-2 .65-3.11-.23-.25-.23-.27-.17-.81a9.85 9.85 0 0 0 .08-1 1.35 1.35 0 0 0 -1.18-1.54c-.29-.08-.42-.12-.49-.25-.43-.74-.92-1.55-1.79-1.38l-.27.08a2.76 2.76 0 0 1 -.3-.28 2 2 0 0 0 -2.11-.46l-.31.07a1.72 1.72 0 0 0 -1 .55s-.1.09-.16.09a1.57 1.57 0 0 0 -1.82.64 1 1 0 0 0 -.83.39 1.84 1.84 0 0 0 .08 1.8 2.24 2.24 0 0 0 -.64 1.64c0 .4 0 .59-.24.78a2.76 2.76 0 0 0 -1 2.38 2.83 2.83 0 0 0 1.38 2 3.76 3.76 0 0 0 -1.1 1.6 4.12 4.12 0 0 1 -.7-.17l-.2-.06c-1.54-.65-2-1.21-2.12-1.72a1.75 1.75 0 0 0 -.21-1.58 1.63 1.63 0 0 0 -1.34-.56 2.21 2.21 0 0 0 -1.9 1 2 2 0 0 0 0 1.8 1.24 1.24 0 0 0 .74.63 6.83 6.83 0 0 0 4 4 15.23 15.23 0 0 0 2.34.26 15.25 15.25 0 0 1 -1.79.15 7.54 7.54 0 0 0 1.75 4.57 4.42 4.42 0 0 1 -1 .67 2.5 2.5 0 0 0 -1.76 2.48.59.59 0 0 0 0 .13 13.37 13.37 0 0 0 1.11 2.63c-.09.06-.21.12-.29.18-.43.24-1 .58-1 1.24a1.67 1.67 0 0 0 .47 1.29.87.87 0 0 0 .52.16h.28s2.84-.76 3.13-1.8a.75.75 0 0 0 -.2-.76 2.27 2.27 0 0 1 -.24-1.37 2.83 2.83 0 0 1 .28-1.35 6.09 6.09 0 0 1 .88-.24c1.26-.29 3.16-.73 4-2a2.62 2.62 0 0 0 .26-2.09 10.5 10.5 0 0 0 -1.07-2.52 7.65 7.65 0 0 1 -1-2.69c.14 0 .18 0 .41.26a6.21 6.21 0 0 0 .45.46.84.84 0 0 0 .91.22.92.92 0 0 0 .28-.19l.77 1.46c.27.52.6.75 1 .7a.75.75 0 0 0 .47-.25 6.52 6.52 0 0 0 1.21 1.44.84.84 0 0 0 1 .21 1.44 1.44 0 0 0 .63-1.16 8.69 8.69 0 0 0 1.51 1.27 1.51 1.51 0 0 0 .82.28.89.89 0 0 0 .49-.14 1.55 1.55 0 0 0 .6-1.16 1.91 1.91 0 0 0 1.53.38.73.73 0 0 0 .45-.62c.27-3.24-2.99-6.02-4.56-7.38z" fill="#fff"/></svg>