<svg xmlns="http://www.w3.org/2000/svg" id="Layer_1" viewBox="0 0 400 400" width="400" height="400"><defs><style>.cls-1{fill:#00703c}.cls-2{fill:#fff}</style></defs><path d="M300-.19H100c-55 0-100 45-100 100v200c0 55 45 100 100 100h200c55 0 100-45 100-100v-200c0-55-45-100-100-100z" class="cls-1"/><path d="M339.68 303.82c-2.51-.1-5-.08-7.53-.32-4.12-.39-8.25-.8-12.32-1.46a100.94 100.94 0 0 1-22.32-6.45 102.67 102.67 0 0 1-37.17-26.2c-.17-.2-.35-.38-.53-.56 0 0-.08 0-.31-.15 4.52 10.61 9 21.07 13.47 31.65h-48.05a1 1 0 0 1-1.15-.78q-7.68-20-15.39-40a1 1 0 0 0-1.1-.76h-82.43a1 1 0 0 0-1.1.76q-7.69 20.06-15.42 40.08a1 1 0 0 1-1.06.72H60.32c.15-.37.24-.63.35-.88q8.55-20.08 17.09-40.17a1.65 1.65 0 0 1 .95-.92q20.48-9.15 41.45-17.07 25.07-9.49 50.68-17.44 22.57-7 45.45-12.91c5.4-1.39 10.82-2.72 16.23-4.05.53-.13.69-.31.69-.87 0-4.66-.08-9.32.17-14a93.46 93.46 0 0 1 4.32-23.18 100.67 100.67 0 0 1 43.3-56.3 104 104 0 0 1 36-14.14 112.24 112.24 0 0 1 18.63-2.11 5.46 5.46 0 0 0 .89-.13h3.21v40.66h-.56a63.28 63.28 0 0 0-17.61 2.59c-16.54 5.07-28.65 15.4-36.19 30.94-6.1 12.56-7.49 25.85-5.2 39.54A60.44 60.44 0 0 0 294 239.74a57.53 57.53 0 0 0 27 17.81 63.72 63.72 0 0 0 18.7 2.81z" class="cls-2"/><path d="M226.25 190.57l-42.06 6.22q-9-23.34-18.12-47c-.41 1-.75 1.9-1.08 2.76q-9.66 25.08-19.31 50.17a1.53 1.53 0 0 1-1.36 1.11q-6.58 1.19-13.15 2.51-13.17 2.66-26.42 5.39c-2.23.46-4.45 1-6.67 1.45l-.73.11c.3-.72.55-1.34.8-1.95Q122 155.24 145.9 99.13a1.27 1.27 0 0 1 1.37-.92h38.77a1.2 1.2 0 0 1 1.32.89q19.24 45.29 38.52 90.54c.12.29.24.6.37.93z" class="cls-2"/></svg>