<svg xmlns="http://www.w3.org/2000/svg" viewBox="0 0 400 400" width="400" height="400"><path d="M300-.38H100c-55 0-100 45-100 100v200c0 55 45 100 100 100h200c55 0 100-45 100-100v-200c0-55-45-100-100-100zm-53.92 339.61c-3.33-2.52-7-5.84-7.08-10.46-.07-5.23.23-8.28.23-31s-3.07-31.14-13.76-37.83c33-3.38 53.43-11.5 63.38-33.25l.91-2.09c.77-1.88 1.48-3.86 1.48-3.86l1.24-4.21c2.24-8.21 3.44-17.92 3.68-29.42-.06-31.19-15.07-42.22-18-47.4 4.25-23.61-.71-34.36-3-38-8.51-3-29.59 7.74-41.11 15.32-18.78-5.46-58.47-4.94-73.35 1.41-27.46-19.56-42-16.57-42-16.57s-9.39 16.74-2.48 41.24c-9 11.45-15.77 19.56-15.77 41 0 12.1 1.43 22.93 4.66 32.39l.77 2.12 2.59 5.92 1.11 2.09c10.32 18.64 30.22 30.23 63.78 33.44-4.79 3.61-10.54 10.48-11.34 18.41-6 3.88-18.13 5.16-27.55 2.2-13.2-4.14-18.25-30.13-38-26.43-4.28.81-3.43 3.61.27 6 6 3.88 11.69 8.73 16.06 19.06 3.36 7.92 10.42 22.09 32.75 22.09a98.76 98.76 0 0 0 15.06-1.06s.18 20.24.18 28.11c0 5.13-4 8.18-7.37 10.65a143 143 0 1 1 92.62.16z"/></svg>