<svg xmlns="http://www.w3.org/2000/svg" id="Layer_1" viewBox="0 0 400 400" width="400" height="400"><defs><style>.cls-1{fill:#fff}</style></defs><path d="M308.66 117.29a46.1 46.1 0 0 0-26.43-26.42 76.64 76.64 0 0 0-25.77-4.8c-14.95-.85-18.81-.85-56.42-.85s-41.76.19-56.43.85a76.59 76.59 0 0 0-25.76 4.8 45.94 45.94 0 0 0-26.52 26.42 76.77 76.77 0 0 0-4.8 26.05c-.85 14.95-.85 18.81-.85 56.42s.19 41.76.85 56.43a76.94 76.94 0 0 0 4.8 25.81 46 46 0 0 0 26.52 26.42 77.08 77.08 0 0 0 25.76 4.8c15 .84 18.81.84 56.43.84s41.75-.18 56.42-.84a77.14 77.14 0 0 0 25.77-4.8A46.1 46.1 0 0 0 308.66 282a77 77 0 0 0 4.79-26h.19c.66-14.77.66-18.81.66-56.43s-.19-41.75-.85-56.42a76.88 76.88 0 0 0-4.79-25.86zM200.51 271.05a71.38 71.38 0 1 1 71.38-71.38 71.38 71.38 0 0 1-71.38 71.38zm74.2-128.74a16.65 16.65 0 1 1 16.64-16.65 16.65 16.65 0 0 1-16.64 16.65z" class="cls-1"/><circle cx="200.51" cy="199.67" r="46.36" class="cls-1" transform="rotate(-67.5 200.514 199.67)"/><path d="M299.9 0H100.1C45 0 0 45 0 100.1v199.8C0 355 45 400 100.1 400h199.8C355 400 400 355 400 299.9V100.1C400 45 355 0 299.9 0zm38.85 257.51a102 102 0 0 1-6.49 33.76 71.07 71.07 0 0 1-40.63 40.62 102 102 0 0 1-33.76 6.49c-14.76.85-19.56.85-57.27.85s-42.41-.19-57.27-.85a102.06 102.06 0 0 1-33.76-7A71.08 71.08 0 0 1 69 290.8a101.77 101.77 0 0 1-6.54-33.8c-.85-14.77-.85-19.56-.85-57.28s.19-42.41.85-57.27A101.77 101.77 0 0 1 69 108.73a71.08 71.08 0 0 1 40.62-40.62 102 102 0 0 1 33.76-6.49c14.77-.85 19.56-.85 57.27-.85s42.42.19 57.27.85a102 102 0 0 1 33.76 6.49 71.07 71.07 0 0 1 40.63 40.62 102.22 102.22 0 0 1 6.44 34.27c.85 14.77.85 19.56.85 57.27s-.19 42.38-.85 57.24z" class="cls-1"/></svg>