<svg xmlns="http://www.w3.org/2000/svg" id="Layer_1" viewBox="0 0 400 400" width="400" height="400"><defs><style>.cls-1{fill:#fff}</style></defs><path d="M308.66 117.48a46.09 46.09 0 0 0-26.43-26.43 76.88 76.88 0 0 0-25.77-4.79c-14.95-.85-18.81-.85-56.42-.85s-41.76.19-56.43.85a76.82 76.82 0 0 0-25.76 4.79 46 46 0 0 0-26.52 26.43 76.72 76.72 0 0 0-4.8 26.05c-.85 14.95-.85 18.81-.85 56.42s.19 41.76.85 56.43a76.83 76.83 0 0 0 4.8 25.76 46 46 0 0 0 26.52 26.43 77.08 77.08 0 0 0 25.76 4.8c15 .84 18.81.84 56.43.84s41.75-.19 56.42-.84a77.14 77.14 0 0 0 25.77-4.8 46.09 46.09 0 0 0 26.43-26.43 77 77 0 0 0 4.79-26.05h.19c.66-14.76.66-18.8.66-56.42s-.19-41.75-.85-56.42a76.88 76.88 0 0 0-4.79-25.77zM200.51 271.24a71.38 71.38 0 1 1 71.38-71.38 71.38 71.38 0 0 1-71.38 71.38zm74.2-128.75a16.65 16.65 0 1 1 16.64-16.64 16.64 16.64 0 0 1-16.64 16.64z" class="cls-1"/><circle cx="200.51" cy="199.86" r="46.36" class="cls-1" transform="rotate(-67.5 200.506 199.86)"/><path d="M299.9.19H100.1C45 .19 0 45.23 0 100.28v199.81c0 55.06 45 100.1 100.1 100.1h199.8c55.06 0 100.1-45 100.1-100.1V100.28C400 45.23 355 .19 299.9.19zm38.85 257.5a102 102 0 0 1-6.49 33.76 71.06 71.06 0 0 1-40.63 40.63 102 102 0 0 1-33.76 6.49c-14.76.85-19.56.85-57.27.85s-42.41-.19-57.27-.85a102.06 102.06 0 0 1-33.76-7A71.07 71.07 0 0 1 69 291a101.72 101.72 0 0 1-6.49-33.76c-.85-14.76-.85-19.56-.85-57.27s.19-42.41.85-57.27A101.77 101.77 0 0 1 69 108.92a71.08 71.08 0 0 1 40.57-40.62 102 102 0 0 1 33.76-6.49C158.1 61 162.89 61 200.6 61s42.42.19 57.27.85a102 102 0 0 1 33.76 6.49 71.07 71.07 0 0 1 40.63 40.62 102.17 102.17 0 0 1 6.49 34.23c.85 14.77.85 19.56.85 57.27s-.19 42.38-.85 57.23z" class="cls-1"/></svg>