<svg xmlns="http://www.w3.org/2000/svg" id="Layer_1" viewBox="0 0 400 400" width="400" height="400"><defs><style>.cls-1{fill:#fff}</style></defs><path d="M300 0H100C45 0 0 45 0 100v200c0 55 45 100 100 100h200c55 0 100-45 100-100V100C400 45 355 0 300 0zM140.64 300.58H97.83V162.83h42.81zM119.25 144a24.83 24.83 0 1 1 24.81-24.83A24.83 24.83 0 0 1 119.25 144zM301 300.58h-42.78v-67c0-16-.29-36.52-22.25-36.52-22.27 0-25.69 17.4-25.69 35.37v68.14H167.5V162.83h41.06v18.82h.58c5.71-10.83 19.68-22.25 40.51-22.25C293 159.4 301 187.94 301 225z" class="cls-1"/></svg>