<svg xmlns="http://www.w3.org/2000/svg" id="Layer_1" viewBox="0 0 400 400" width="400" height="400"><defs><style>.cls-1{fill:#fff}</style></defs><path d="M300 .19H100c-55 0-100 45-100 100v200c0 55 45 100 100 100h200c55 0 100-45 100-100v-200c0-55-45-100-100-100zM140.64 300.77H97.83V163h42.81zm-21.39-156.59a24.82 24.82 0 1 1 24.81-24.82 24.82 24.82 0 0 1-24.81 24.82zM301 300.77h-42.78v-67c0-16-.29-36.52-22.25-36.52-22.27 0-25.69 17.4-25.69 35.37v68.14H167.5V163h41.06v18.82h.58c5.71-10.83 19.68-22.25 40.51-22.25 43.35 0 51.36 28.53 51.36 65.62z" class="cls-1"/></svg>