  <svg class="navlogo" viewBox="0 0 1000 1000" xmlns="http://www.w3.org/2000/svg">
    <path class="logoafill" d="m0 0v450h125v-175h200v175h125v-450zm325 175h-200v-50h200z" fill="#231f20"/>
    <path class="logosfill" d="m1000 125v-125h-450v125 49.85.15 99.85h325v50.15h-325v125h450v-125-50.15-100h-325v-49.85z" fill="#231f20"/>
    <path class="logoreverseafill" d="m15 985v-420h95v175h230v-175h95v420zm95-95h230v-80h-230z" fill="rgba(0, 0, 0, 0)"/>
    <path class="logoreverseastroke" d="m420 580v390h-390v-390h65v175h260v-175zm-325 325h260v-110h-260zm355-355h-125v175h-200v-175h-125v450h450zm-325 325v-50h200v50z" fill="#231f20"/>
    <path class="logoreversesfill" d="m565 985v-244.85h325v-80.15h-325v-95h420v245.15h-325v79.85h325v95z" fill="rgba(0, 0, 0, 0)"/>
    <path class="logoreversesstroke" d="m970 580v215.15h-325v109.85h325v65h-390v-214.85h325v-110.15h-325v-65zm30-30h-450v125h325v50.15h-325v274.85h450v-125h-325v-49.85h325z" fill="#231f20"/>
  </svg>
