<svg xmlns="http://www.w3.org/2000/svg" viewBox="0 0 400 400" width="400" height="400"><path d="M396.84 209.51c.13-.16.24-.32.37-.49s.3-.39.44-.6.25-.41.37-.61.23-.37.33-.56.21-.43.31-.64.19-.4.28-.6.16-.42.23-.64.16-.43.23-.65.11-.43.17-.65.12-.44.16-.67.08-.51.12-.77.06-.38.08-.58a14.14 14.14 0 0 0 0-2.76c0-.2-.05-.39-.08-.58s-.07-.51-.12-.77-.11-.45-.16-.67-.11-.44-.17-.65-.15-.44-.23-.65-.14-.43-.23-.64-.18-.4-.28-.59-.19-.44-.31-.65-.22-.37-.33-.55-.23-.42-.37-.62l-.44-.6c-.13-.16-.24-.33-.37-.49a12.9 12.9 0 0 0-.93-1L256.38 51.27A14 14 0 1 0 236.65 71l115.71 115.72H14a13.95 13.95 0 1 0 0 27.9h338.36L236.65 330.34a14 14 0 1 0 19.73 19.73l139.53-139.53a12.9 12.9 0 0 0 .93-1.03z"/></svg>