<svg xmlns="http://www.w3.org/2000/svg" id="Layer_1" viewBox="0 0 400 400" width="400" height="400"><defs><style>.cls-1{fill:#ba292e}</style></defs><path d="M399.62 267.94H0V131.68c1.33 0 2.67.07 4 .07h396v133.09a25 25 0 0 1-.38 3.1zm-77.87-24.36v.34c7.61-.36 15.31-.09 22.8-1.21 16.16-2.41 27.11-11.41 31.73-27.42a59 59 0 0 0 1.72-22.38c-2-20.64-16.57-35.08-37.28-36.09-12.46-.61-25-.31-37.45-.48-1.81 0-2.56.52-2.56 2.43q.06 41.19 0 82.38c0 1.87.67 2.49 2.51 2.46 6.14-.08 12.34-.03 18.53-.03zm-144.38-36.93c1.49-.67 2.65-1.1 3.74-1.69 9.8-5.3 13.79-13.84 13.42-24.63-.34-10.06-5.18-17.26-14.56-20.94a34.8 34.8 0 0 0-11.37-2.54c-13.91-.41-27.84-.37-41.76-.47a12.2 12.2 0 0 0-2 .3 14.49 14.49 0 0 0-.22 1.79v82.7c0 1.89.64 2.48 2.48 2.45 5.62-.09 11.25-.11 16.88 0 2 0 2.61-.69 2.6-2.65-.08-9.54 0-19.08 0-28.62v-3.77a30.89 30.89 0 0 0 4.23 0c3-.45 4.57.86 6 3.42 5.57 9.78 11.44 19.38 17.06 29.12a4.4 4.4 0 0 0 4.53 2.55c5.53-.16 11.06 0 16.6-.06h5.47c-4.14-6.62-7.85-12.57-11.57-18.51s-7.59-12.1-11.53-18.45zm105.79-32.94c-1.49-2.2-2.58-4.21-4-5.93-8.5-10.08-19.86-13.32-32.5-13.15-19.82.25-34.64 11.75-39.42 30.72a58.62 58.62 0 0 0 1.06 33c4.38 13.4 13.24 22.45 27.11 25.7a59.18 59.18 0 0 0 16.15 1.36c11.87-.57 22.58-4.48 31.23-13a5.55 5.55 0 0 0 1.8-3.35c.13-11.83.1-23.66 0-35.49 0-.65-1.09-1.85-1.68-1.86-11.83-.11-23.66-.1-35.49 0-.61 0-1.74.78-1.75 1.21-.13 5.2-.08 10.4-.08 16h17.38c0 4.58.06 8.77-.06 12.95a3.22 3.22 0 0 1-1.2 2.07c-10 8-26.37 3.54-30.93-8.36-2.74-7.15-2.81-14.59-2.1-22 .6-6.16 2.32-12.06 7-16.49 8.11-7.61 21.43-5.85 27.72 3.5.44.66 1.77 1.45 2.26 1.23 5.75-2.53 11.4-5.24 17.5-8.11z" class="cls-1"/><path d="M322.9 226.32c-.08-1.78-.16-2.72-.16-3.66 0-15.06 0-30.11-.05-45.17 0-2.5.52-3.66 3.29-3.37 4.62.48 9.35.29 13.89 1.14 7.54 1.41 12.21 6.34 14.15 13.7a43.2 43.2 0 0 1 .09 21.78c-1.95 7.75-6.83 12.8-14.72 14.18-5.29.92-10.73.94-16.49 1.4zm-176.33-35.05v-17.7c6 0 11.92-.37 17.74.12 4.77.4 7.33 3.8 7.41 8.29.1 5-2.19 8.64-7.09 9.14-5.89.61-11.89.15-18.06.15z" class="cls-1"/></svg>