<svg xmlns="http://www.w3.org/2000/svg" id="Layer_1" viewBox="0 0 400 400" width="400" height="400"><defs><style>.cls-1{fill:#fff}</style></defs><path d="M300-.19H100c-55 0-100 45-100 100v200c0 55 45 100 100 100h200c55 0 100-45 100-100v-200c0-55-45-100-100-100zm38 139.05c-8.46 25.64-19.81 50-33 73.48-10.44 18.58-22 36.45-35.64 52.94-10.8 13-22.23 25.37-35.44 35.93-11.09 8.87-22.74 17-36.72 20.8-6.47 1.77-13 2.64-19.64 1.18-9.29-2.05-15.54-8.35-20.69-15.82-9-13.07-13.75-28-17.71-43.12-7.13-27.22-13.37-54.68-22.6-81.31-2.3-6.63-4.63-13.28-7.47-19.68-4-9.16-10-11.55-19.67-8.73-4.46 1.3-9 2.52-13.5 3.53-6 1.32-10.82-.33-14.12-5.77a46 46 0 0 0-3.27-4.5c-1.29-1.61-1.13-2.88.47-4.23 15.62-13.25 31-26.81 46.89-39.69 9.13-7.41 19-14.05 30.57-17.33 10.62-3 20.53-2.76 28.62 6a52.46 52.46 0 0 1 10.41 17.5c4.41 11.81 6.58 24.15 8.36 36.55 2.22 15.46 3.88 31 6.22 46.46 1.85 12.22 4.57 24.32 12.82 34.13a29 29 0 0 0 9 7.44c6.51 3.18 12.56.94 17-4.23a115.6 115.6 0 0 0 11.43-15.75c6.37-10.54 12.34-21.41 15.25-33.46a74.06 74.06 0 0 0 2.07-19.33c-.36-12.56-7.4-19.13-20.12-19.73-4.94-.23-9.91 0-15.87 0 2.72-5.95 4.73-11.39 7.56-16.37 12.54-22 31-37.07 54.7-45.83a36.24 36.24 0 0 1 9.69-2c10.35-.81 20.66-1.07 30.66 2.69 12 4.5 18.09 13.3 19.2 25.74 1 11.27-1.97 21.94-5.46 32.51z" class="cls-1"/></svg>