<svg enable-background="new 0 0 295.5 238" viewBox="0 0 295.5 238" xmlns="http://www.w3.org/2000/svg"><g fill="#fff"><path d="m61.1 206.7c-17.8 47.5-72.6 32.9-59-17.2 5.2-19.3 26.2-25 22.1-48.9-2.9-16.6-21.9-17.9-20.4-35.9 40.5 14.6 74.3 57.2 57.3 102z"/><path d="m295.5 152c0-.3 0-.5 0-.8 0-1.4-.1-2.7-.2-4.1 0-.2 0-.4 0-.6-.1-1.5-.2-2.9-.3-4.4-.1-1.1-.2-2.2-.4-3.3 0-.1 0-.2 0-.3-.2-1.1-.4-2.2-.6-3.4 0-.1 0-.1 0-.2-.2-1.1-.5-2.3-.7-3.4 0-.1 0-.1-.1-.2-.3-1.2-.6-2.3-.9-3.5 0-.1-.1-.2-.1-.3-.3-1.2-.7-2.4-1.1-3.5v-.1c-.4-1.2-.8-2.4-1.2-3.6 0-.1-.1-.2-.1-.3-.4-1.2-.9-2.4-1.4-3.6 0 0 0-.1-.1-.1-.5-1.2-1-2.3-1.5-3.5 0 0 0-.1-.1-.1-.4-.8-.8-1.6-1.2-2.4s-.8-1.6-1.2-2.3c0 0 0-.1-.1-.1-.3-.6-.7-1.3-1-1.9-.1-.2-.2-.4-.4-.6-.3-.6-.6-1.1-1-1.6-.2-.3-.4-.6-.6-1-.2-.3-.3-.5-.5-.8-.4-.7-.8-1.3-1.3-1.9-.1-.1-.1-.2-.2-.3-5.2-7.7-11.5-14.4-19-18.9 0 0 0 .1.1.1-7-4.3-14.9-6.8-23.7-6.5-33.1 1.3-44.7 44.8-8.6 51.5-28.4-19.4 18.4-49.6 31.7-7.4 12.6 39.8-43.1 58.9-72.5 56-68-6.7-108.8-77.1-180.2-82-.3.7-.5 1.1-.7 1.5-.1.3-.2.4-.2.5-.1.2-.1.3-.2.5-.2.6-.4 1-.7 1.9 56.6 16.5 72.4 60.1 107.5 100.3 44.1 50.5 132.8 55.5 167.9 6.7.6-.9 1.2-1.7 1.8-2.6.2-.2.3-.5.5-.8.5-.7.9-1.4 1.3-2.2.1-.2.2-.4.4-.6.5-.9 1-1.9 1.5-2.8.1-.2.2-.4.3-.6.4-.8.8-1.6 1.2-2.4.1-.3.3-.6.4-.8.5-1 .9-2 1.3-3s.8-2.1 1.2-3.2c.1-.3.2-.6.3-.9.3-.9.6-1.7.8-2.6.1-.3.2-.5.2-.8.3-1.1.6-2.2.9-3.4.1-.3.1-.5.2-.8.2-.9.4-1.9.6-2.8.1-.3.1-.7.2-1 .2-1.2.4-2.4.6-3.6 0 0 0 0 0-.1.2-1.2.3-2.5.5-3.7 0-.4.1-.7.1-1.1s.1-.8.1-1.2c.1-.8.1-1.6.2-2.4.1-1.3.1-2.7.2-4.1 0-.2 0-.4 0-.6.1-1.2.1-2.5.1-3.9z"/><path d="m27.2 67.3s34.8-9.1 37.7-27.7c1.7-11.2-6.2-10.1-12.8-7.4-4.1 1.7-7.1 5.2-8.2 9.5-1.3 4.5-5.2 12.5-16.7 25.6z"/><path d="m69.5 86.7c-17.4 3-37.2 3.2-58.8-.3 2.6-3.5 5.8-6.5 9.4-8.9 11.2-.5 20-2.4 27.1-5.2 29.7-11.7 27.9-39.7 38.2-54.9 3.6-5.3 7.1-9.2 11.2-12.1l.7-.4c15.9-9.7 28.1-2 28.1-2 2.6 1.3 4.9 2.7 7 4.2 31.4 23.2.1 68.8-62.9 79.6z"/></g></svg>