<svg xmlns="http://www.w3.org/2000/svg"><symbol id="frog-pose" viewBox="0 0 993.64 317.78"><path d="M571.14 0c9.52.65 19 1.7 28.57 1.86a347.8 347.8 0 0 0 35.38-.73c22.71-2 45.19-1.74 67.56 3.08 8.69 1.88 15.06 6.5 17.38 15 3.87 14.18 7.34 28.49 10.21 42.89 1.83 9.18 2.31 18.63 3.33 28 .28 2.54 1.45 3.81 4 4.33a46.39 46.39 0 0 1 21.89 10.79 34.59 34.59 0 0 0 20.06 8.93 34.14 34.14 0 0 0 6.66-.5 24.18 24.18 0 0 1 3.69-.59c18.25 1.07 35.81-2.81 53.42-6.86 7.74-1.78 15.83-2 23.74-3.13 6.18-.85 12.31-2.48 18.51-2.76 9.17-.41 17.61 3.22 26.17 6 10.25 3.38 20.68 6.22 30.92 9.6 9.37 3.1 18.7 6.33 27.82 10.07 3.1 1.28 5.38 4.45 8.25 6.45a28.44 28.44 0 0 0 5.81 2.58 10.17 10.17 0 0 0 1.86.14c2.84.45 5.83.87 6.65 4.24 1.4 5.72.27 9.15-3.64 11.24-2.68 1.44-5.63 2.42-8.24 4-.88.53-1.24 2.14-1.57 3.32-.59 2.14-.45 4.66-1.55 6.43-3.34 5.38-6.71 10.86-10.9 15.55a24.81 24.81 0 0 1-10.4 6.83c-17.3 5.54-34.81 10.44-52.19 15.77a56.08 56.08 0 0 1-35.12-.63c-15.36-5.16-31.33-5.78-47.26-7.07-11.38-.93-22.7-2.54-34-4.17-2.41-.35-4.59-2.17-6.93-3.18a5.61 5.61 0 0 0-2.83-.5c-9.29 1.39-18.21 3.94-26.42 8.68-5.26 3-10.7 5.63-16.9 6-3.57.22-4.58 2.57-5.23 5.58-4 18.43-7.91 36.9-12.34 55.24-1.61 6.65-4.32 13.09-7 19.4-4.76 11-13.74 16.27-25.43 15.88-13.21-.45-26.38-1.87-39.57-2.83-12.65-.92-25.31-1.76-38-2.7-6.15-.47-12.29-1.4-18.45-1.55-4.26-.09-8.53.89-12.82 1.23q-21.66 1.75-43.33 3.38a6.46 6.46 0 0 1-7.13-5.17c-.77-3.32.8-6.2 4.33-7.61a25.12 25.12 0 0 1 4.74-1.34c13.75-2.59 25.23-8.82 34.13-19.9 6.63-8.25 15-6.72 18.94 3.18 1.06 2.63 2.37 3.42 5.22 3.23 5-.33 10 .28 15-.07 11.07-.79 22.19-1.42 33.15-3.08 10.72-1.62 21.19-1.93 31.63 1.11 2.45.71 3.31.24 3.34-2.45q.32-25.11.86-50.24a171.28 171.28 0 0 1 7.42-47.89 78.22 78.22 0 0 1 3.16-8.6c2.65-5.9 2.43-11.73.71-17.87a204.14 204.14 0 0 1-5.69-24.41c-2.12-14.19-.94-28.43.64-42.63 1.06-9.48 2-19 2.62-28.5.35-5.83-.81-6-6.59-6.69-13.27-1.59-26.49-3.71-39.71-5.75-12.37-1.91-24.7-4-37.08-5.89a4.24 4.24 0 0 0-3.14 1.55c-2 2.4-3.52 5.2-5.59 7.53-2.79 3.15-6.47 3.81-9.64 1.07a43.6 43.6 0 0 1-8.7-10.17c-1.92-3.16-4-4.74-7.6-4.7-5.94.08-11.91.35-17.81-.08a13.12 13.12 0 0 1-10.24-6.36c-2.46-3.87-1.84-8 2.34-9.66A48.11 48.11 0 0 1 555.59.8c5.12-.52 10.33-.12 15.51-.12zm323.32 132.77l1.79-.17v-.18l-1.72.37zm8.94.49l-.13-.07.15.05c.36.21.73.41 1.1.61l.09-.2zm56.93 23.52c-4.12 10.65-19.05 19.33-30.66 17.42-1.2-.2-2.64-.52-3.66-.06-4.25 1.89-8.21 1.06-12.25-.65a7.34 7.34 0 0 0-3.58-.39c-3.41.41-6.79 1.36-10.2 1.45-3.7.1-7.77-.78-8.74-4.88s-3-4.4-6.21-3.92a11.07 11.07 0 0 1-2.81-.11c-3.7-.39-5.71-2.62-6.52-6.1-.85-3.66-1.88-7.28-2.48-11a24.13 24.13 0 0 1-.23-7.67c1.2-7.19 5-9.61 12.22-8 2.44.53 4.4.84 6-1.81a4.87 4.87 0 0 1 3.73-2 104.39 104.39 0 0 1 12.68 1.72c2.51.48 4.17-.27 5.14-2.42 2.73-6 8.83-7.94 14.61-4.55a5.82 5.82 0 0 0 3 .93 28.62 28.62 0 0 1 23.31 9.07c.35.37 1.93.16 2.39-.31 1.52-1.56 2.67-3.49 4.19-5 1.07-1.1 1-1.54-.36-2.05-4.4-1.63-8.67-3.9-13.22-4.84-15.27-3.14-29.8-8.49-44.36-13.83a46.28 46.28 0 0 0-21.24-3c-4.81.56-9.5 2-14.29 2.76-9.34 1.48-18.84 2.2-28.06 4.22-15 3.28-29.86 6.34-45.31 5.69-7.62-.32-8.2.77-7.8 8.38a194.05 194.05 0 0 1 .26 21.57c-.59 10.07-2 20.08-2.78 30.15-.51 6.79.36 8.25 7.07 9.18 13.09 1.81 26.25 3.19 39.42 4.3 12.89 1.09 25.85 1.71 38.17 6 14.57 5.11 28.74 4.21 43.2-.9 13-4.58 26.27-8.38 39.6-11.85 7.43-1.93 13.2-5.46 17.27-11.88 1.34-2.12 2.79-4.17 4.15-6.28a15.83 15.83 0 0 0 .82-1.65 16.07 16.07 0 0 0-2 .2q-11.1 2.38-10.56-7.86a3.72 3.72 0 0 0 .22-.38v-.17zM607.67 272h-14.88c-1.94 0-3.08.83-3.13 2.94-.06 2.74-.14 5.48-.4 8.21-.24 2.54 1 3.6 3.3 3.77 4.29.32 8.58.65 12.88 1l44.75 3.08c11.78.83 23.56 2 35.36 2.36 9.6.29 17.19-4 20.89-13.14A185.7 185.7 0 0 0 715 255.2c3.94-16 7.1-32.28 10.51-48.45 1.38-6.54 3.12-8.07 9.26-9.52a61.34 61.34 0 0 0 13.83-4.84c8.09-4.15 16.37-7.48 25.34-9.09 5.51-1 5.48-1.09 5.68-6.78 0-.94.16-1.88.25-2.81 1.37-14.32 3.82-28.58 2.58-43.07-.29-3.42-.17-6.88-.43-10.31a2.31 2.31 0 0 0-1.59-1.56 42.85 42.85 0 0 1-24.34-10.72 39.7 39.7 0 0 0-19.24-9.35c-4.93-.9-7.13-3.59-7.69-8.29-1.33-11.19-2.14-22.49-4.29-33.52-2.45-12.57-5.89-25-9.38-37.29-1.71-6.13-6.49-9.6-12.78-10.83-3-.61-6-1.21-9-1.71-12.62-2.06-25.29-3.44-38.12-2.65-11.72.72-23.45 1.48-35.18 2-4.84.19-9.7-.3-14.55-.5-2.24-.1-3.62.83-3.9 3.11-.34 2.8-.65 5.59-.93 8.39-.22 2.12.87 2.82 2.91 3 5 .44 10 .91 14.92 1.73 21.45 3.56 42.43 10 64.43 10.17 3.59 0 6.12 2.17 6.45 5.69a85.7 85.7 0 0 1 .31 15.19c-1 12.24-2.94 24.41-3.78 36.66a119.92 119.92 0 0 0 6.73 49.2 23.32 23.32 0 0 1-.53 17.24c-9.46 22.77-11.24 46.69-11 71 .15 13-.57 26-1 39-.11 3.14-2.38 4.72-5.52 4.21-1.55-.24-3.07-.65-4.59-1-7.6-1.87-15.31-2.66-23.05-1.28-13.62 2.37-27.23 4.48-39.64 3.78zm323.69-101.13c11.23-.07 22.13-6.82 25.14-14.44.36-.9.85-2.22.46-2.85a56.79 56.79 0 0 0-5.58-7.81c-2.19-2.47-2.22-4.59-.22-7.08.4-.49.42-2 .06-2.26-3.63-2.51-7.08-5.88-11.14-7.05-11.75-3.39-22.34.79-32.31 6.82-.43.26-.54 1.68-.27 2.35a17.45 17.45 0 0 1 .67 12.16 73.57 73.57 0 0 0-1.9 8.47c-.12.69.11 1.92.59 2.19 8.26 4.71 16.74 8.88 24.5 9.5zM571.35 4.54v.47c-5.16 0-10.35-.28-15.49.09a54.28 54.28 0 0 0-10.96 2.2c-2.22.64-2.41 2.44-1.06 4.3 2.39 3.28 5.9 4.37 9.66 4.44 4.76.1 9.53-.23 14.3-.37 5.52-.16 9.2 2.27 11.75 7.28 1.51 2.95 4 5.47 6.38 7.89 1.76 1.81 3.86 1.55 5.42-.58 3.33-4.57 7.29-8.81 6.35-15.26-.3-2 .31-4.21.78-6.25s-.09-2.75-2.07-2.85c-8.36-.42-16.71-.9-25.06-1.36zm-36.71 286.19l18.73-1.45c10-.79 20-1.55 30-2.44.87-.07 2.43-1.13 2.37-1.57-.81-6.25 2.15-12.52-1.37-18.91-3.84-7-7.55-8.09-12.54-1.78-9.11 11.51-21.13 17.84-35.29 20.66a23.42 23.42 0 0 0-5.15 1.57 2.6 2.6 0 0 0-1.14 2.2c.13.67 1.12 1.38 1.88 1.67a7.53 7.53 0 0 0 2.51.05zm362.64-129.36c5-.09 5-.1 6-5 .5-2.44 1.54-4.85 1.61-7.3a33.22 33.22 0 0 0-1-9.75c-.78-2.78-3.16-3.75-6.35-3.43a63.83 63.83 0 0 1-13.18.15c-5.19-.57-7.31.49-8 5.78a22.78 22.78 0 0 0 .47 6.72c.55 3.07 1.65 6 2.1 9.12.47 3.24 2.07 4.81 5.28 4.62 4.34-.22 8.7-.59 13.07-.91zm69.52-14.75l-.09-.43c-2 0-3.93-.14-5.86.05a35.42 35.42 0 0 0-4.72 1.09c1.43 1.21 2.69 2.77 4.33 3.53 3.08 1.42 4.25 3.4 3.47 6.73-.22.95.12 2.92.37 2.95a22.54 22.54 0 0 0 7.23.12c1.16-.26 2-2.15 2.87-3.42 1.24-1.88 1.94-4.31 3.57-5.67 2-1.65 4.76-2.3 7-3.64a28.46 28.46 0 0 0 3.81-3.26c-1.72-.25-3.48-.88-5.14-.67-5.64.71-11.21 1.72-16.84 2.62zm-1.8-4.23v.43c3.2-.24 6.41-.32 9.59-.74 3.64-.48 7.25-1.24 10.87-1.9a2.82 2.82 0 0 0 .74-.4l-1-.34c-2.77-.88-5.7-1.45-8.26-2.76-2.19-1.1-3.92-3.08-5.89-4.62-3.31-2.58-7.15-2.68-9.37-.18q-3.88 4.38-7.61 8.91a2.15 2.15 0 0 0-.44 1.83c.21.41 1.17.62 1.77.58 3.21-.2 6.4-.53 9.6-.81zm-66.24 22.13a21.93 21.93 0 0 0-4.63 1.14c-.28.13-.06 2.34.53 3.16a4.44 4.44 0 0 0 3 1.86 101.47 101.47 0 0 0 10.43-.8c.61-.07 1.68-.88 1.63-1.22a4.17 4.17 0 0 0-1.25-2.23c-2.81-2.76-6.31-1.86-9.72-1.91zm21 6.88l-5-2c0 .16 0 .44.05.47 1.4.6 2.81 1.18 4.22 1.75.03.04.21-.08.67-.22zm2.61-45.35c-.29-.16-.43-.3-.53-.27-1.27.32-2.53.65-3.79 1-.09 0-.14.24-.21.36a5 5 0 0 0 1.09-.09c1.07-.29 2.14-.64 3.38-1zM319.38 241.4c-7.15 1.6-14.49 2.6-21.38 4.88a72.67 72.67 0 0 1-20.76 3.4c-8.29.3-16.68-.14-24.83 1.09-4.22.64-8.37 2.06-12.77 2-.26 0-.75 1.38-.78 2.13-.18 6.15.12 12.35-.5 18.45a18.79 18.79 0 0 1-8.29 13.65c-.17.13 0 1 .19 1.31.48.72 1.67 1.47 1.55 2-.19.78-1.27 2-1.86 1.91-2.2-.22-4.33-1.05-6.52-1.33a12.64 12.64 0 0 0-4.13.39c-1.41.28-2.77 1.14-4.16 1.15-11.32.12-22.65.18-34 .12-12.07-.06-24.13-.17-36.19-.43-3.6-.08-7.17-.8-10.76-1.06a6 6 0 0 0-3.2.7 6.36 6.36 0 0 1-8-1.55 2.28 2.28 0 0 0-3.89.27c-1.19 2.83-3.62 1.93-5.69 1.89-1.75 0-3-.74-2.8-2.94 0-.26-2.37-.73-3.66-1-.08 0-.31.84-.53 1.26-.41.82-.76 2.22-1.32 2.32a20.55 20.55 0 0 1-5.54.05 2.14 2.14 0 0 1-1.33-1.63c.65-3.94-2.21-2-3.69-2.21-.2 0-.59.75-.78 1.21-.35.84-.54 2.42-.94 2.47a25.56 25.56 0 0 1-6.18-.05c-.37-.05-.54-1.62-.82-2.49a4.25 4.25 0 0 0-.38-.91 16.2 16.2 0 0 0-3.93 1.3c-1 .62-1.76 2.52-2.61 2.52-1.93 0-3.84-1-5.79-1.31-1.33-.23-3.27-.7-4 0-2.22 2.09-4.59 1.48-7.07 1.3-2.28-.16-4.57-.13-6.87-.13-2.64 0-5.29 0-7.93.07-6.43.1-12.85.16-19.27.36-4.78.14-8-2-10.23-6.14-4.26-7.91-2.58-20.85 3.43-27.41 3-3.24 6.74-4.86 10.77-3.94 17.54 4 34.8 1.15 52-1.92 14.34-2.57 28.49-6.12 42.83-8.65 7.21-1.28 14.65-1.21 22-1.9.72-.07 2-1.27 1.91-1.85-2-21.14 12.95-39.3 32.89-46.65a69.84 69.84 0 0 1 30-4.23 10.84 10.84 0 0 0 3.23-.43c18.5-4.52 37.27-8.16 55.4-13.86 14.86-4.68 30.26-7.86 44.4-15 7.8-4 16.71-5.18 25.66-4.69.69 0 1.87-1.17 2.11-2 2.81-9.66 6.05-19.13 11.5-27.68 4.5-7.07 10.1-13 17.74-16.69 6.4-3.11 12.53-2.93 18.35 1.48a5.07 5.07 0 0 0 2.8.93c23.84.52 36.85 18.34 40 37.1a30.42 30.42 0 0 1-5 22.47c-1.94 2.76-5.07 4.84-8 6.73a5.29 5.29 0 0 0-2.84 4.9 19.94 19.94 0 0 1-.54 5.12c-.92 3.36-3.88 4.56-7 3.07a5.47 5.47 0 0 0-6.69 2.07c-5.19 8.36-13.86 8.63-19.87.8a4.56 4.56 0 0 0-4.08-1.19 57.56 57.56 0 0 0-8.73 4.56 2.8 2.8 0 0 0-1 2.26c1.29 9-1.37 17.14-4.67 25.31a34.47 34.47 0 0 0-2.68 12c-.15 8.51.47 17 .82 25.55.09 2.34 1.4 3.26 3.73 3.65 11.32 1.9 22.46 1.74 33.33-2.34 3.3-1.24 6.43-3.06 9.82-3.88a21.52 21.52 0 0 1 8.72-.21c5.51 1 10.92 2.6 16.35 4a95.76 95.76 0 0 1 10.59 3c7.69 3 9.84 8.33 6.81 16a8.46 8.46 0 0 1-1 2.12c-2.09 2.7-1.39 3.52 1.9 3.42 1 0 2.06 1.3 3.1 2-1 .69-2 2-3 1.94-1.84-.13-3.61-1.07-5.44-1.58a2.68 2.68 0 0 0-1.6.14c-3.79 1.45-7.46 2.62-11.46.25-1-.58-2.82.33-4.26.55a33.17 33.17 0 0 1-5 .7c-2.07 0-3.23-1.06-2.58-3.38 0-.15-.63-.7-1-.71-5.14-.22-10.28-.4-15.43-.48-.27 0-.9 1-.78 1.31.85 2-.21 3.16-1.86 3.11-2.1-.07-4.16-1.06-6.28-1.33a13.37 13.37 0 0 0-4.14.46c-1.34.27-2.65 1-4 1.06-12.84.12-25.68.13-38.52.15-4.2 0-8.39 0-12.59-.14-2.09-.07-4.14-.43-3-3.5.15-.39-.34-1.07-.61-1.58-1.4-2.59-3.6-5-4.13-7.76-2.09-10.89-4-21.84-5.27-32.85-.43-3.56-1.19-5-4.73-4.48a18.5 18.5 0 0 1-2.58 0zm33.69-78.17l.47.47 9.88 14.1.09.18-.1-.17c-1.4-6-4.23-11.05-9.88-14.1zM42.62 261a32.26 32.26 0 0 1 3.8 24.89c-.11.45 1.22 1.82 1.82 1.78 6.64-.41 13.33-.58 19.88-1.64 18.73-3 37.45-2.74 56.21-.76 9.19 1 18.36 2.44 27.56 2.79 12.61.49 25.25.37 37.86.05 10.09-.26 20.18-.92 30.22-1.91 7.25-.72 12.33-5 13.8-12.2 2.92-14.34 1.27-28-8.13-39.82-5.36-6.74-11.21-13.09-16.73-19.7-.58-.69-.44-2-.62-3 1 .22 2.32.13 3 .74a55.54 55.54 0 0 1 5.13 5.49c7.63 9 16.18 17.37 20 29a2.55 2.55 0 0 0 1.83 1.4 42.44 42.44 0 0 0 7 0c.5 0 1.34-1.36 1.27-2-.26-2.4-1.13-4.75-1.25-7.14-.83-17.36-8.85-30.91-22.14-41.56a15.19 15.19 0 0 0-7.17-3 73.79 73.79 0 0 0-11.71-.13 55.35 55.35 0 0 0-32 10.77c-11.6 8.6-18.07 20-17.16 34.86.13 2 .54 3.31 3 3.62q13.14 1.71 26.24 3.84a64.62 64.62 0 0 1 9.54 2.48c.94.31 1.58 1.55 2.35 2.37a17.45 17.45 0 0 1-3.2.87c-.72.07-1.49-.44-2.26-.57-10.39-1.86-20.73-4.57-31.21-5.33-16.31-1.18-32.47.89-48.47 4.68C88.59 257.2 66 262.29 42.62 261zm324.15-56c.06-13.07-5-24.4-12.11-34.95-2.27-3.37-5.38-6-9.61-6.63-12.81-1.91-24.29 2.08-35.2 8.24a3.91 3.91 0 0 0-1.52 3.24c2.57 13.94 8.22 26.41 18.18 36.71a8.22 8.22 0 0 0 1.1.81 6 6 0 0 0 .44-1.45c.19-4.22.21-8.46.57-12.66.11-1.18 1.19-2.28 1.83-3.41.51 1.15 1.48 2.3 1.46 3.45-.21 14.93-.69 29.86-.84 44.79a127 127 0 0 0 5.12 35.22c1.65 5.94 5.32 9.18 11.43 9.39 10.1.35 20.22.69 30.3.3a103.55 103.55 0 0 0 21.79-2.88 57.66 57.66 0 0 1 26.24-.92c5.6 1.12 11.2 2.33 16.86 3 1.53.18 3.76-1.1 4.81-2.39a16.4 16.4 0 0 0 2.89-6.33c.71-2.92-.24-5.63-3.23-6.77-3.72-1.41-7.56-2.53-11.4-3.58-5.64-1.53-11.3-3.05-17-4.25a13.45 13.45 0 0 0-6.4.24c-3.51 1.06-6.79 2.85-10.25 4.08-11.12 3.95-22.48 4.33-34.06 2.36-5.58-.95-7.56-2.11-8-7.7a236.09 236.09 0 0 1-.87-25.78 45.66 45.66 0 0 1 3.06-13.78c2.11-6.02 4.64-11.84 4.41-18.35zm-89.94 39.85l.15 1c5.82-1 11.64-2 17.46-3.07 1.74-.31 2.19-1.19 1.53-3q-10.44-29-20.69-58c-.58-1.63-1.34-1.95-2.94-1.56q-23.86 5.88-47.73 11.67a8.85 8.85 0 0 0-1.58.77c.45.41.88.85 1.36 1.23 9.05 7 16.45 15.49 20.31 26.24 2.42 6.75 3.05 14.16 4.37 21.29.78 4.18 1.51 4.86 5.71 4.62zm43.17-7.66l.13.79a39 39 0 0 1 4.46 0c1.94.23 2.59-.39 2.6-2.39 0-5 .38-10 .34-15a6.54 6.54 0 0 0-1.53-4.15A77.15 77.15 0 0 1 304.94 176c-.31-1.64.35-3.46.59-5.19a6.17 6.17 0 0 1 .28-1 3.06 3.06 0 0 0-.88.17c-7.61 3.85-15.89 5.22-24.17 6.58-2.58.42-3.16 1.66-2.27 4.12q10.38 28.85 20.61 57.77c.68 1.93 1.66 2.47 3.69 2 5.72-1.18 11.48-2.18 17.21-3.26zm73.64-121.11c-3.35-.82-5.87 1.73-7.56 5.65-.8 1.86-1.72 3.68-2.52 5.55-4.37 10.28-7.86 21-14.93 29.95-.21.27.33 1.65.8 1.86a12.9 12.9 0 0 0 14.57-3.35c1.29-1.47 2.57-3 3.89-4.39 3.38-3.69 8-3.34 12.4-3.92a6.33 6.33 0 0 1 7.23 3.85 14.57 14.57 0 0 1 .86 10.95c-.3 1 .38 2.3.62 3.46a19.71 19.71 0 0 0 2.63-1.65 12.56 12.56 0 0 0 1.78-2.17c1.83-2.45 4.06-3.72 7.3-3.09a5.4 5.4 0 0 0 3.76-.6c6.69-4.68 7.35-7 4.59-14.77-.63-1.77-1.32-3.52-2.11-5.23-6.3-13.62-16.7-21.31-33.29-22.1zM367.75 189c.06 4 1.48 4.86 5.87 2.51l1.88-1c7.36-3.82 8.22-3.68 13.95 2.28 3.26 3.38 6.37 3.41 9.23 0 1.13-1.33 1.83-3.28 3.22-4.09a51.67 51.67 0 0 1 8.13-3.31c.27-.11.73.22 1.07.4 3.37 1.81 3.41 1.82 3.47-2.26s.95-7.17 5.07-9.17c5.87-2.84 9.08-7.94 10.08-14.38a11.22 11.22 0 0 0 0-1.74c-.47.38-.92.79-1.41 1.13-1.45 1-3.05 2.95-4.37 2.78-5.06-.65-8.28 1.63-10.94 5.43a4 4 0 0 1-1.08.9c-2.75 1.88-5.65 1.19-6.58-2-.56-1.91 0-4.12-.17-6.19a44.09 44.09 0 0 0-1-7.7c-.19-.76-2.43-1.87-2.8-1.6-2 1.54-4.16 3.2-5.42 5.32a6.34 6.34 0 0 0 .3 7.51c.61.78.58 2.07.84 3.12-1.13-.3-2.67-.24-3.34-1-3.68-4-2.26-8.4-.45-12.72.18-.42.32-.86.48-1.28a4.59 4.59 0 0 0-1.47.34 12.34 12.34 0 0 0-2.17 1.77 74.79 74.79 0 0 1-5.3 5.65c-5.6 4.72-11.86 4.72-18.29 2-2.69-1.16-3.44 1.47-5.09 2.32-.25.12-.34 1.19-.1 1.52 4.93 6.64 7.28 13.97 6.39 23.46zm14.37-77.36c-7.38.58-12.6 4.8-17.22 9.81-8 8.62-12 19.32-15.36 30.3-1.54 5-1.48 5 3.15 7.31 6.37 3.11 6.37 3.12 11.46-2.09a9.62 9.62 0 0 0 1.83-2.12q6.27-12 12.4-24.12c2.46-4.87 4.47-10 7.29-14.65 2-3.32 2.38-3.3-1.61-4.08-.69-.17-1.38-.29-1.94-.39zM44 277.6c0-5.34-1.85-11.37-4.59-14.78-4.22-5.27-13.33-5-16.13.89-1.92 4.05-3.42 8.78-3.35 13.17.11 7 2.2 12.11 10.16 11a15.75 15.75 0 0 1 2.8.25c9.18.49 11.02-1.27 11.11-10.53z"/><path d="M328.84 288.26a2.92 2.92 0 0 1 1.53.15c.75.36 1.86 1.22 1.79 1.71a3 3 0 0 1-1.72 2 7.29 7.29 0 0 1-3.9.15c-1-.27-1.73-1.36-2.59-2.08.91-.66 1.78-1.37 2.74-1.93.31-.17.91 0 2.15 0zm-12.44 0a4.23 4.23 0 0 1 1.87.28 2.73 2.73 0 0 1 1.33 1.88 2.12 2.12 0 0 1-1.28 1.62 10.43 10.43 0 0 1-4.36.26c-1-.21-1.73-1.35-2.58-2.08a32.56 32.56 0 0 1 2.77-1.92c.35-.21.91-.04 2.25-.04zm-25.17 0a3 3 0 0 1 1.55.17c.74.36 1.72 1.13 1.75 1.76a2.55 2.55 0 0 1-1.54 1.92 8.65 8.65 0 0 1-4.13.18c-1-.25-1.7-1.38-2.54-2.12.92-.64 1.81-1.34 2.78-1.88.36-.2.9-.03 2.13-.03zm-13.11-.05a5.52 5.52 0 0 1 2.12.21c.73.37 1.66 1.16 1.69 1.81a2.44 2.44 0 0 1-1.51 1.88 13.52 13.52 0 0 1-4.83.05 2.66 2.66 0 0 1-1.7-2c.07-.68 1.19-1.39 2-1.81a6.42 6.42 0 0 1 2.23-.14zm-24.52.05a3 3 0 0 1 1.55.17c.74.36 1.72 1.13 1.75 1.76a2.57 2.57 0 0 1-1.54 1.92 8.65 8.65 0 0 1-4.13.18c-1-.25-1.7-1.38-2.54-2.12.92-.64 1.81-1.34 2.78-1.88.36-.2.92-.03 2.13-.03zm-12.47 4.48a17 17 0 0 1-3.64-.7c-.6-.29-1.41-1.2-1.31-1.67.62-3.1 3.25-2.13 5.11-2 1.09.08 2.09 1.38 3.13 2.13zm-225.61-4.47a1.53 1.53 0 0 1 1.19.12 3.75 3.75 0 0 1 1.81 2c.1.49-.93 1.59-1.64 1.78a7.83 7.83 0 0 1-3.9.17c-1-.27-1.78-1.33-2.66-2a25.82 25.82 0 0 1 2.72-2c.41-.27 1.06-.07 2.48-.07zm400.54-.1a9 9 0 0 1 2.53.34c.61.28 1.41 1.07 1.39 1.6a2.82 2.82 0 0 1-1.27 1.94 3.42 3.42 0 0 1-2.49.35 37 37 0 0 1-4.4-2l3.72-2.84zm-113.18 4.35a6.11 6.11 0 0 1-2.27-.37c-.7-.42-1.58-1.3-1.55-1.92a2.58 2.58 0 0 1 1.7-1.79 11.15 11.15 0 0 1 4.42 0c.77.16 1.89 1.22 1.87 1.86s-1.06 1.52-1.84 2a6.35 6.35 0 0 1-2.33.22zm-36.51-4.25a3 3 0 0 1 1.59.22c.66.31 1.48 1.13 1.49 1.75a2.36 2.36 0 0 1-1.36 1.83 10.52 10.52 0 0 1-4.39.19c-.9-.19-1.61-1.3-2.4-2a23.21 23.21 0 0 1 2.49-1.95c.41-.24 1.08-.04 2.58-.04zM465 293.49l-3.1-3.15c1-.69 2.06-1.93 3.09-1.93s2.09 1.22 3.13 1.91zm-461.72-.02L0 290.42c1-.72 2-2 3-2s2.14 1.17 3.21 1.83z"/></symbol><symbol id="seated-forward-fold" viewBox="0 0 996.27 183.45"><path d="M581.77 158.15c-12.37-8.15-18-20.33-19.17-34.41-1.28-14.95 2.87-29 10.28-41.92 3.4-5.95 6.9-12 11.29-17.19C593.11 54 604.91 46.85 616.79 40a191.1 191.1 0 0 1 73.44-24.73 226.69 226.69 0 0 1 57.08.11c13.64 1.78 27.2 4.36 40.69 7.12a47.55 47.55 0 0 1 20.27 9.45 2.6 2.6 0 0 0 2.54-.35 47.87 47.87 0 0 0 5.08-7.27c4.06-7.67 9.42-14.2 16.7-18.92 10.41-6.84 21.62-6.86 32.66-1.92 5.75 2.56 11.35 4.78 17.63 5.35 6 .55 10.67 3.67 14.45 8.26 2.51 3.06 5 6.1 7.67 9.07 3.16 3.58 4 7.46 2 11.88q-1.08 2.36-2 4.79a10.19 10.19 0 0 1-7.8 6.53 3.18 3.18 0 0 0-1.71 2.41 74.47 74.47 0 0 0 0 9.33 3.38 3.38 0 0 0 1.52 2.3q11.2 6.51 22.55 12.79a3.11 3.11 0 0 0 2.57.25c7-4.23 25.72-.15 31.56 5.67 6.89 6.86 6.43 22.3-1.4 28.1-2.67 2-6.46 2.75-9.87 3.37-5.51 1-6.34 1.9-4.36 7a106.34 106.34 0 0 0 4.39 10c4.19 8.25 4.19 16.61 1.23 25.19-.28.8.32 1.92.58 2.87.2.74.94 1.75.69 2.11a3.42 3.42 0 0 1-2.3 1.44c-5.66.24-11.34.37-17 .39-4.12 0-8.25-.13-12.37-.33-1.27-.06-2.52-.71-3.8-.77a30.35 30.35 0 0 0-5.3.3c-2.94.39-5.82 1.63-8.49-1.15-.65-.68-3.06-.59-4 .09-1.95 1.42-6.44 2.14-8.48 1a6.68 6.68 0 0 0-3.49-.75c-6.2.43-12.38 1.29-18.58 1.44-8.62.22-17.25 0-25.88-.19-2.17 0-4.32-.75-6.49-.87-1.69-.09-3.41.46-5.1.39a43.14 43.14 0 0 1-8.13-.88c-1.8-.43-3.27-1.79-4.89.42-1.27 1.74-6.94 1.43-8.39-.28-1.6-1.9-3.16-2.13-4.78 0s-7.34 1.85-8.77-.33c-1.18-1.79-3.45-1.88-4.48-.16-1.34 2.24-7 2.69-8.68.62s-3.24-2.24-4.93 0c-1.4 1.82-7 1.76-8.56-.07s-3.22-1.93-4.84 0c-1.46 1.72-6.34 1.57-8.5.37a5.68 5.68 0 0 0-4.72-.25c-2.88 1.7-5.52 1.36-8.43.46-1.48-.46-3.48-1.08-4.62-.47-3.16 1.67-6.09 1.48-9.24.35a8.21 8.21 0 0 0-2.94-.24c-10.88.34-21.76.92-32.64 1-26.1.26-52.2.32-78.29.39a153.56 153.56 0 0 1-17.31-.51c-2.66-.29-5.13-2.25-7.68-3.46l-.94-.46zm132.47-140.1c-5.47.4-14.4.71-23.24 1.74-32.54 3.8-62 15.77-88.5 34.77a103.77 103.77 0 0 0-15.91 14.38c-4.47 4.89-3.53 8.08 2.8 9.91a146 146 0 0 0 21.52 4.44c20.38 2.68 40.8 5 61.21 7.41 15.48 1.87 30.94 4 46.46 5.55 9.68 1 19.47.83 29.15 1.82 15.76 1.6 31.47 3.74 47.2 5.61a13.79 13.79 0 0 0 2.7-.22 16.44 16.44 0 0 0-1.83-2.46c-7.1-6.75-14.29-13.42-21.32-20.24-.58-.57-.23-2.1-.32-3.19 1 .34 2.36.39 3.08 1.06 6.64 6.16 13.1 12.52 19.81 18.6a8.17 8.17 0 0 0 5.18 1.87c6.17-.09 12.43 0 18.46-1.1a167.31 167.31 0 0 0 21.48-5.67c3.54-1.13 3.42-2.49 1.32-5.52-2.49-3.54-4.49-7.43-6.89-11.03-2.91-4.34-5.56-9-9.19-12.68-5.89-6-11.79-11.76-15.52-19.42a24.39 24.39 0 0 0-3.81-5.41c-6.3-7.07-14.87-9.94-23.65-12.13-21.91-5.45-44.22-7.62-70.19-8.09zM647 158.08v-.37c9.34 0 18.67.2 28 0 30.3-.76 60.58-1.9 90.88-2.46 16.67-.3 33.36.1 50 .47 10.14.22 20.27 1 30.42 1.5a7.74 7.74 0 0 0 1.8-.35 12.14 12.14 0 0 0-1.09-1.27c-3.52-3.13-7.21-6.07-10.54-9.38-11.35-11.28-22.7-22.57-33.75-34.14-2.32-2.44-4.22-4.33-7.79-4.68-19.12-1.92-38.21-4.18-57.34-6.08-10-1-20.12-1.12-30.12-2.28-16.64-1.94-33.21-4.51-49.83-6.59-18.27-2.28-36.6-4-54.82-6.6a72.41 72.41 0 0 1-19-5.82c-2.75-1.24-3.76-1.18-5.11 1-9.34 15.19-14.42 31.46-10.41 49.27 2.32 10.31 6.83 20.14 17.45 24.43 5.57 2.25 12 3 18.1 3.22 14.41.43 28.8.13 43.15.13zm284.75-79.54l-.28.75c-1.81.16-3.63.21-5.41.52-1.62.29-2.16 1.06-1.08 2.76 3.18 5 2.74 8.89-1.59 13.06a61.08 61.08 0 0 1-29.34 16.15c-6.43 1.45-12.83 3.08-19.09 5.12s-9.08 1.51-13.1-3.8c-3.49-4.6-6.82-9.33-10.38-13.88-3.87-4.94-4-4.88-9.71-2.56l-.23.09a115.1 115.1 0 0 1-37.91 6.39c-1.72 0-2.23.31-1.28 1.83 1.14 1.81 2.1 3.84 3.59 5.31 13.88 13.76 27.77 27.51 41.9 41 2.72 2.6 6.28 5.35 9.79 5.89 10.91 1.71 22 1.06 31.75-4.58 16.34-9.47 29.13-23.22 41.64-37 3.57-4 7.24-6.06 12.33-6.71 6.36-.81 9.08-3.78 10.16-10.22 1.28-7.59-.46-12.78-6.1-15.19-5.01-2.17-10.41-3.33-15.66-4.93zM850.39 3.91c-10.51.66-18.15 5.83-24.19 13.34-4.84 6-8.93 12.63-13.25 19a2.68 2.68 0 0 0 .24 2.21c1.43 2.69 3 5.34 4.52 8 2.73 4.61 5.37 6.21 9.85 3.51 5.66-3.41 11.19-6.25 17.85-6.52a10.1 10.1 0 0 0 1.87-.64c4.62-1.2 10 .28 11.23 3.85a12.28 12.28 0 0 1-.47 7.74c-3.53 9.07-7.52 18-11.25 27-.4 1-.78 2.47-.32 3.19 3.29 5.17 6.76 10.23 10.25 15.27 1.41 2.05 2.48 1.45 3.66-.44.85-1.36 2-2.93 3.44-3.44 3.16-1.18 4-2.62 1.81-5.23s-4.94-4.32-7.21-6.68c-1.53-1.59-3.46-3.47-3.78-5.44-1.28-7.94 6.17-20.08 14-21.73 7.5-1.58 12.08-4.72 12-12.81a1.67 1.67 0 0 1 .11-.48c.85-2.64 2.17-4.92 5.2-5.35s4.25 1.89 5.82 3.85c.89 1.13 2.47 2.7 3.48 2.53a9.06 9.06 0 0 0 5-2.85c1.28-1.5 1.72-3.71 2.58-5.58a5.9 5.9 0 0 0-1.16-6.85c-2.45-2.79-4.85-5.63-7.17-8.52A21.16 21.16 0 0 0 880.69 13c-5.28-.88-10.35-3-15.52-4.61q-7.38-2.26-14.78-4.48zm90.85 140l.57-.21c-1.19-3.73-2.23-7.52-3.61-11.18s-3.15-6.91-4.45-10.46c-.83-2.27-1.43-2.26-3-.6C919.58 133.32 908 144.7 894.49 154a4.59 4.59 0 0 0-.85 1 9.94 9.94 0 0 0 1.19.22c3.29.26 6.59.46 9.88.75 7.72.67 15.44 1.91 23.17 1.94 10.34 0 11-.78 12.65-8.1a54.74 54.74 0 0 0 .71-5.88zm-49.73-87.46c-.73-3.62-1.27-7.29-2.3-10.82-.39-1.36-1.91-2.38-2.92-3.56a39.84 39.84 0 0 0-2.24 3.83 8.14 8.14 0 0 0-.47 2.67c-.53 6-3.81 9.62-9.7 10.46-9.78 1.4-13.39 8.24-15.46 16.68-.63 2.55.13 4.23 2.34 5.6 4.42 2.74 8.14 6.08 9.88 11.3.32 1 2.13 1.76 3.35 1.94.65.09 1.9-1.18 2.2-2.07a68.25 68.25 0 0 0 1.6-6.71 111.38 111.38 0 0 1 2.65-10.92 42.68 42.68 0 0 1 4-7.7c.73-1.24 1.62-2.86 2.8-3.28 3.76-1.32 3.97-4.19 4.27-7.42zm7.66 48.39a41 41 0 0 0-12.92-29 2.38 2.38 0 0 0-2.12.09 52.85 52.85 0 0 0-2.25 6.93c-.94 3.91-1.49 7.92-2.58 11.78-.82 2.86-3.07 4.5-6.11 3.59-2.23-.68-3.92-.21-6 .6-5.83 2.28-7.09 5.73-3.46 10.71.73 1 1.5 2 2.3 2.91a5 5 0 0 0 5.74 1.65c8-2.27 16.06-4.29 24-6.61 1.31-.36 2.28-1.74 3.4-2.65zm-7.76-38.16c-2.8 0-4.38 1.71-3.7 3.72a10.9 10.9 0 0 0 2.45 4.2c7.84 7.9 11.62 17.46 12 28.46.07 2.26 1.25 2.09 2.52 1.22 5.5-3.74 11.13-7.32 16.31-11.47 3.52-2.82 3.13-6.82-.33-9.81a88.33 88.33 0 0 0-24.4-14.88 40.72 40.72 0 0 0-4.85-1.44zM855.93 49.3c-.56-.69-1-1.79-1.85-2.19-2.85-1.4-5.79-1.44-8.41.57a12.37 12.37 0 0 0-.93 18.91c.72.68.79 2 1.17 3.08-1.16-.11-2.6.18-3.44-.4-6-4.17-7.13-10.2-3.68-18.29.4-.94.68-1.93 1-2.9a21.68 21.68 0 0 0-3.72.88c-1 .41-1.65 1.39-2.58 1.89-2.3 1.22-4.66 2.31-7 3.43a16.27 16.27 0 0 1-1.58.53 5.85 5.85 0 0 0 .94 1.58c7.23 5.93 12.83 13 16 21.92a6.39 6.39 0 0 0 1.15 1.5 9.18 9.18 0 0 0 1-1.54q5.31-12.4 10.55-24.83c.55-1.2.86-2.5 1.38-4.14zM175.24 7c13-.29 25.53 2.68 38.11 4.91 8.66 1.54 17.27 3.49 25.79 5.68 2.66.69 5.17 2.53 7.4 4.28 6.21 4.89 12.86 9.46 18.16 15.23 4 4.35 7.89 6.22 13.43 5.21 9.86-1.81 19.3.11 28.76 2.82 6 1.73 10.73 4.77 14.18 10 4.56 6.93 9.33 13.72 14.05 20.54 3.13 4.54 2.46 9.58 2.09 14.6a18.61 18.61 0 0 0 .13 2.35 22 22 0 0 0 2.06-1.19c13.79-9.93 27.26-20.34 41.45-29.68 13.44-8.85 29.6-3.84 35.8 11 3.48 8.36 5.19 17.48 7.27 26.36.46 2-.81 4.41-1.4 6.61-.52 2-1.72 3.9-1.72 5.86 0 11.36.33 22.72.31 34.08 0 3.43-.88 6.85-1.2 10.29a5.14 5.14 0 0 0 .81 2.32c.39.82 1.45 1.88 1.23 2.28a3.35 3.35 0 0 1-2.4 1.61c-6.83 0-13.66-.31-20.49-.36-3.07 0-6.15.46-9.22.37-1.18 0-2.28-1.3-3.5-1.56-1.38-.29-3.38-.67-4.19 0a7.27 7.27 0 0 1-9.36-.13c-.75-.69-2.73-.32-4.05 0-1.47.33-2.82 1.66-4.24 1.68-13.61.13-27.23 0-40.85.11-16.1.16-32.19.68-48.29.79-6.76.05-13.52-.51-20.28-.88a9.33 9.33 0 0 1-2.7-1c-1.74-.68-3.07-1.16-5.18.1-1.87 1.12-4.83.49-7.31.44-.32 0-1.06-1.41-.87-1.74 1.42-2.45-.47-2.39-1.92-2.75-22.87-5.56-45.69-4.48-68.47.51-.56.12-.89 1.29-1.32 2s-.91 2.17-1.43 2.2c-2.63.14-5.51 1.5-7.73-1.49-.44-.59-2.52-.15-3.78.11-2.14.44-4.22 1.54-6.35 1.6-7.15.21-14.3 0-21.45.09-5.85 0-11.7.27-17.55.29q-25.89.09-51.77.06c-5.53 0-11.14.29-16.55-.58-2.74-.44-5.38-2.88-7.58-4.94-6.88-6.4-9.69-14.84-10.8-23.85-1.9-15.58-1-30.89 6.55-45 2.38-4.45 5.92-8.29 8.91-12.43.56-.78 1.5-1.68 1.43-2.46-.31-3.82 2.1-5.94 4.44-8.37 3.49-3.61 6.58-7.6 9.94-11.35 14-15.57 30.78-26.89 50.83-33.15 11.73-3.67 23.36-8 35.36-10.32 11.6-2.22 23.63-2.21 35.46-3.15zM26.08 122.36c.18 8.58 1.11 17.54 5.63 25.77 3.18 5.78 7.75 9.3 14.57 9.47 4.87.11 9.74.45 14.6.44 21.73-.07 43.45-.36 65.17-.3 12.86 0 25.48-1.57 38.13-3.75a366.25 366.25 0 0 1 38-5c13.48-.88 26.83 1.45 39.94 4.76 9.7 2.44 19.4 4.77 29.53 4.4 4.68-.17 9.36 0 14.05 0 .95 0 1.91.07 2.86.1a22.17 22.17 0 0 0-1.86-2.42c-15.54-15.2-29.39-31.71-39.94-50.82a3.8 3.8 0 0 0-2.87-1.32c-4.61-.06-9.22.3-13.82.13-5.44-.19-10.85-.9-16.28-1.14-7.18-.32-14.38-.17-21.54-.62-20.84-1.3-41.65-3-62.5-4.16-20.63-1.18-41.14-3-61.26-8.08C59.79 87.67 51 85.71 43.87 80c-1.82-1.46-2.57-1.31-4 .29C29 92.1 26.32 106.52 26.08 122.36zm166.5-75.26a35.61 35.61 0 0 0 12.75 25c10.36 8.9 22.44 14 35.88 16.18a4.46 4.46 0 0 1 3.06 2.2c10.39 26.09 28.26 46.68 48.22 65.74 2.35 2.24 4.78 2.19 7.44.6 9.21-5.5 18.53-10.83 27.66-16.46 13.25-8.18 23-20.22 33.79-31.11 2.63-2.67 5.36-4.69 9.17-4.66q10.76.06 21.51.35c7.33.2 14.65.82 22 .69 4.17-.08 6.16-2.84 5.23-7a220 220 0 0 0-6-22.64c-4-11.57-17.72-19-30.68-10.16-12.18 8.4-24.61 16.37-35.9 25.71a68 68 0 0 1-31.32 14.83c-3 .57-6 1.35-8.9 2.17-7.81 2.19-10.37.89-13-6.75a16.08 16.08 0 0 0-.79-2.34c-2.26-4.15-4-8.72-7-12.3-5.5-6.66-10.7-13.39-11.7-22.22-1.42-13.13-8.68-22.45-18.68-30.19-3.58-2.78-7-5.85-10.7-8.4a27.47 27.47 0 0 0-8.43-4.1c-9.58-2.43-19-.72-28.34 1.87C197 27.15 192.62 33 192.58 47.1zm-16.71-36l-.15 1.05c-31 .76-37.52 1.46-65.53 10.93-21.13 7.15-39.72 17.75-54.33 34.82-3.16 3.7-6.24 7.48-9.64 10.94-3 3.08-3.13 6.41.57 8.8 3 1.92 6.07 4.1 9.41 4.86 15.43 3.51 30.86 7.34 46.5 9.56 14.67 2.07 29.6 2.42 44.43 3.26 22.41 1.28 44.83 2.3 67.25 3.49 4.44.24 8.87.92 13.31 1.14 4.76.23 9.54.2 14.31.19a2.18 2.18 0 0 0 1.71-1c.55-1.64-3.13-7.33-4.83-7.57-8.72-1.23-16.72-4.51-24.4-8.61-13.19-7.06-22.39-17.25-25.17-32.42-2.94-16 3.68-26.52 19.5-30.49 3.28-.82 6.63-1.35 9.94-2a7.09 7.09 0 0 0 1.25-.5 9.29 9.29 0 0 0-1.31-.39c-1.88-.27-3.77-.48-5.65-.75zM333 85.61c.51-4.25-1.3-7.51-4.15-10.45a28.77 28.77 0 0 1-3.26-4.32c-3.45-5.21-6.65-10.59-10.34-15.62a13.94 13.94 0 0 0-5.82-4.31c-11.33-4.61-23.11-5.58-35.19-3.79-2 .3-1.63.91-1.07 2.36 1.45 3.83 3.07 7.68 3.81 11.67 1.24 6.75 2.71 13.36 7.46 18.55 6 6.54 11.1 13.48 13 22.34a3.69 3.69 0 0 0 1.11 2.16c1.11.75 2.61 1.8 3.69 1.56 7.72-1.74 15.35-3.9 23.07-5.68 4.83-1.12 7.51-3.57 7.15-8.82a33.81 33.81 0 0 1 .54-5.65zm82.42 29.06h.68a14.15 14.15 0 0 0-.07-3.45 2.52 2.52 0 0 0-1.67-1.61c-8.23-.47-16.47-.73-24.69-1.23-2.22-.14-3.4.26-3.72 2.66a15.45 15.45 0 0 1-8.13 11.79c-3.14 1.78-6.53 3.13-9.69 4.89a3.58 3.58 0 0 0-1.6 2.61c0 7.33.29 14.65.23 22 0 2.21.56 2.78 2.73 2.87 8.72.38 17.43.9 26.14 1.51 4 .28 7.88 1.34 11.8 1.22 7.15-.2 7.8.45 8.75-7.45a31.92 31.92 0 0 0 .35-4.67c-.31-10.41-.71-20.81-1.09-31.14zm-69 43.38c4.05 0 8.1.07 12.14 0 2.06-.05 4.35-.55 4.37-3.06q.1-12.33-.38-24.66c0-.81-1.74-2.17-2.72-2.2a62.71 62.71 0 0 0-9.87.48 7.19 7.19 0 0 0-4.06 1.77 98.91 98.91 0 0 1-22.53 16.84q-8.1 4.53-16.12 9.2a6.73 6.73 0 0 0-1.3 1.31 8.32 8.32 0 0 0 1.61.31zm31.05-50.23c-2.1.14-4.83.15-7.51.56a8.13 8.13 0 0 0-4.21 1.76c-4.44 4.3-8.67 8.8-12.95 13.24a6.3 6.3 0 0 0-.75 1.19 12.44 12.44 0 0 0 1.6.18c3.28 0 6.57-.32 9.83-.11 5.59.36 16.56-6.54 18.26-11.73 1.54-4.71 1.26-5.06-4.26-5.09zm603.39 54.47c-.66 0-1.43.21-1.94-.06a16.58 16.58 0 0 1-2.45-1.85c.82-.74 1.52-1.8 2.48-2.12a6 6 0 0 1 3.63 0c1 .34 1.83 1.39 2.73 2.13a26.23 26.23 0 0 1-2.75 1.88c-.45.21-1.13.02-1.7.02z"/><path d="M582.81 158.68c.83 2.89-.68 3.84-3.21 3.59-1.92-.2-5.15 1.15-5.24-1.89-.11-3.33 3.24-1.9 5.21-2.23a13.47 13.47 0 0 1 2.2 0l.12.08.94.46zm-17.64 3.6c-.66 0-1.43.22-1.94-.05a15.79 15.79 0 0 1-2.46-1.89c.83-.72 1.56-1.76 2.52-2.08a6.11 6.11 0 0 1 3.64 0c1 .35 1.81 1.42 2.7 2.16a25.07 25.07 0 0 1-2.76 1.85c-.45.23-1.12 0-1.7 0zm-388.73-.04a5.89 5.89 0 0 1-2.42-.07 9.25 9.25 0 0 1-2.11-2c.7-.67 1.31-1.69 2.13-1.92a7.41 7.41 0 0 1 3.88 0c1.05.3 1.89 1.33 2.82 2-.94.67-1.85 1.41-2.84 2-.37.21-1 0-1.46 0zm375.41.06c-.41 0-.91.15-1.22 0-1.13-.62-2.2-1.36-3.3-2.06 1.13-.69 2.25-1.41 3.41-2.05a1.76 1.76 0 0 1 1 0c1.75.19 4.36-.63 4.29 2.17 0 .93-2.39 1.79-3.69 2.69zm-67-.06a6.08 6.08 0 0 1-2.42-.06 9.8 9.8 0 0 1-2.14-2c.7-.67 1.3-1.7 2.12-1.94a7.41 7.41 0 0 1 3.88 0c1 .3 1.9 1.32 2.83 2a34.29 34.29 0 0 1-2.82 2c-.36.21-1 0-1.45 0zm-13.56.01c-.74 0-1.59.24-2.18-.06a11.79 11.79 0 0 1-2.22-1.87c.75-.71 1.4-1.78 2.28-2a6.92 6.92 0 0 1 3.88 0c1 .32 1.8 1.42 2.68 2.17a24.19 24.19 0 0 1-2.74 1.83c-.46.23-1.13 0-1.7 0zm-281.61.11a8.16 8.16 0 0 1-2.65-.26c-.7-.31-1.59-1.16-1.61-1.79a2.44 2.44 0 0 1 1.47-1.86 14.36 14.36 0 0 1 5.1-.14c.81.15 1.44 1.39 2.15 2.14a12.48 12.48 0 0 1-2.27 1.76 5.64 5.64 0 0 1-2.18.06zm348.74-.06c-.49 0-1.08.17-1.45 0-1.06-.6-2-1.36-3-2.06a13.2 13.2 0 0 1 2.94-2 4.89 4.89 0 0 1 3.14 0 12.21 12.21 0 0 1 2.78 2.12 34.68 34.68 0 0 1-2.91 1.91c-.42.2-1 .03-1.5.03zm-523.08-.03c-.66 0-1.44.23-1.94-.05a15.4 15.4 0 0 1-2.4-1.94c.7-.69 1.3-1.8 2.1-2a11.29 11.29 0 0 1 4.63 0c.81.17 1.43 1.26 2.13 1.94a13.7 13.7 0 0 1-2.38 2 5.44 5.44 0 0 1-2.14.05zm952.1-.03a6.27 6.27 0 0 1-2.42-.07c-.77-.34-1.8-1.17-1.81-1.81a2.65 2.65 0 0 1 1.62-2 8 8 0 0 1 4.11-.13c1.1.3 2 1.4 3 2.14-1 .64-2 1.33-3 1.87-.39.2-1 0-1.46 0zm-523.02 0c-.74 0-1.62.25-2.19-.06a11 11 0 0 1-2.13-2c.71-.67 1.33-1.69 2.17-1.92a7.73 7.73 0 0 1 3.91 0c1 .26 1.83 1.23 2.73 1.89a26.85 26.85 0 0 1-2.78 2.12c-.43.25-1.13 0-1.71 0zm12.58.06a2.82 2.82 0 0 1-1.59-.15c-.77-.38-1.79-1.22-1.81-1.88a2.74 2.74 0 0 1 1.73-1.93 7.49 7.49 0 0 1 3.9-.11c1.13.32 2.05 1.36 3.05 2.08-1 .66-1.92 1.39-3 1.95-.28.21-.9.04-2.28.04zm-227-.01c-.58 0-1.25.2-1.71 0a26.75 26.75 0 0 1-2.76-1.87 12.48 12.48 0 0 1 2.79-2.15 4.82 4.82 0 0 1 3.16 0 12.16 12.16 0 0 1 2.84 2.05 34.52 34.52 0 0 1-2.85 2c-.38.16-.97-.02-1.47-.03zm-13.5-.04a5.35 5.35 0 0 1-2.2-.06 11.11 11.11 0 0 1-2.16-1.92c.71-.68 1.31-1.72 2.15-2a7.18 7.18 0 0 1 3.9-.06c1 .31 1.84 1.39 2.74 2.14a24.68 24.68 0 0 1-2.72 1.86c-.46.24-1.14 0-1.71 0zm281.61.03c-.66 0-1.44.22-1.95-.05a17.09 17.09 0 0 1-2.44-1.93c.79-.7 1.46-1.71 2.38-2a5.59 5.59 0 0 1 3.41-.05 12.88 12.88 0 0 1 3 2.14c-1 .65-1.91 1.36-2.94 1.91-.38.2-1 0-1.47 0zm13.17.07a8.23 8.23 0 0 1-2.53-.26c-.65-.26-1.54-1.09-1.51-1.62 0-.71.79-1.9 1.36-2a23 23 0 0 1 5.86 0c.56.07 1.39 1.31 1.34 2s-1 1.43-1.67 1.72a9.45 9.45 0 0 1-2.85.16zm13.78-.05c-.49 0-1.09.18-1.46 0-1.07-.6-2.05-1.36-3.07-2.06a13.67 13.67 0 0 1 3-2 4.79 4.79 0 0 1 3.15 0 11.46 11.46 0 0 1 2.67 2.21 29.39 29.39 0 0 1-2.78 1.81c-.43.2-1.01.03-1.51.04zm-94.06-.06c-.74 0-1.63.25-2.19-.06a4 4 0 0 1-2-2.05c-.11-.47 1.06-1.63 1.82-1.81a9 9 0 0 1 4.17-.08c1 .24 1.8 1.26 2.69 1.94a28 28 0 0 1-2.83 2.07c-.44.25-1.13 0-1.71 0zm-402.17.11a9.44 9.44 0 0 1-2.69-.23c-.65-.25-1.52-1.05-1.51-1.6 0-.71.73-1.94 1.27-2a23.94 23.94 0 0 1 5.86 0 2.47 2.47 0 0 1 1.43 1.92c0 .63-1 1.44-1.67 1.74a8.45 8.45 0 0 1-2.69.17zm925.17-.09a5.36 5.36 0 0 1-2.2-.06 10.91 10.91 0 0 1-2.12-1.92c.69-.69 1.28-1.75 2.1-2a7.32 7.32 0 0 1 3.91-.05c1 .32 1.87 1.39 2.79 2.13a24.91 24.91 0 0 1-2.77 1.87c-.46.24-1.14 0-1.71 0zm-750.86.02c-.66 0-1.44.22-1.95-.05a16 16 0 0 1-2.46-1.92c.78-.7 1.45-1.71 2.37-2a5.56 5.56 0 0 1 3.4-.05 12.93 12.93 0 0 1 3 2.13c-1 .65-1.9 1.36-2.92 1.91-.39.21-1 0-1.47 0zM3.27 163.45L0 160.19c1-.68 2.1-1.93 3.12-1.9s2.27 1.21 3.39 1.89zm989.73-.13l-3.09-3.07c1.09-.7 2.2-2 3.28-1.95s2.08 1.37 3.12 2.13z"/></symbol><symbol id="wide-legged-standing-stretch" viewBox="0 0 996.17 227.63"><path d="M669.26 109.25c-8.15 4.51-16.61 8.54-24.37 13.64-15.31 10.11-30.16 20.82-45.33 31.11-7.46 5.05-15.2 9.67-22.81 14.5-3.35 2.12-6.67 4.29-10 6.4-6.51 4.13-11.58 9.18-12.84 17.33-.61 4-3.3 7.1-5.55 10.5-3.62 5.47-8.48 3.71-13 3.81q-16.19.38-32.38 0c-1.34 0-2.91-2.07-3.9-3.5-3.56-5.18-1.92-9.89 4.1-11.69a81.38 81.38 0 0 1 9.33-2 23 23 0 0 0 13.76-8c3.34-3.83 7-7.65 11.27-10.35 12.71-8.09 22.73-18.86 32.51-30.1 15.79-18.12 32.38-35.44 53.11-48.23 7.46-4.6 13.09-11.19 18.83-17.84 8.29-9.62 17.66-18.3 26.59-27.37a31.76 31.76 0 0 1 3.42-3.13 15.61 15.61 0 0 0 6.39-9.56 10.73 10.73 0 0 1 7.12-7.77c13.32-4.66 26.54-9.8 40.17-13.28 10.08-2.57 21.13-2.76 30.76 1.59 14.25 6.44 28.94 13.07 35.35 29.27.65 1.65 1.62 3.28 1.83 5 .48 3.83 2.83 5.88 5.7 8.16 10.88 8.63 21.34 17.78 32.19 26.45 6.24 5 13.06 9.25 19.36 14.17 9.65 7.54 19.46 15 28.51 23.17 11 10 21 21.16 32.06 31.18 7.85 7.14 16.65 13.23 25 19.82a42.28 42.28 0 0 1 5.09 4.44c8.18 8.86 18.69 12.09 30.3 12.89a33.13 33.13 0 0 1 7.52 1.39c3.66 1.16 5.25 4.12 5.73 7.77.24 1.79.64 3.57.76 5.36.17 2.51-1.76 2.34-3.38 2.35q-23.67.19-47.33.33c-1.93 0-4.06.29-5.77-.39-3.87-1.55-7.55.24-11.28 0-1.14-.07-2.21-1.11-3.31-1.7 1.08-.71 2.12-1.49 3.26-2.09a5.52 5.52 0 0 1 1.81-.23 19.43 19.43 0 0 1-.86-1.78c-1-2.59-2.57-5.15-2.73-7.8a14.94 14.94 0 0 0-7.46-12.49C898 174.09 886.9 168.18 876 162c-5-2.83-10-5.7-14.74-8.86a18.37 18.37 0 0 1-4.89-5.23c-3-4.56-7.25-7.21-12-9.67-5.4-2.81-10.42-6.36-15.64-9.52q-13.83-8.37-27.71-16.64a4 4 0 0 0-1.28-.25 5.24 5.24 0 0 0 .08 1.32c3.2 10.3 3.22 20.91 3.49 31.57.37 14.34 1.51 28.65 2 43 .15 4.57-.82 9.17-1.17 13.76a1.79 1.79 0 0 0 1.1 1.3c1.71.43 4.72-.82 4.64 2-.09 3.11-3.21 1.8-5.08 1.88-1 0-2-.83-3-1.22a3.35 3.35 0 0 0-1.55-.27c-4.42.6-8.83 1.75-13.25 1.81-15.78.23-31.56.17-47.34.06-5.4 0-10.79-.77-16.19-.75-15.13 0-30.27.3-45.4.45-3.89 0-7.78.11-11.66-.07-.93 0-1.83-1-2.74-1.54.61-.75 1.24-1.48 1.83-2.25.28-.37.8-1 .68-1.19-3-5.3-2.6-11-1.54-16.58 2.44-12.69 2.18-25.47 2.31-38.28.11-10.61.84-21.21 1.38-31.81a49.28 49.28 0 0 1 1-5.73zM772.8 28.66c2.44 6 4.64 12 7.38 17.83s6.1 11.49 9.19 17.22l1 1.76a14.27 14.27 0 0 0 .53-2c1.35-12.78-6.83-28.53-18.1-34.81zm-10.26 173.73v.08h14.91c5 0 9.95 0 14.92-.13 7.2-.2 9-2 8.82-9.15-.23-7-1.11-13.92-1.36-20.89-.45-12.64-.32-25.31-1.1-37.92-.44-7.07-1.27-14.38-3.6-21a91.67 91.67 0 0 1-5.71-31.59 45.29 45.29 0 0 0-5.75-22.07C780 53 777.1 45.9 773.6 39.1c-2.39-4.64-4.64-9.57-8-13.42-5.85-6.63-14.14-8.19-22.66-8.67-12.18-.69-24 1-34.9 6.46-8 4-14 9.55-14.13 19.81a45.18 45.18 0 0 1-8.14 25.37c-1.87 2.71-3.77 5.66-4.58 8.78-2.41 9.3-3.95 18.82-6.45 28.09-3.79 14.09-3.7 28.4-3.57 42.77.07 7.37.05 14.75-.43 22.1-.45 7-1.9 13.84-2.26 20.79-.45 8.59 2.09 11 10.68 11.18 5.9.14 11.81.27 17.71.25 7.31 0 14.61-.22 21.91-.35 1.74 0 2.62-.45 1.58-2.49-.69-1.34-.6-3.06-1.22-4.46a4 4 0 0 0-2.22-2.16c-7.72-1.74-15.61-2.84-23.18-5-8.36-2.42-9.1-4.66-6-12.87 4.86-13 10-25.94 8.79-40.36-.16-2 1.69-4.7 3.41-6.09 3-2.47 6.7-4.19 10.11-6.2 6.32-3.74 10-2.23 11.17 5 .55 3.32 1.86 4.23 5.16 4.15a149.73 149.73 0 0 1 20.21.56c3.12.35 3.23-.25 3.51-2.86.25-2.34 1.07-5.24 2.71-6.65 2.44-2.11 5.55-.91 8.24.71 6.55 4 9.64 10.3 11.27 17.29 1.58 6.77 2.23 13.76 3.52 20.6 1.44 7.61 3.14 15.17 4.73 22.75.86 4.05 0 6-4 7.06s-8.09 1.52-12.09 2.47c-9 2.12-15.86-.17-20.06-8.91a6.36 6.36 0 0 0-3.42-2.59c-9-3.26-17.15 1.72-18.37 11.16-.57 4.41 1.63 7.59 6 8.38a34.87 34.87 0 0 0 6 .66c9.26.02 18.59-.02 27.91-.02zm190.94.07h23.06c1.67 0 3.92.44 4.17-2.19s-.75-4.52-3.33-5.17a35.07 35.07 0 0 0-6.2-1c-10-.74-19.51-3.12-27.54-9.51-9.78-7.77-19.82-15.28-29.11-23.61-11.15-10-21.44-20.92-32.46-31.06-9.36-8.61-18.74-17.33-29-24.8-12.24-8.94-24.77-17.38-35.94-27.71-6.37-5.88-13.5-10.94-20.29-16.36-1.22-1-2.21-1.24-2.44.83-.76 6.71-2.8 13.23-1.56 20.19 1.18 6.61 1.38 13.38 2.38 20 .21 1.41 1.81 3 3.19 3.79 9.81 5.66 20.13 10.55 29.49 16.86 6.88 4.65 13.43 9.59 21.05 13.14 3.71 1.72 6.61 5.22 9.78 8 3.69 3.25 7 7.09 11 9.83 4.26 2.9 9.3 4.63 13.82 7.2 9.71 5.52 19.46 11 28.86 17a16.7 16.7 0 0 1 7.91 13.37c.46 7.62 4.07 11.08 11.72 11.14 7.14.11 14.29.06 21.44.06zm-439-.07c5.82 0 11.64.08 17.46 0 13-.23 15.63-2.22 18.88-14.83a19.16 19.16 0 0 1 7.05-11.15c4.42-3.29 8.85-6.58 13.46-9.59 9.62-6.28 19.64-12 29-18.65 21.26-15.15 42.46-30.36 65.81-42.22 4.21-2.14 5.95-5 6.94-9.45 2.5-11.12 3.38-22.87 11.28-32.15.38-.45 0-1.81-.39-2.61-2-4.59-4.08-9.13-6.12-13.7-.3-.67-.48-1.4-.72-2.11a15.92 15.92 0 0 0-1.85 1.27c-12.08 11.06-24.15 22.1-34.09 35.28-5.87 7.78-14.19 12.88-22.24 18.23-18 12-32.51 27.85-46.57 44-9.57 11-19.42 21.5-31.89 29.38a50.38 50.38 0 0 0-10.94 10 26.69 26.69 0 0 1-14.74 9.15c-3.18.71-6.42 1.16-9.58 2-1.59.41-3.9.55-3.5 3.16.36 2.4 1.75 4 4.37 4 2.76.02 5.56-.01 8.36-.01zm221.59-67.48v.44c-4.42 0-8.85-.07-13.27 0a7.27 7.27 0 0 0-6.59 4c-5.23 9.22-6.49 19.14-5.19 29.42.78 6.11 4 10.93 9.85 13.43a4.72 4.72 0 0 0 3.1-.4c2.34-.91 4.52-2.5 6.92-2.95 4.63-.87 9.8-2.09 13.67 1.35 3.31 2.94 5.22 1.48 7.25-.85a16 16 0 0 0 3.4-5.46c2.75-9.14 3.73-18.61.57-27.68-2.87-8.25-6.54-11.34-15.28-11.31zm23.3 55.09c3.92-.64 8.81-1.49 13.72-2.22 2.87-.43 3.62-1.67 2.87-4.61-1.64-6.44-3-13-4.24-19.51-1.65-8.42-2.73-17-4.88-25.26-.91-3.52-3.65-6.74-6.1-9.63-1.16-1.37-3.59-1.66-5.45-2.44-.37 1.81-.85 3.61-1.07 5.44-.49 4.06 1.56 6.66 5 8.5s5.88 10.93 4.24 14.52a28.64 28.64 0 0 0-1.77 6.7c-.35 2-.29 4-.54 6-.8 6.39-2.7 12.27-8 16.55a29.13 29.13 0 0 0-2.28 2.3 21.9 21.9 0 0 0 3.76 3.23c1.04.55 2.47.28 4.74.43zm-41.88-58.85c-.17-1.05-.27-1.9-.43-2.74-.73-3.7-1.47-4-4.78-2.19-2.64 1.49-5.19 3.13-7.88 4.51a6.46 6.46 0 0 0-3.89 6.93c.78 9.62-1.2 18.8-4.72 27.74-1.87 4.75-3.51 9.62-5 14.51-.25.82.63 2.8 1.31 3 8.49 2.11 17 4 25.57 5.87.52.11 1.22-.63 1.84-1a7.36 7.36 0 0 0-1.25-1.84c-1.63-1.29-3.56-2.25-5-3.69-6.34-6.16-7.38-14-7-22.33a7.14 7.14 0 0 0-.85-4.06c-3.17-4.7-.15-14.62 4.86-17.36 2.76-1.52 4.8-4.37 7.13-6.65.15-.18.07-.6.09-.7zm-36.57-86.86l-.9.36c1.84 4.46 3.66 8.92 5.54 13.36.19.44.73.74 1.11 1.1a5.41 5.41 0 0 0 .8-1.33c.94-3.83 2-7.65 2.69-11.53.89-5.22.11-10.8 3.66-15.39.91-1.18 1.74-2.43 2.61-3.65-1.53.55-3.06 1.07-4.57 1.64-8.45 3.15-11.15 6.99-10.94 15.44zm27.74 104.41l.08-.14h-.12zm-420 58h-24a9.73 9.73 0 0 1-2.89-1.05c.36-.92.73-1.84 1.07-2.76a6.73 6.73 0 0 0 .52-1.71c.38-4.51 2-6.53 6.3-7.81 1.56-.46 3.16-.8 4.71-1.31 5.48-1.78 7-3.63 7.17-9.43.16-5.28-.18-10.57 0-15.84.4-9.43.75-18.88 1.71-28.26 1.17-11.47 0-22.77-1.35-34.1-.06-.49-1.32-1.29-1.89-1.19-4.95.87-9.88 1.86-14.79 2.93-2.19.48-4.29 1.35-6.48 1.83-3.41.74-5.71-.9-7.69-3.59a7 7 0 0 0-3.86-2.48c-6.77-1.51-11.19-5.93-15.08-11.31-1.69-2.34-6.77-3.47-8.74-1.42-2.7 2.82-5.45 5.84-7.16 9.27-2.87 5.79-5.48 7.33-11.58 4.81-2.23-.92-3-.39-3.54 1.72a31.72 31.72 0 0 1-1.89 5.26c-5.4 11.71-3.57 23.82-2.18 36 1.66 14.45 5.92 28.23 10.66 41.88a5.84 5.84 0 0 0 3.25 3.29c4 1.21 8.27 1.81 12.38 2.82 2.72.67 5.61 1.21 8 2.56a5 5 0 0 1 2.09 6.34c-.95 2.61-2.64 3.75-5.65 3.68-8.92-.21-17.85-.07-26.78-.07-3.86 0-7.72.13-11.56-.09-1.12-.07-2.18-1.15-3.27-1.77a23 23 0 0 0 2.79-2.09 2.37 2.37 0 0 0 .74-1.87c-8.11-23.38-19.46-45.72-22.59-70.71-.76-6-.9-5.86-6-2.53-5.53 3.58-11.45 6.59-16.88 10.31a118.52 118.52 0 0 0-15.49 12.14c-6 5.81-12.36 10.52-20.44 13.3-14.95 5.08-28.8 12.55-42.01 21.07a5.6 5.6 0 0 0-1.87 3.62c-.63 4.42-1 8.89-1.36 13.35a1.62 1.62 0 0 0 1 1.23c.8.22 1.79-.14 2.52.17a10.88 10.88 0 0 1 2.32 1.81c-.73.65-1.48 1.89-2.18 1.86a43.92 43.92 0 0 1-6.17-1 5.16 5.16 0 0 0-1.08-.17c-9.19.55-18.37 1.3-27.57 1.61-4.15.15-8.33-.66-12.5-.82-2-.08-4.13.59-6.16.46-1-.07-2-1.2-2.93-1.85.9-.65 1.75-1.76 2.71-1.84 1.73-.16 1.86-.71 2.11-2.36a12.43 12.43 0 0 1 2.78-6.39 61.22 61.22 0 0 1 9.1-7.55C39 178 51.36 169.7 63.25 160.84c5.38-4 9.84-9.25 15-13.65 10.07-8.63 19.83-17.74 30.61-25.41a187.72 187.72 0 0 0 37.46-35.71c2-2.48 4.21-4.8 6.09-7.36 1.43-1.95 2.46-4.19 3.73-6.26a18 18 0 0 1 2.54-3.57c7.18-6.87 14.66-13.44 21.54-20.59 2.24-2.34 4.23-6.16 4.17-9.26-.21-11.19 5.31-19 13.28-25.72C214.75-1 234.32-2.47 255 2.82c19 4.86 32.53 16.5 41.29 33.92 3.3 6.58 7.51 12.77 10.18 19.58 2.23 5.66 2.78 12 4.14 18a8.23 8.23 0 0 0 1.4 3.5 260.92 260.92 0 0 0 37.54 35.06c18.1 14.14 35.16 29.61 52.76 44.39 8.63 7.24 17.39 14.32 26.21 21.32A54.45 54.45 0 0 0 451 188.91a93.22 93.22 0 0 1 10.91 3.32c3.91 1.39 5.66 4.31 5.52 8.5 0 .69.91 1.44 1.47 2.1s1.26 1.33 1.9 2c-.76.62-1.48 1.71-2.28 1.78-3.55.3-7.11.41-10.67.4-14.3-.06-28.6-.16-42.89-.39a3.76 3.76 0 0 1-2.72-1.87c-5.19-11.05-10-22.49-21.76-28.29a154.87 154.87 0 0 0-21.48-8.69A61.07 61.07 0 0 1 344 153c-4.91-4.82-11-8.51-16.68-12.48-4-2.79-8.26-5.25-12.46-7.74-.38-.22-1.74.27-1.81.6-2.63 13.29-5.25 26.6-7.69 39.93a70.52 70.52 0 0 0-1.2 11.76c0 4 2.1 6.79 5.48 9.13 2.11 1.45 3.59 4.08 4.79 6.46.72 1.44 1.19 2.16 2.88 2.28 1 .07 1.85 1.16 2.77 1.79-.95.67-1.89 1.9-2.85 1.91-9.51.11-19.04.06-28.57.06zM235.1 4.39a50 50 0 0 0-33.71 11.4c-5.58 4.54-10.65 9.58-12.18 17.1-.35 1.71-.31 2.23 1.8 2a5.55 5.55 0 0 1 4.18 1.81 19.86 19.86 0 0 1 3.45 6.3c4.05 12.26 7.05 24.75 7.6 37.75a3.34 3.34 0 0 0 2.09 2.44c5.7.48 11.42.71 17.13.9a13.41 13.41 0 0 0 3.22-.71c-.56-1.3-1.05-2.63-1.67-3.9-1-2-2.67-3.91-3-6-.54-3.74-.23-7.59-.34-11.39a4.2 4.2 0 0 1 2.94-4.48 3.76 3.76 0 0 0 1.89-2c2.9-8.25 8.8-12.9 17.22-14.63 13.06-2.69 23.81 2.78 28.9 14.7.27.61.84 1.09 1.14 1.7a36.34 36.34 0 0 1 3 6.44c.5 1.81.13 3.85.16 5.79a4.86 4.86 0 0 0 .14.85c.09-.28.19-.56.27-.84 2.48-8 4.8-16 7.54-23.93.82-2.38 2.88-4.32 4.25-6.54a2.61 2.61 0 0 0 .38-2.1c-3.77-7-8.32-13.51-14.59-18.55-12.19-9.88-26.43-13.75-41.81-14.11zm-200.47 198v.61c6.9-.35 13.8-.71 20.69-1 2.94-.14 4.08-1.91 4.25-4.55a90.48 90.48 0 0 0 .37-9.3 7.41 7.41 0 0 1 3.81-7.14c13.25-8.5 27.06-16 41.91-21.18a54.67 54.67 0 0 0 20-12.7A135.28 135.28 0 0 1 142.49 134c7.4-5.11 15.13-9.73 22.65-14.68a4.31 4.31 0 0 0 1.64-2.81q1.46-12.81 2.58-25.67a3.94 3.94 0 0 0-1.18-2.84c-2.92-2.65-6-5.18-9.1-7.59a2.52 2.52 0 0 0-2.43.07c-2.72 3-5.25 6.14-7.85 9.22-9.16 10.87-18.47 21.49-30 30.07-12 8.87-23.45 18.38-34.88 27.92-8.33 7-15.86 14.9-24.43 21.53-9.94 7.68-20.67 14.34-30.95 21.58a51.42 51.42 0 0 0-8.08 6.93c-2.19 2.37-1.17 4.47 2.09 4.61 4 .15 8.04.02 12.08.02zm404.45.09c6.83 0 13.67.07 20.5-.08 1.15 0 2.27-1.08 3.4-1.66-.75-1.45-1.15-3.49-2.34-4.21a24.12 24.12 0 0 0-7-2.43c-9.92-2.32-19.44-5.51-27.57-11.93-4.15-3.28-8.4-6.42-12.46-9.79-26.12-21.67-52.33-43.22-78.21-65.17-8.26-7-15.57-15.13-23.33-22.74a12.56 12.56 0 0 0-1.42-1.07 14.88 14.88 0 0 0-.07 1.76c.79 13.08 1.58 26.16 2.46 39.23a3.71 3.71 0 0 0 1.37 2.46c4.39 3.06 8.69 6.35 13.39 8.86a77.87 77.87 0 0 1 21 15.71 40.47 40.47 0 0 0 17.4 10.88c4.64 1.55 9.38 2.85 14 4.56 15.39 5.73 28 14.46 33.07 31.18.92 3 3.12 4.58 6.54 4.5 6.36-.19 12.82-.09 19.27-.09zm-149.64.24v-.24c5.83 0 11.65.06 17.47 0a11.84 11.84 0 0 0 3.25-1c-.72-1.14-1.17-2.78-2.21-3.33-6.33-3.34-8.83-8.85-8.1-15.47a159.53 159.53 0 0 1 3.95-21c4.79-19.27 6.91-38.72 4.94-58.55-.91-9.1-2.16-18.21-2.31-27.32-.21-12.4-5.19-22.82-11.81-32.75-.27-.4-1.76-.39-2.38 0s-1 1.32-1.4 2.08c-8.48 17.23-10.75 35-5.75 53.78a99.7 99.7 0 0 1 2.78 34.62c-1.17 12.9-2.62 25.75-1.95 38.74.17 3.25.08 6.52 0 9.78-.23 8.48-2.92 12-11.09 14.46-1.26.38-2.73.4-3.78 1.08a21.26 21.26 0 0 0-3.28 3.29c1.33.64 2.64 1.78 4 1.83 5.87.09 11.77-.03 17.67-.03zm-78.39 0v-.29c4.65 0 9.31.09 14-.06 1.39-.05 2.76-.82 4.14-1.25-1.44-.81-2.85-1.69-4.33-2.4-.51-.24-1.26.08-1.85-.06-4.86-1.18-9.87-2-14.51-3.8-2.05-.8-4.07-3.3-4.85-5.48-5.44-15.15-9.59-30.59-11.44-46.68-1.43-12.39-1.48-24.4 3.76-36 1.74-3.87 3-8 4.43-12 3.5-10.06 2.68-20.25.3-30.3-1.91-8-4.5-15.94-6.93-23.85a3.31 3.31 0 0 0-2.18-2.07c-.76 0-1.93 1-2.33 1.87-2.4 5.12-4.74 10.28-6.9 15.5a153.42 153.42 0 0 0-11.46 65.47c.79 20 6.95 38.82 14.8 57.13 2.58 6 4.78 12.23 7 18.41 1 2.8 2.49 4.89 5.61 5.14 4.21.29 8.48.45 12.74.69zM273.6 68.33l-.86-.16a43.22 43.22 0 0 0 0-4.41c-1.21-11.22-5.17-16.77-15.28-19.33-8.39-2.12-18.46.36-22.8 7.1-2.28 3.52-3.31 8.14-3.89 12.4-1.37 10.09 0 19.66 7.41 27.51 3.46 3.66 7.24 6.68 12.7 6.12 3.54-.36 7.06-.87 10.58-1.34 4.36-.57 7.23-3.1 8.17-7.23 1.53-6.84 2.66-13.77 3.97-20.66zm-95.41-12.58c-.74.58-1 .75-1.22 1-5.34 5.32-10.78 10.54-15.89 16.06-.77.84-.62 3.61.19 4.61 1.94 2.37 4.53 4.21 6.85 6.27 1.68 1.49 2.14.81 2.56-1.12 1.12-5.08 2.36-10.13 3.78-15.12 1-3.35 2.34-6.58 3.5-9.87a10.11 10.11 0 0 0 .23-1.83zm98.37 31.83c-2.28-.72-3.06.7-3.68 2.63-1.69 5.26-5.22 8.51-10.77 9.4-1.76.29-3.54.55-5.27.94a10.88 10.88 0 0 0-2.13 1c.76.69 1.47 1.85 2.3 2a13.47 13.47 0 0 0 4.32-.58c6-1.33 11.89-2.78 17.85-4.06 1.64-.34 2.58-.72 2.07-2.68a39.57 39.57 0 0 1-1-5.72c-.25-2.28-1.12-3.57-3.69-2.93zM209.64 100a9.05 9.05 0 0 0 1.92-1.9c1.32-2.17 2.37-4.5 3.65-6.71a31.26 31.26 0 0 1 2.32-3.1c-1.41-.27-2.81-.62-4.24-.79-2.36-.29-5.52-1.47-6.91-.4-1.57 1.19-1.54 4.46-2.21 6.83-1.17 4.07.2 5.85 5.47 6.07zm69.16-21.72v-3.93a5.23 5.23 0 0 0-.13-.87c-.21.19-.4.4-.62.57-2.53 2-2.62 4.91-2.84 7.7a2.63 2.63 0 0 0 1.16 2.19c1.4.42 2.6 0 2.46-2-.1-1.18-.03-2.42-.03-3.66zm-51.57-16.73v.2h.24a.49.49 0 0 0 0-.21s-.18.02-.24.01z"/><path d="M893.94 206.65a5.81 5.81 0 0 1-2.29-.06 9.47 9.47 0 0 1-2-1.83c.65-.64 1.21-1.61 2-1.83a7.1 7.1 0 0 1 3.66 0 9.65 9.65 0 0 1 2.69 1.88c-.88.64-1.73 1.34-2.67 1.89-.35.2-.91 0-1.37 0zm-25.24.09a7.91 7.91 0 0 1-2.51-.2c-.67-.28-1.51-1-1.56-1.65a2.28 2.28 0 0 1 1.3-1.8 21.93 21.93 0 0 1 5.49 0 2.23 2.23 0 0 1 1.31 1.79c0 .6-.85 1.39-1.52 1.68a7.6 7.6 0 0 1-2.51.18zm-742.12-.05a3.25 3.25 0 0 1-1.63-.16c-.66-.29-1.57-1.15-1.51-1.66A2.62 2.62 0 0 1 125 203a9 9 0 0 1 4.12-.08c1 .24 1.7 1.3 2.55 2a23.91 23.91 0 0 1-2.58 1.75c-.45.2-1.09.02-2.51.02zm364.28 0a2.28 2.28 0 0 1-1.42-.12c-.71-.35-1.67-1.15-1.67-1.76a2.52 2.52 0 0 1 1.6-1.81 8.13 8.13 0 0 1 3.89-.11c1 .24 1.8 1.19 2.7 1.83a24.29 24.29 0 0 1-2.63 1.93c-.41.24-1.06.04-2.47.04zm-388.6.06a7.58 7.58 0 0 1-2.51-.24 2.74 2.74 0 0 1-1.46-1.73 2 2 0 0 1 1.18-1.65 28.14 28.14 0 0 1 5.73 0 2.09 2.09 0 0 1 1.21 1.64 2.69 2.69 0 0 1-1.41 1.77 8.47 8.47 0 0 1-2.74.21zm779.04-.11c-.77 0-1.66.25-2.27-.06a3.42 3.42 0 0 1-1.81-1.9c-.09-.46 1-1.53 1.69-1.71a8.22 8.22 0 0 1 3.88-.07c1 .26 1.76 1.26 2.62 1.93a32.64 32.64 0 0 1-2.74 1.83c-.35.2-.9 0-1.37 0zm-766.3.04c-.61 0-1.35.22-1.82 0a17.42 17.42 0 0 1-2.41-1.91 10 10 0 0 1 2.49-1.84 5.31 5.31 0 0 1 3.18 0 10.58 10.58 0 0 1 2.64 1.92 30.85 30.85 0 0 1-2.71 1.85c-.35.2-.9 0-1.37 0zm-25.25.07a7.2 7.2 0 0 1-2.4-.2c-.66-.31-1.49-1.07-1.52-1.67a2.24 2.24 0 0 1 1.29-1.8 19.94 19.94 0 0 1 5.29-.05 2.25 2.25 0 0 1 1.41 1.73 2.5 2.5 0 0 1-1.43 1.74 8.43 8.43 0 0 1-2.64.25zm-12.83 0a6.29 6.29 0 0 1-2.32-.28 2.74 2.74 0 0 1-1.36-1.82 2.07 2.07 0 0 1 1.29-1.58 21.86 21.86 0 0 1 5.3 0c.59.08 1.53 1.2 1.45 1.71a3 3 0 0 1-1.64 1.82 8.17 8.17 0 0 1-2.72.15zm564.72-.06a2.15 2.15 0 0 1-1.37-.13c-.72-.36-1.68-1.16-1.68-1.77a2.57 2.57 0 0 1 1.63-1.8 8 8 0 0 1 3.91-.09c1 .25 1.75 1.27 2.62 1.95a23.85 23.85 0 0 1-2.58 1.8c-.42.22-1.07.04-2.53.04zm12.72 0a2.46 2.46 0 0 1-1.47-.12c-.73-.35-1.82-1.26-1.73-1.7A3 3 0 0 1 653 203a6.93 6.93 0 0 1 3.67-.06c1 .28 1.79 1.25 2.67 1.91-.9.63-1.77 1.32-2.73 1.86-.4.15-.96-.02-2.25-.02zm251.81.07a7 7 0 0 1-2.51-.29 2.55 2.55 0 0 1-1.32-1.83 2.35 2.35 0 0 1 1.54-1.65 15.71 15.71 0 0 1 4.84 0 2.45 2.45 0 0 1 1.6 1.79c0 .61-.92 1.47-1.63 1.78a6.8 6.8 0 0 1-2.52.07zm-426.93-.13a5.81 5.81 0 0 1-2.29-.06c-.71-.34-1.65-1.15-1.65-1.77a2.52 2.52 0 0 1 1.59-1.81 7 7 0 0 1 3.66-.11c1.05.3 1.9 1.28 2.84 2a33 33 0 0 1-2.77 1.82c-.36.2-.91 0-1.38 0zm-125.77.01c-.69 0-1.52.24-2.06 0a10.61 10.61 0 0 1-2-1.87c.68-.62 1.27-1.59 2.05-1.79a8 8 0 0 1 3.92 0c.89.25 1.55 1.31 2.31 2a16.31 16.31 0 0 1-2.38 1.72 4.74 4.74 0 0 1-1.85 0zm-12.23-3.89a6.54 6.54 0 0 1 2.29.24c.65.33 1.47 1.1 1.49 1.7a2.27 2.27 0 0 1-1.35 1.77 20.44 20.44 0 0 1-5.3 0 2.25 2.25 0 0 1-1.38-1.75 2.61 2.61 0 0 1 1.5-1.72 8.82 8.82 0 0 1 2.75-.24zm-100.69 3.9c-.69 0-1.51.23-2.06-.05a11.19 11.19 0 0 1-2.05-1.81c.65-.64 1.2-1.61 2-1.85a6.1 6.1 0 0 1 3.44-.06 11.66 11.66 0 0 1 2.86 2 31.76 31.76 0 0 1-2.79 1.82c-.36.2-.91 0-1.38 0zm11.52.03a2.36 2.36 0 0 1-1.4-.15c-.66-.33-1.59-1.17-1.53-1.67a2.65 2.65 0 0 1 1.56-1.86 9.34 9.34 0 0 1 4.14-.1c.91.21 1.64 1.22 2.46 1.87a18.58 18.58 0 0 1-2.51 1.87c-.48.25-1.21.04-2.72.04zm76.24-.04c-.7 0-1.53.24-2.06-.06a3.59 3.59 0 0 1-1.78-1.94c-.09-.46 1-1.5 1.71-1.69a7.36 7.36 0 0 1 3.67-.06 9.63 9.63 0 0 1 2.7 1.83 24.4 24.4 0 0 1-2.64 1.93c-.41.23-1.06 0-1.6 0zm-150.82.11a6.52 6.52 0 0 1-2.29-.23c-.66-.33-1.51-1.09-1.53-1.69a2.28 2.28 0 0 1 1.36-1.78 20.44 20.44 0 0 1 5.3 0 2.27 2.27 0 0 1 1.39 1.75 2.54 2.54 0 0 1-1.48 1.71 8.82 8.82 0 0 1-2.75.24zm-12.49-.07c-.54 0-1.21.2-1.6 0a21.29 21.29 0 0 1-2.42-1.95c.76-.62 1.44-1.55 2.31-1.79a7.24 7.24 0 0 1 3.67 0c.86.23 1.53 1.17 2.29 1.79a16.93 16.93 0 0 1-2.42 1.93c-.47.24-1.21.02-1.83.02zm200.93.07a6.54 6.54 0 0 1-2.29-.23c-.66-.33-1.5-1.08-1.53-1.69a2.24 2.24 0 0 1 1.35-1.77 20 20 0 0 1 5.3 0 2.27 2.27 0 0 1 1.4 1.74 2.53 2.53 0 0 1-1.48 1.72 8.82 8.82 0 0 1-2.75.23zm12.96-.1a5.81 5.81 0 0 1-2.29-.06 9.41 9.41 0 0 1-2-1.83c.66-.63 1.23-1.6 2-1.82a6.93 6.93 0 0 1 3.67 0c1 .28 1.74 1.28 2.6 2a30.52 30.52 0 0 1-2.58 1.8c-.35.19-.91 0-1.38 0zm13.36-3.84a2.23 2.23 0 0 1 1.38.14c.71.37 1.66 1.17 1.67 1.79a2.58 2.58 0 0 1-1.64 1.79 8.09 8.09 0 0 1-3.91.07c-1-.25-1.74-1.27-2.6-1.95a23.85 23.85 0 0 1 2.58-1.8c.42-.22 1.06-.04 2.52-.04zm11.45 3.94a6.07 6.07 0 0 1-2.29-.22 3.16 3.16 0 0 1-1.57-1.9c-.06-.5.91-1.52 1.54-1.63a13.47 13.47 0 0 1 4.61-.06c.75.14 1.35 1.18 2 1.8a8.94 8.94 0 0 1-2 1.84 5.62 5.62 0 0 1-2.29.06zm-251.12-.07c-.62 0-1.35.21-1.84-.05a15.71 15.71 0 0 1-2.31-1.79c.8-.67 1.49-1.62 2.41-1.94a5.22 5.22 0 0 1 3.2 0 10.67 10.67 0 0 1 2.64 1.94c-.9.62-1.77 1.31-2.73 1.84-.35.2-.91 0-1.37 0zm401.02.01a2 2 0 0 1-1.36-.13c-.72-.37-1.67-1.17-1.68-1.79a2.58 2.58 0 0 1 1.64-1.77 8 8 0 0 1 3.91-.08c1 .26 1.74 1.27 2.6 1.95a23.73 23.73 0 0 1-2.57 1.8c-.42.2-1.06.02-2.54.02zm13.83-3.95a8 8 0 0 1 2.43.31c.59.27 1.37 1.09 1.33 1.6s-.79 1.72-1.35 1.8a20 20 0 0 1-5.3 0 2.29 2.29 0 0 1-1.42-1.73 2.6 2.6 0 0 1 1.47-1.73 9.43 9.43 0 0 1 2.84-.25zm11.47 3.96a2.66 2.66 0 0 1-1.5-.14c-.72-.37-1.68-1.17-1.69-1.79a2.62 2.62 0 0 1 1.64-1.79 7 7 0 0 1 3.67-.09c1.05.3 1.91 1.28 2.85 2-.93.61-1.82 1.29-2.8 1.81-.36.16-.91 0-2.17 0zm13.28-.02c-.54 0-1.2.2-1.6 0a21.29 21.29 0 0 1-2.42-1.95c.76-.62 1.44-1.53 2.31-1.79a6.52 6.52 0 0 1 3.45 0 9.46 9.46 0 0 1 2.53 1.81 26.27 26.27 0 0 1-2.66 2c-.41.24-1.06 0-1.61 0zm12.53.07a6 6 0 0 1-2.28-.22 3.09 3.09 0 0 1-1.57-1.9c-.06-.5.91-1.52 1.53-1.63a13.48 13.48 0 0 1 4.61-.06c.76.14 1.36 1.18 2 1.81a9.07 9.07 0 0 1-2 1.83 5.67 5.67 0 0 1-2.3.06zm11.93-.05a2.76 2.76 0 0 1-1.5-.14c-.72-.36-1.68-1.16-1.69-1.78a2.58 2.58 0 0 1 1.62-1.8 7 7 0 0 1 3.67-.09 10.85 10.85 0 0 1 2.86 2c-.93.62-1.82 1.3-2.79 1.82-.36.15-.92-.01-2.17-.01zm13.28-.04c-.62 0-1.36.23-1.83 0a14.56 14.56 0 0 1-2.19-1.91c.75-.63 1.42-1.57 2.28-1.8a7.28 7.28 0 0 1 3.68 0c.87.24 1.55 1.17 2.31 1.79a17.07 17.07 0 0 1-2.41 1.94c-.47.27-1.22.05-1.84.05zm188.38.09a6.82 6.82 0 0 1-2.29-.22c-.67-.32-1.62-1.14-1.56-1.64A2.59 2.59 0 0 1 816 203a12.54 12.54 0 0 1 4.61-.07c.76.14 1.35 1.18 2 1.81a8.89 8.89 0 0 1-2 1.83 5.63 5.63 0 0 1-2.29.06zm11.92-.06a2.61 2.61 0 0 1-1.5-.13c-.71-.36-1.66-1.16-1.67-1.78s.92-1.6 1.62-1.8a7 7 0 0 1 3.67-.09 10.64 10.64 0 0 1 2.85 2c-.93.62-1.82 1.3-2.8 1.82-.39.15-.91-.02-2.17-.02zm13.43-3.83c.7 0 1.52-.24 2.06 0a10.64 10.64 0 0 1 2 1.85c-.66.63-1.22 1.6-2 1.81a7.36 7.36 0 0 1-3.67 0 9.33 9.33 0 0 1-2.58-1.71 23.46 23.46 0 0 1 2.57-2c.4-.25 1.06 0 1.6 0zm11.71 3.84a2.83 2.83 0 0 1-1.52-.14c-.71-.36-1.65-1.16-1.66-1.78a2.57 2.57 0 0 1 1.6-1.8 7 7 0 0 1 3.66-.09c1 .29 1.89 1.27 2.83 2a32.84 32.84 0 0 1-2.76 1.82c-.36.15-.91-.01-2.15-.01zm-715.64.04a6.23 6.23 0 0 1-2.2-.21c-.66-.33-1.48-1.09-1.51-1.7a2.26 2.26 0 0 1 1.33-1.78 17.17 17.17 0 0 1 5.06-.06 2.45 2.45 0 0 1 1.59 1.79c0 .62-1 1.45-1.66 1.77a7.53 7.53 0 0 1-2.61.19zM3 207.63l-3-2.89c1-.64 1.94-1.82 2.88-1.79S5 204.11 6 204.77zm990.24 0l-3-2.81c1-.67 2-1.82 3-1.87s2 1.11 2.93 1.74z"/></symbol><symbol id="pigeon-pose" viewBox="0 0 993.64 305.74"><path d="M926.22 284h-29.79c-5.21 0-10.42.48-15.63.47-7.8 0-15.59-.43-23.39-.41-10 0-19.91.43-29.87.44-25.19 0-50.39-.16-75.58-.16-17.67 0-35.35.18-53 .26-5.41 0-10.82.14-16.22-.06-6-.22-12-.93-18-1.1-4.26-.13-8.53.28-12.8.44q-9.07.33-18.15.64h-3.77c-3.11 0-6.23.18-9.32 0-2.11-.16-4.17-1-6.28-1.28-1.43-.16-2.91.36-4.37.36-2.68 0-5.36-.16-8-.29a34.54 34.54 0 0 0-4.17-.3c-2.79.2-5.56.68-8.35.89-.92.07-1.88-.49-2.81-.46-14.43.36-28.86.81-43.3 1.13-2 0-4-.71-6-.69-2.83 0-5.67.78-8.48.61-1.5-.09-2.94-1.42-4.38-2.23a30.19 30.19 0 0 0-2.65-1.61c-5-2.22-5.65-6.48-1.35-9.88a17.71 17.71 0 0 1 5.37-2.78c6.62-2.17 13.28-4.25 20-6.16 7.37-2.11 14.16-5.19 19.85-10.45a32.27 32.27 0 0 1 3.21-2.48c8.18-5.92 16-4 21.25 4.61 1.1 1.83 4.21 3.73 6.17 3.52a185.49 185.49 0 0 0 19.3-3.71c13.43-2.95 26.82-6 40.24-9a64.9 64.9 0 0 1 34.39 1.84c9.55 3.1 19.09 2.5 28.72 1.42.76-.08 1.85-1.65 1.91-2.6.24-3.34-.16-6.74.18-10.07.63-6.18 3.75-10.9 9.78-12.86 9-2.92 14.12-9.35 18.45-17.33 8.51-15.72 17.75-31 26.43-46.66 4.17-7.5 7.78-15.32 11.58-23 1.79-3.64 3.56-7.3 5.12-11 1.3-3.11 2-6.49 3.46-9.49a46.22 46.22 0 0 1 5.94-9.46C808 97.86 814.21 90.7 820.9 84a30.75 30.75 0 0 1 10.41-6.39c3.79-1.48 5-3.15 3.65-7.17-2.34-6.75-4.89-13.44-6.54-20.44-.85-3.56-.19-7.56.23-11.32a38 38 0 0 1 2.26-10.12 18.07 18.07 0 0 1 5.09-6.49c2.32-2 5.21-3.26 7.91-4.76 1.43-.79 3-2 4.45-1.95 6.89.25 13.76 1.05 20.64 1.32 7.81.32 13 3.84 17.26 10.51 2.25 3.55 4.18 6 1.8 10a5.83 5.83 0 0 0-.25 3c.16 3.62.33 7.24.62 10.85a6.37 6.37 0 0 0 1 2.56c1.19 2 2.93 3.78 3.59 5.91.51 1.67.45 4.64-.59 5.45-3.56 2.76-3.44 6.27-3 9.91 1 8.15-1.45 11.06-9.69 11.34-7.8.26-11.15 2.84-12.72 10.49a9 9 0 0 0 .94 6c3.67 6 7.87 11.72 11.64 17.68 4.4 7 5.47 14.8 5.4 22.83a382.39 382.39 0 0 1-11.54 88.05 3.83 3.83 0 0 0 1.87 3.2c9.4 3.41 18.91 6.56 28.36 9.86 2.73 1 5.74 1.69 8 3.39 2.58 2 5.89 4.65 6.32 7.42 1 6.1 3.93 5.83 8.61 5.06 13.63-2.24 19.6 8.3 20.18 18.3.23 4-2 6.18-5.93 6.23-4.84.06-9.68 0-14.53 0zm-50.55-21.5c2.33-1.67 4.91-3.08 6.94-5.05 7.62-7.41 16.25-7 25.32-3.63.76.29 1.19 1.49 1.77 2.26-1 .33-2 1.06-2.91.92-2.57-.4-5.06-1.22-7.62-1.74a14 14 0 0 0-12.37 3.48 8.49 8.49 0 0 0-.9 1.07c.35.25.69.68 1.07.72 8.23.84 16.45 1.74 24.69 2.31.89.06 2.68-1.83 2.75-2.9a8.43 8.43 0 0 0-5.94-9c-7.65-2.65-15.46-4.87-23.26-7.1-.61-.17-2 .75-2.34 1.48-2.5 5.69-4.82 11.44-7.19 17.18zM756 231.74c7.93-2.78 15.37-6 20-13.82 3.43-5.75 6.76-11.93 13.15-15.14 4-2 8-3.73 9.18-8.66a4.46 4.46 0 0 1 1.79-2.22c3.6-2.61 4-6.09 3.13-10.08a33.52 33.52 0 0 1-.35-4c-.08-.83-.25-1.65-.38-2.47-.59.57-1.23 1.11-1.78 1.74-10.31 11.77-20.21 23.93-31.07 35.16a67.8 67.8 0 0 0-13.67 19.5zm124-87.33c1.22-12.76-3.43-21.68-9.62-30.19-3.34-4.59-5.8-9.82-9.19-14.36-3.78-5.07-7.53-10.46-12.4-14.33-7.58-6-17.35-5.9-22.94-.15-8.22 8.44-16 17.35-23.66 26.27-3 3.54-2.5 4.86 2 6.34 9.54 3.16 18.06 7.93 25 15.28 1.72 1.82 2.72 1.26 4.15-.38 3.92-4.52 7.93-9 12.11-13.25.84-.87 2.55-.89 3.87-1.31-.49 1.27-.65 2.85-1.51 3.76-6 6.34-12.46 12.31-18.24 18.86-7 7.91-13.44 16.24-20 24.48a7.62 7.62 0 0 0-1.67 4.14c-.19 4.22-.5 8.53.13 12.66.77 5-.38 8.76-4.12 12.19-4.11 3.76-4.32 7.53-.48 11.6 8.62 9.12 17.12 18.44 26.47 26.78 6.43 5.73 14 10.37 21.46 14.74 7.07 4.12 10.88 2.55 14.17-5a62.62 62.62 0 0 0 2.94-10.27c7.03-29.48 12.59-59.16 11.53-87.86zM779.17 279.84c11.12 0 22.26.37 33.36-.14a79.74 79.74 0 0 0 20.18-3.19c10.32-3.26 16.2-12.08 22.31-20.36 1.65-2.22 1-3-1.38-3.74a30.16 30.16 0 0 1-6.36-2.76c-18.67-10.83-34-25.46-47.32-42.24-2.44-3.08-4.14-3.16-7.31-1.6-6.85 3.35-9.9 9.9-13.75 15.71a30.63 30.63 0 0 1-13.9 11.4c-9.85 4.25-19.73 8.42-29.56 12.71-5.06 2.21-5.82 3.76-3.18 8.68a222.6 222.6 0 0 0 12.43 20.88 11.27 11.27 0 0 0 7.51 4.44c8.98.55 17.99.21 26.97.21zm-69.29.66v-1.06h30.17c2.81 0 2.28-.88 1.18-2.78-4.61-7.92-9-16-13.54-23.92a3.47 3.47 0 0 0-2.82-1.32c-12.92 1.86-25.68 2.86-38.43-1.65-4.72-1.68-10.06-1.93-15.15-2.21-13.49-.74-26.14 3.91-39.08 6.6-11.08 2.31-22 5.21-33.11 7.51-4.79 1-9.64.06-12.21-4.62-3.89-7.1-9.52-10.38-17.45-3-7.54 7-16.71 10.61-26.44 13.26-5.87 1.6-11.64 3.6-17.39 5.6-1.13.4-2 1.65-2.93 2.51 1.11.65 2.16 1.74 3.32 1.87 9.6 1.12 19.21 2.83 28.82 2.87 12.93.06 25.87-1.51 38.82-1.79 10.13-.21 20.27.67 30.41.72 12.46.07 24.94-.49 37.4-.27 16.15.32 32.29 1.11 48.43 1.68zM725 240a54.55 54.55 0 0 0 .75 5.72 2.13 2.13 0 0 0 1.87.87c5.81-3 11.61-6 17.28-9.23a12.81 12.81 0 0 0 4.8-4.23c5.32-9.31 10.06-18.94 18.81-25.81a60.5 60.5 0 0 0 9.09-8.94q24.61-29.68 48.93-59.64c.51-.63.33-2.78-.26-3.2-5.61-4.05-11-8.85-17.21-11.54-11.07-4.77-8.38-5.88-14 5-4.5 8.64-7.43 18.2-12.6 26.39-11.19 17.61-21.83 35.61-30.96 54.4-3.43 7.08-8.67 12.67-16.39 15.18-7.42 2.42-10.55 7.39-10.11 15.03zM874.24 82.06c2.31-.13 4.62-.29 6.94-.4 2.91-.15 4.1-1.62 3.8-4.53-.21-2.11-.07-4.25-.23-6.36-.09-1.17-.2-3.08-.8-3.29-1.18-.43-2.71.08-4.1.19-2.67.21-5.55 1.16-8 .48-6.45-1.83-9.06-7.14-10.11-13.29s.67-11.31 5.7-15.17a21.07 21.07 0 0 1 14.26-4.8 4.29 4.29 0 0 0 2.75-1.13c.28-.25-.11-1.62-.55-2.23a77.84 77.84 0 0 0-5.27-6.85 6.62 6.62 0 0 0-3.45-2.28c-6.16-.94-12.55-.89-18.5-2.51-8.6-2.34-13.55 4.26-20.08 6.92-.82.33-1.23 2.07-1.53 3.24-.91 3.54-1.83 7.1-2.42 10.71-.39 2.43-.81 5.11-.2 7.41 1.65 6.35 3.73 12.59 5.91 18.79.42 1.21 2 2 3.05 3 .7-1.51 2-3 2-4.51-.07-3.62-1.3-7.27-1-10.83.21-2.56 1.48-6.17 3.39-7.15s5.73.07 7.69 1.56 3.45 4.62 4.33 7.28c1.8 5.49 3 11.2 4.59 16.76 2.5 8.66 2.77 8.8 11.83 8.99zm53.88 198.57v-.26c3.68 0 7.36-.05 11 0 2.82.05 3.52-1.2 3-3.83-2.19-10-7-13.53-17-11.76-12.11 2.14-24.06 2.82-36.22-.17-3.49-.86-7.8.13-11.36 1.37s-3.64 5-2.71 8c.64 2.09 2.1 4.7 3.88 5.47 2.41 1 5.49.68 8.27.61 4.92-.11 9.85-.73 14.76-.62 8.81.21 17.59.78 26.38 1.19zm-88.25-.18c5.52-.28 10.1.07 14.37-.91 3.25-.75 7-2.49 9-5A164.92 164.92 0 0 0 876 254.82c1.72-3 2.41-6.67 3.19-10.12 1.12-4.88-3.17-5.08-6-6.14-3-1.13-2.62 2-3.49 3.41-1.64 2.72-3.07 5.59-4.94 8.13a95 95 0 0 1-7.36 8.8q-8.62 9.17-17.4 18.1a26.36 26.36 0 0 1-4.08 2.86zm43.21-217.32l.21.69 5.3-1.81c-.77-1.68-1.55-3.35-2.29-5-.88-2-2.13-4-2.47-6.14-.48-3.08-.22-6.26-.39-9.39-.12-2.33-1.57-3.06-3.76-2.89-5.78.47-10.58 2.93-13.34 8-2.52 4.6-1.32 9.48 1.11 13.85 2.54 4.56 6.84 5.67 11.72 3.6a20.91 20.91 0 0 1 3.91-.91zm-34-13.68c-1.41 1-2.27 1.39-2.69 2-2.15 3.18 1.43 11 5.2 12 1.37.33 2.55 1.41 3.81 2.15a40.16 40.16 0 0 1-4.49 1.29c-.69.12-1.47-.45-2.22-.55-.42 0-1.27.22-1.27.35 0 4.49-3.24 5.92-6.56 7.5-.72.34-1.17 1.71-1.26 2.64 0 .42 1.09 1.07 1.78 1.4 3.38 1.61 7.22 2.6 10.09 4.84 3.66 2.87 6.53 6.74 9.8 10.12a2.8 2.8 0 0 0 1.64.58c1.4-2.51 3-5 3.8-7.71.18-.63-2.54-2.08-3.9-3.19a2.92 2.92 0 0 1-.88-1.13c-1.31-3.52-2.72-7-3.81-10.6-1.6-5.26-2.7-10.68-4.54-15.85-.72-2.14-2.82-3.77-4.47-5.84zm19.15 230.47c1.66-.66 5.14 1.31 3.58-3a52.05 52.05 0 0 1-1.43-6c-1.26 1.79-2.53 3.56-3.76 5.37-.66 1-1.23 2-1.85 3zm-613.12 1.16c-1.68.8-3.29 1.95-5.06 2.3a40.07 40.07 0 0 1-7.6.48c-1.08 0-2.17-.79-3.22-.72-6 .42-11.95 1.28-17.94 1.45-8.9.26-17.81.06-26.72.06-4.21 0-8.43.21-12.61-.12-1.58-.12-3.05-1.52-4.61-2.28-1.17-.56-2.4-1-3.6-1.53-.21.75-.18 1.81-.67 2.17a6.83 6.83 0 0 1-3.6 1.63c-1.56 0-4.2-.58-4.44-1.44-.77-2.76 1.74-2.46 3.51-2.64.52-.05 1-.19 1.54-.29a6.27 6.27 0 0 0-1.31-.52c-13-1.83-26-3.58-39-5.47-15.35-2.24-29.75 2-44.15 6.27-.78.23-1.94.68-2.1 1.26-1.4 4.86-4.94 2.66-7.83 2.48-1.22-.08-2.42-.63-3.63-.61-15.25.32-30.49.8-45.74 1a7.49 7.49 0 0 1-7.95-6.31c-.87-3.94 2-5.71 4.81-7 5.63-2.56 11.7-4.26 17.11-7.19a166.35 166.35 0 0 0 22-13.8c8.13-6.25 12.44-6.46 20.64-.53 3.21 2.32 8 4 11.8 3.71 15.2-1.26 30.46-2.65 45.42-5.49 13.43-2.54 26.58-3.4 40-1 18.17 3.22 34.84-2.38 51.32-9a2 2 0 0 0 1-.6c4.42-8 13-10.29 20.15-14.5 6.15-3.64 10.42-8.28 11.46-15.65.81-5.7 4.54-9.8 8.94-13.11a92.93 92.93 0 0 1 13.3-8.78c8.61-4.31 12.67-11.4 12.67-20.72 0-28.83 8-56.14 15.44-83.56 1.52-5.55 2.38-11.44 7.19-15.54a2.7 2.7 0 0 0 0-2.59c-2-2.51-3.8-6-6.48-7-11.33-4.4-14.4-12.76-13.78-24C302.5 12 321.47-3.62 340.17.74c9.66 2.25 17.35 7.89 23.17 15.93a8.38 8.38 0 0 1 1.9 4.47c-.06 3.84 2.3 5.31 5.23 6.72 4 1.94 4.65 4.93 2.77 8.81a6.42 6.42 0 0 0 .31 5c4.59 8.84 2.08 15.49-7.25 18.88a6.1 6.1 0 0 0-2.7 2.34 29.63 29.63 0 0 0-1.75 4c-2.14 4.57-1.82 7.91 2.27 12 8.59 8.65 17.11 18.08 18 31 .93 13.55.78 27.2.5 40.79-.16 7.8-1.63 15.56-2.2 23.36a9.1 9.1 0 0 0 1.49 5.71q16 21.36 32.35 42.45a120.19 120.19 0 0 0 8.82 9.53 4.62 4.62 0 0 0 2.33 1c2.94.59 5.89 1.2 8.86 1.56 17 2.08 23.16 22.44 14.73 36.36-1.67 2.74-4.67 4.66-6.95 7.05-1.05 1.11-1.8 2.37.35 3.38a2.06 2.06 0 0 1 .62 1.93 3.42 3.42 0 0 1-2.24 1.47c-5.87.09-11.75 0-17.62 0-2.49 0-5 .12-7.47 0-2.19-.09-4.36-.48-6.54-.61-1.61-.09-3.22 0-4.83 0h-7.89c-.76 0-1.51-.34-2.27-.33-18.42.34-36.83.76-55.25 1-9.63.14-19.26.08-28.88 0a12.29 12.29 0 0 1-4-1.25c-1.71-.68-2.95-2.2-5 .32-1 1.2-4.57.3-7 .2-.21 0-.71-1.47-.49-1.7a9.07 9.07 0 0 1 2.46-1.65 6.48 6.48 0 0 1 1.54-.42c-.47-.3-.94-.59-1.39-.9-4-2.69-8-2.7-12.82-1.73-7.24 1.46-14.73 1.66-22.12 2.41a8.05 8.05 0 0 0-1.32.35c.46.12 1 .1 1.34.38a24.83 24.83 0 0 1 1.91 2.18c-.77.6-1.48 1.57-2.34 1.74-4.48.89-6.33-.3-5.71-3.45zm124.48-149.61l-.82-.07c0-4-.1-7.93 0-11.89.68-22.34-21.42-49.44-45.81-51-8.38-.52-10.54.32-12.77 8.38-8.17 29.44-16.66 58.79-16.95 89.75-.09 9.71-4.91 17-13.59 21.79a84.7 84.7 0 0 0-12.65 8.25 35.29 35.29 0 0 0-7.74 8.83c-2.24 3.68-1 6.77 2.92 8.58a44.71 44.71 0 0 0 7.44 2.35c10.92 2.89 21.83 5.79 32.79 8.54 10.56 2.65 21.06 6.13 31.8 7.36 11.16 1.29 20.1-1.08 23.66-12.3.77-2.42.55-3.88-1.41-5.48-5.56-4.51-10.93-9.26-16.47-13.78-8-6.51-12.74-14.6-13.21-25.09a131.14 131.14 0 0 0-1.44-13.54c-2.4-16.13-5-32.24-7.31-48.38-.16-1.12.87-2.41 1.35-3.62.71 1 1.9 2 2 3.17.78 6.32 1 12.72 2 19 1.92 12.21 5.61 24.31 6 36.54.54 15.81 8.14 26.08 19.8 35.38 10.3 8.22 19.43 17.91 29.12 26.9 4.45 4.13 8.66 8.61 13.59 12.06 6 4.2 8.31 3.39 12.75-2.45.76-1 1.47-2 2.27-3 2.32-2.81 1.75-5.19-.8-7.57a75.78 75.78 0 0 1-8.53-8.66c-9.64-12.48-19-25.19-28.57-37.7-2.94-3.84-3.54-7.95-3.1-12.55 1.37-13.27 2.5-26.54 3.68-39.8zM209.43 280.3c19 .31 38-2.51 57-5.85a10.09 10.09 0 0 0 1.61-.59 6.35 6.35 0 0 0-1.28-1.35c-12.06-7.13-21.11-17.46-29.76-28.18-1.67-2.06-2.92-2.65-5.51-1.56-18.14 7.65-36.78 11.61-56.64 8.32a73.79 73.79 0 0 0-20.76-.73c-17.64 2.16-35.14 5.52-52.78 7.72-7.33.91-15 .65-21.23-4.68-5.48-4.72-8.85-4.87-14.16-.09A82.42 82.42 0 0 1 40.32 269q-7.71 3-15.27 6.33c-.9.4-1.36 1.77-2 2.69 1 .6 2 1.69 3 1.74 7.54.32 15.09.34 22.63.63a118.82 118.82 0 0 0 38.67-5c6.86-2 13.75-4.4 20.79-5.27 17.05-2.1 34-.05 50.8 3.07 16.58 3.08 32.98 7.69 50.49 7.11zm105.11.17c7.64-.19 12.23-2.26 15.18-7.17 6.37-10.6 12.65-21.25 19-31.89a8.34 8.34 0 0 0 .79-1.87c.6-2 .13-3.14-2.24-3.17-10.58-.12-20.61-2.88-30.59-6.12s-20.35-6.12-30.53-9.16c-6.14-1.84-12.25-3.76-18.42-5.47-.64-.18-1.73.65-2.41 1.25-3.8 3.36-7.22 7.13-11.32 10.13-4.37 3.14-9.37 5.41-14 8.2-2.13 1.29-3.26 3.16-1.38 5.55 8.65 11 17.62 21.71 30 28.61 3.89 2.16 8.64 2.83 13 4 .74.19 1.72-.53 2.59-.83a18.76 18.76 0 0 0-1.86-1.72c-8.24-5.81-13.6-13.81-16.58-23.41-.34-1.09.41-2.52.66-3.8a14.06 14.06 0 0 1 2.64 2.71c2.5 4.55 4.36 9.52 7.31 13.74 6.1 8.72 15.7 12.63 25.11 16.46 4.78 1.95 9.92 3.03 13.05 3.96zM426.25 279c7.69.9 9 .49 11.12-2.37 1.13-1.54 1.62-2.77-1-3.11-4.19-.54-6.19-3.22-6.82-7.16-.37-2.29-.64-4.6-1.05-6.88-1.62-9-8.36-13-17.27-10.69a12.34 12.34 0 0 1-7.29-.68c-3.26-1.35-6.1-3.67-9.22-5.4-2.07-1.15-4.22-2.47-6.49-2.86-9.63-1.67-19.3-3.07-29-4.45-3.1-.45-6.21-.54-6.09 4.11a5.62 5.62 0 0 1-1 2.7c-6.92 11.63-13.78 23.3-20.9 34.79-1.43 2.3-.7 2.56 1.25 2.65 5.7.27 11.41.73 17.11.66 25.59-.31 51.12-.83 76.65-1.31zM355.43 57.68l.19.68c4.07-1 8.19-1.94 12.2-3.19 1.09-.35 2.66-1.77 2.63-2.64-.12-3.07-1-6.11-1.29-9.19-.27-2.78-4.07-5.42-1.14-8.12 2.63-2.42 1.2-2.83-.73-4.23-2.31-1.66-5.75-3.77-6-5.94-.51-5.49-3.66-8.74-7.23-12-18.52-17.11-44.2-5.49-47.46 14.43-1.87 11.41-1.65 20 11 24.53 4.34 1.57 6.49 5.5 8.4 9.55a6.41 6.41 0 0 0 3.77 2.93c6.06 1.61 12.23 2.77 18.3 4.33a60.6 60.6 0 0 1 7.22 2.82l2.88-7.49c.07-.18.26-.43.19-.53-.49-.78-.9-2-1.58-2.21-1.94-.5-4-.43-6-.86-.58-.13-1-1.21-1.43-1.85.67-.44 1.3-1.18 2-1.25a25.14 25.14 0 0 1 4.08.23zm93.34 198.63c-1-2.85-1.82-6.43-3.39-9.67-3.33-6.88-10.15-7.34-16.61-8.85-5-1.18-8.18-.21-10.66 4.29-1.12 2-.92 2.54 1.24 3 7.29 1.62 11.74 6 12.65 13.57.24 2 .8 4 .9 6 .19 4.05 2.63 5.54 6.23 5.78s6.37-.88 7.42-4.57c.82-2.86 1.36-5.79 2.22-9.55zm-65.08-22l.65-.06a4.35 4.35 0 0 0-.54-1.47c-3.23-3.58-6.47-7.16-9.84-10.6a2.46 2.46 0 0 0-2.29.47 63.3 63.3 0 0 0-4.08 7.28c-.24.5.37 2 .76 2.11 4.85.86 9.73 1.5 15.34 2.3zm93.64 51.34c-1.64-1.26-2.85-2.19-4.07-3.11 1.39-.7 2.81-2 4.17-1.93s2.84 1.36 4.26 2.12zm38.6.08l-4-3.23c1.4-.68 2.81-1.9 4.21-1.9s2.81 1.21 4.22 1.88zm-501.33-.09l-4.09-3.08c1.47-.7 3-1.94 4.43-1.95 1.32 0 2.66 1.33 4 2.08z"/><path d="M104.63 285.74l-4.1-3.19c1.48-.7 2.94-1.89 4.44-1.95 1.28-.06 2.62 1.18 3.93 1.85zm13.22-6.22l3.94 3c-1.45.72-2.89 2-4.36 2s-2.71-1.29-4.07-2zm153.78-.15l4.36 3.27c-1.41.67-2.82 1.86-4.22 1.86s-2.8-1.22-4.2-1.9zm707.43 0l4.07 3.24c-1.49.67-3 1.83-4.49 1.89-1.29 0-2.62-1.19-3.94-1.86zm-887.33 6.36l-4.11-3.18c1.39-.7 2.77-1.94 4.17-1.95s2.83 1.19 4.24 1.86zm64.51-6.28c1.64 1.27 2.86 2.19 4.07 3.12-1.48.69-2.95 1.91-4.43 1.92-1.33 0-2.66-1.34-4-2.08zm128.49 6.29l-4.23-3.31c1.3-.66 2.63-1.89 3.9-1.83 1.5.07 3 1.25 4.42 1.95zm179.84-6.29l4.27 3c-1.43.73-2.85 2-4.3 2s-2.74-1.26-4.11-2zm501.6 6.27l-4.3-3.28c1.32-.66 2.66-1.9 4-1.84 1.52.06 3 1.24 4.47 1.94zm-835.99 0c-1.64-1.36-2.79-2.32-4-3.27 1.51-.67 3-1.81 4.52-1.85 1.28 0 2.59 1.23 3.88 1.91zm12.98-.08l-4.11-3.07c1.46-.7 2.92-1.95 4.4-2 1.32 0 2.66 1.32 4 2.06zm308.58.08l-4.14-3.18c1.38-.7 2.76-1.93 4.15-1.94s2.83 1.17 4.25 1.82zm38.56-.06l-4.1-3.05c1.45-.72 2.89-2 4.34-2s2.65 1.33 4 2.07zm12.76.07l-3.93-3.23c1.38-.68 2.77-1.9 4.16-1.9s2.77 1.22 4.15 1.91zm450.24-.01l-4.25-3.3c1.41-.65 2.84-1.84 4.25-1.82s2.77 1.24 4.15 1.94zm-950.41-.08L0 282.54c1.07-.69 2.12-1.89 3.21-1.92s2 1.25 2.93 1.95zm987.74.01l-3.12-3.15c1-.68 2-1.92 3-1.88s2.09 1.28 3.13 2zM332.48 31.63a7.26 7.26 0 0 1 2.45.55 14.45 14.45 0 0 1 2.46 2.37c-1 .37-2.13 1.17-3.11 1.05-4.37-.51-5.76.95-4.64 5.21 1.55 5.89 3.9 7.32 10.17 6.47.82-.11 1.75.65 2.63 1-.5.74-.83 1.75-1.53 2.16-3.72 2.22-8.18 1.83-10.69-1.67a28.12 28.12 0 0 1-4.4-9.81c-.9-3.9 2.43-7.29 6.66-7.33z"/></symbol><symbol id="lying-shoulder-stretch" viewBox="0 0 659.26 233.13"><path d="M640.28 99.64C637 94.32 629 93.25 625.65 93c-1.79-.11-4 0-5 1.54s-.21 3.06.37 4.17c-5.74 0-9.07.17-32.51 5.87-11.27 2.74-15.92.74-21.81-1.79-6.14-2.65-13.1-5.64-28.49-3.74-19 2.35-23.37 1-31.32-1.51a125.16 125.16 0 0 0-16.4-4.16c.63-3.78 1.37-7.41 2.06-10.83 1.44-7.09 2.68-13.21 2.68-18.42 0-8.29 1.9-14.87 3.57-20.67 1.3-4.51 2.42-8.41 2.42-12.24a26.9 26.9 0 0 1 .57-4.19c.92-5.06 2.19-12-2.57-17.67C494 3.07 482.53 0 464.31 0c-31 0-43.38 5.88-59.05 13.32a204.71 204.71 0 0 1-31 12.37 289.36 289.36 0 0 1-29.74 7.48c-9.45 1.9-14.09 2.83-27.07 10.38a2 2 0 0 0-2.22 1.31l-.5.29c-21.45 12.85-26.24 11.11-46.38 3.78l-4.11-1.49c.91-5.59 2.94-16.62 4.6-20.24.39-.84.87-1.7 1.34-2.53 1.46-2.6 3-5.28 1.89-8.08-.85-2.16-3.05-3.76-6.94-5-17.5-5.67-33.44-5.23-48.73 1.35-10 4.3-13.69 4.49-16.66 4.64s-5.79.29-12.72 4l-3.23 1.73c-11.28 6-18.89 10-18.14 22.85-6.12 2.48-9.76 11.79-10.82 27.68a7.38 7.38 0 0 1-3.73 5.72c-4.23 2.67-10.72 2.92-13.62 2.54a10.22 10.22 0 0 0-5.94-7.06c-3.41-1.41-7.14-.59-10.38 2.23-16.09-3.52-28.78-1.43-36.47 6.26C76 92.24 71.3 103.19 71.81 113.6a28.64 28.64 0 0 0 10.74 21.22c7.39 6.06 14.11 8.33 19.68 8.33a17.84 17.84 0 0 0 9.32-2.51 31.37 31.37 0 0 0 7.6 1 19.81 19.81 0 0 0 3.7-.32c.52-.09 1.06-.21 1.62-.32 3-.61 6.66-1.37 9.79-.73 3.77.78 13.67-.81 20.2-4.65a11 11 0 0 0 4.42 5.52 36 36 0 0 0 11.23 5.44 22.06 22.06 0 0 0 1.54 5.79 150.38 150.38 0 0 0-13.65 6.35 2 2 0 0 0-1.48-.66h-.23a2 2 0 0 0-1.93 2.49c-1.71.86-3.43 1.71-5.22 2.55-7.39 3.49-16 5.18-23.56 6.67-6.68 1.31-12.45 2.45-16.15 4.56-4 2.28-11.63 2.74-19 3.18-5.48.33-10.66.64-14.75 1.66l-.72.18C57.87 183.61 38 189.82 36 200.11a5.58 5.58 0 0 0 1.23 5.2c1.63 1.73 4.5 2.33 8.15 2.32a105 105 0 0 0 13.54-1.36c6.16-.86 12.53-1.75 17.31-1.39 8.45.63 10.93-.07 13.32-.76a22.24 22.24 0 0 1 7.25-.91c10.12 0 11.94-.84 17.14-6a21.81 21.81 0 0 1 6.7 0 83.94 83.94 0 0 0 17.17.14c4.39-.36 7.77-.49 11-.63 8.49-.35 15.82-.65 36.47-4.53 28.25-5.32 31.61-15.89 32-17.56a97.62 97.62 0 0 0 2.7-12.59h1.95a2 2 0 0 0 0-4h-1.52a46.72 46.72 0 0 0-.35-10.92 58.75 58.75 0 0 0 22.68-.78c35.82-7.88 64.06-8.91 82.79-3.12h.18a49.19 49.19 0 0 1 10.44 4.54c10.31 6.13 22.16 8.24 34 8.24 16.09 0 32.25-3.88 44.74-6.87 3.5-.84 6.82-1.63 9.73-2.25 10.53-2.21 16.12-1.95 19.82-1.77s6 .29 8.88-2.55a2 2 0 0 0 .58-1.59c-.1-1.19-.23-2.35-.37-3.5 1.33-.51 3.45-1.4 6.79-2.91v.63c0 8.17 0 8.17-2.52 12.08-1.2 1.85-2.85 4.39-5.2 8.62-3.35 6-4.24 11.25-2.65 15.52 2 5.5 7.64 8.12 11.68 9.61 6 2.2 12.83 7.43 22.89 17.49 10.27 10.27 26.06 10 28.23 9.9a55.63 55.63 0 0 1 10.42 2.7 26.59 26.59 0 0 0 9.64 1.95 7.36 7.36 0 0 0 5.79-2.62 8.32 8.32 0 0 0 1.86-5.27c0-3.72-2.38-6.42-5.66-6.42-4.18 0-5.27-1.1-10.53-6.37l-1-1a57.37 57.37 0 0 1-11.38-15.6 104.41 104.41 0 0 0-5.33-9c-1-1.5-1.93-3.09-2.82-4.74h3a2 2 0 0 0 0-4h-4a2 2 0 0 0-.93.24c-3.77-8-6.71-17.44-9.86-27.92 3.58.25 10.88 1.31 21.22 5.62 4.22 1.76 9.67 2.64 16.4 2.64 14.06 0 33.73-3.84 59.42-11.57 12.58-2.08 25.3-.06 35.54 1.56 2.47.4 4.81.77 7 1.07s5.12.45 7-1.37 1.57-4.93 1.17-8.12-.87-6.94.65-10.41c1.65-3.87 1.65-7.29-.07-10.14zM130 78.75a6 6 0 0 1 2.23 1.66c-1.93-.66-3.82-1.26-5.67-1.78a4.9 4.9 0 0 1 3.44.12zm-44.92 53a24.76 24.76 0 0 1-9.28-18.33c-.46-9.28 3.81-19.13 11.71-27 4.53-4.53 11.19-6.8 19.56-6.8 7.71 0 16.88 1.93 27.15 5.79l.53.2c1.87 1.22 2.23 2 3.13 5s1.88 13.59 1.88 18.9c0 7.37-3.54 13.83-5.67 13.83-3.14 0-8 2.19-12.46 4.89a1.65 1.65 0 0 0-.36.22 55.25 55.25 0 0 0-9.49 7.07 14.29 14.29 0 0 1-1.41 1.22 2.41 2.41 0 0 0-.52.36c-7.34 4.9-17.69.42-24.76-5.37zm30.5 5.63a53.84 53.84 0 0 1 7.29-5.27c1.84.39 3.71 1.21 3.9 1.73 0 0-.15 1.17-4 3.42l-.67.13a20.65 20.65 0 0 1-6.51-.03zm126.24 5.1c-12.8 2.82-22 .57-22.23.51a2.21 2.21 0 0 0-.51-.05c-2.41-8.77-7.67-15.8-14.3-24.63-1.2-1.59-2.44-3.25-3.73-5a2 2 0 0 0-3.22 2.37c1.3 1.76 2.55 3.43 3.75 5 9.89 13.18 16.25 21.66 14.68 38.2a2 2 0 0 0-.39 1.17 1.9 1.9 0 0 0 .17.79 91.34 91.34 0 0 1-2.69 12.8.58.58 0 0 0 0 .14c0 .09-2.52 9.54-28.8 14.48-20.36 3.83-27.56 4.13-35.9 4.47-3.3.14-6.72.28-11.19.64a79.39 79.39 0 0 1-16.45-.13 24.07 24.07 0 0 0-8.53.18 2 2 0 0 0-1 .53c-4.64 4.65-5.24 5.25-14.73 5.25a26.14 26.14 0 0 0-8.35 1.07c-2.15.61-4.18 1.19-11.92.61-5.21-.39-11.79.53-18.16 1.42-7.27 1-16.31 2.29-18.23.25-.13-.13-.46-.48-.22-1.67 1.83-9.12 27.59-15.55 36.05-17.66l.72-.18c3.73-.93 8.73-1.23 14-1.55 7.84-.47 16-.95 20.75-3.7 3.13-1.79 8.6-2.86 14.94-4.11 7.81-1.53 16.66-3.27 24.5-7 3.08-1.45 6-2.94 8.84-4.37 9.89-5 18.42-9.34 26.51-8.72a2 2 0 1 0 .31-4 30 30 0 0 0-11.07 1.4 19.56 19.56 0 0 1-1.51-6.33 2 2 0 0 0-1.83-1.84s-4.14-.43-11-5.07a7.11 7.11 0 0 1-3.18-4.75 2 2 0 0 0 0-2.82l-.18-.15a45.86 45.86 0 0 1 2.11-9.14c1.78-5.86 3.63-11.92-.18-15.73-2-2.05-2.43-6.3-1-10.83 2.4-7.53 10-16.45 24.28-18.89l4-.7c20.89-3.72 27.93-5 73.08 28.77a2 2 0 0 0 2.4-3.2c-46.5-34.79-54.57-33.31-76.13-29.52l-4 .7c-16 2.74-24.66 13-27.41 21.62-1.92 6-1.16 11.73 2 14.87 2.1 2.11.68 6.78-.83 11.73-1.11 3.65-2.36 7.76-2.31 11.6-5.18 3.76-15.3 5.73-18.66 5a18.46 18.46 0 0 0-4.91-.28 4.3 4.3 0 0 0 .55-3 5.39 5.39 0 0 0-3.15-3.62c2.67-1.33 5.07-2.21 6.54-2.21 7.29 0 9.67-13.26 9.67-17.83 0-5.24-.92-16.31-2.05-20.06a23.28 23.28 0 0 0-1.12-3.15c3.92-.08 8.89-.91 12.64-3.28a11.45 11.45 0 0 0 5.57-8.76c1-14.95 4.31-23.68 9.32-24.59a2 2 0 0 0 1.63-2.18c-1.23-11.47 4.5-14.51 15.91-20.57 1-.56 2.13-1.13 3.25-1.74 6.14-3.31 8.19-3.41 11-3.56 3.28-.16 7.37-.37 18-4.95 14.36-6.18 29.38-6.58 45.92-1.22 3.39 1.09 4.24 2.14 4.44 2.67.4 1-.64 2.87-1.65 4.66-.5.9-1 1.83-1.48 2.82-1.93 4.21-4 15.58-4.8 20.56-5-1.73-9.1-3-12.66-4 1.93-.93 4.21-2.06 6.47-3.28a2 2 0 1 0-1.89-3.52c-4.4 2.37-9 4.47-10.66 5.2l-.54-.14c-6.52-1.66-10.46-2.66-15.58-5.85a75.17 75.17 0 0 0-18.15-8.4 2 2 0 1 0-.99 3.97 72.1 72.1 0 0 1 17.08 7.93c5.66 3.52 10 4.64 16.71 6.33l1.21.31a208.06 208.06 0 0 1 20 6.06l5.65 2c19.53 7.11 26.09 9.48 46.6-2.22-2.54 10.2-3.49 25.27 3.26 50.79a97.15 97.15 0 0 1 2.14 15.47c.66 7.34 1.35 14.88 3.72 21.69-19.33-4.75-46.84-3.36-80.89 4.1zm202.79-1.27c-3.9-.19-9.8-.48-20.83 1.85-3 .62-6.31 1.42-9.85 2.27-21.06 5.05-52.9 12.69-75.8-.92a51.49 51.49 0 0 0-10.55-4.66c-3.08-7-3.85-15.32-4.58-23.42-.52-5.76-1-11.21-2.3-16.07-4.26-16.11-7.8-34.9-2.13-52.7 13.1-7.7 17.27-8.54 26.76-10.45a295 295 0 0 0 30.11-7.57A208.31 208.31 0 0 0 407 16.93c3.13-1.48 6.11-2.9 9.15-4.22-1.25 27.08 7.29 40.4 15.57 53.29 1.13 1.76 2.27 3.57 3.39 5.4l-1.88 1.24c-8.22 5.45-16 10.59-23.2 13.63-6.39 2.69-9.82 6.56-12.84 10-3.26 3.69-6.08 6.87-12.13 8.38a2 2 0 0 0 .48 3.94 2.12 2.12 0 0 0 .49-.06c7.26-1.81 10.76-5.77 14.16-9.6 2.83-3.21 5.77-6.52 11.2-8.86a82.67 82.67 0 0 1 16.61-1.5c11.81 17.61 18.67 30.47 21.2 46.94a2.07 2.07 0 0 0-.12 1.19 2 2 0 0 0 .42.86c.12.94.24 1.88.34 2.85-1.2.93-2.23.92-5.22.78zm4.86-53.67l-3.57-.62c-10-1.76-15.81-2.77-24.18-2.19 4.43-2.62 9-5.62 13.68-8.73s9.3-6.15 14-8.94c-.4 3.76-.4 7.75-.4 13.74a49.67 49.67 0 0 0 .48 6.72zM433 88.93c3.53.39 7.32 1 12.19 1.91l5 .86a132.76 132.76 0 0 0 4.41 15.22c2.47 7.41 5 15 5.58 23.37-3.52 1.62-5.82 2.6-7.27 3.18-2.64-15.67-9.11-28.21-19.91-44.54zm75.32 88.8a60.24 60.24 0 0 0 12.06 16.52l1 1c5.47 5.5 7.52 7.55 13.36 7.55 1.58 0 1.66 2 1.66 2.42a4.28 4.28 0 0 1-.93 2.71 3.36 3.36 0 0 1-2.72 1.18 23 23 0 0 1-8.34-1.73 59.91 59.91 0 0 0-11.3-2.9 1.55 1.55 0 0 0-.43 0c-.16 0-15.83.83-25.4-8.73-10.63-10.63-17.68-16-24.32-18.42-3.58-1.31-7.87-3.33-9.32-7.24-1.17-3.13-.36-7.23 2.39-12.18 2.29-4.12 3.89-6.59 5.07-8.4 3.17-4.89 3.17-5.42 3.16-14.26v-3.76c-.38-9.39-3.16-17.72-5.85-25.8a118.88 118.88 0 0 1-4.56-16.12 48 48 0 0 1-.85-8.77c0-17.31 0-17.31 10.34-46.83l1.18-3.38a2 2 0 1 0-3.77-1.32l-1.18 3.37c-5.49 15.65-8.12 23.18-9.39 29.32-3.94 2.22-7.88 4.71-11.76 7.24-1.12-1.82-2.26-3.62-3.38-5.36-8.12-12.65-16.5-25.73-14.83-52.82 10.69-4.19 22.91-7 44.09-7 16.73 0 27.44 2.68 31.84 8 3.55 4.26 2.57 9.64 1.7 14.39a29.62 29.62 0 0 0-.63 4.91c0 3.27-1.05 6.91-2.27 11.13-1.65 5.76-3.72 12.93-3.72 21.78 0 4.8-1.2 10.74-2.6 17.62-.82 4-1.69 8.34-2.39 12.84a.14.14 0 0 1 0 .06v.09c-1.68 10.76-2.35 22.59 1.11 34.14 4.76 15.88 8.88 29.6 15.88 40.09 2.21 3.28 3.69 6.02 5.13 8.66zm128.31-69.54c-2 4.48-1.4 8.94-.95 12.52.24 1.89.54 4.24 0 4.78-.11.11-.79.63-3.61.24-2.17-.29-4.49-.66-6.93-1-10.56-1.67-23.7-3.75-36.95-1.53a1.14 1.14 0 0 0-.25.06c-36.64 11-61.28 14.09-73.25 9.1-12.34-5.14-20.58-5.92-23.94-6-2.58-9.66-2.19-19.64-.89-28.95a125.41 125.41 0 0 1 15.82 4c8.2 2.57 13.15 4.12 33 1.67 14.32-1.77 20.47.88 26.42 3.44s11.77 5.06 24.34 2c23.71-5.76 26.34-5.76 32.11-5.76.66 0 2.68 0 3.6-1.55s.08-3-.51-4.14v-.06h.76c5.61.36 9.9 2.11 11.47 4.69 1.01 1.69.94 3.87-.21 6.49zM619 158.06h-4a2 2 0 0 0 0 4h4a2 2 0 0 0 0-4z"/><path d="M530.79 158.06a2 2 0 0 0 0 4h4a2 2 0 0 0 0-4zm74.13 0h-4a2 2 0 0 0 0 4h4a2 2 0 0 0 0-4zm-56.1 0h-4a2 2 0 0 0 0 4h4a2 2 0 0 0 0-4zm14.02 0h-4a2 2 0 0 0 0 4h4a2 2 0 0 0 0-4zm14.03 0h-4a2 2 0 0 0 0 4h4a2 2 0 0 0 0-4zm14.03 0h-4a2 2 0 0 0 0 4h4a2 2 0 0 0 0-4zm42.1 0h-4a2 2 0 0 0 0 4h4a2 2 0 0 0 0-4zm-116.24 0a2 2 0 0 0 0 4h4a2 2 0 0 0 0-4zm140.5 0H657a2 2 0 0 0 0 4h.23a2 2 0 0 0 0-4zm-10.26 0h-4a2 2 0 0 0 0 4h4a2 2 0 0 0 0-4zm-612.95 0h-4a2 2 0 0 0 0 4h4a2 2 0 1 0 0-4zm-14.05 0h-4a2 2 0 0 0 0 4h4a2 2 0 0 0 0-4zm38.1 4h4a2 2 0 0 0 0-4h-4a2 2 0 1 0 0 4zm-52.1-4H2a2 2 0 0 0 0 4h4a2 2 0 0 0 0-4zm66.13 4h4a2 2 0 0 0 0-4h-4a2 2 0 0 0 0 4zm-28.05 0h4a2 2 0 0 0 0-4h-4a2 2 0 1 0 0 4zm74.13 0a2 2 0 0 0 0-4h-4a2 2 0 1 0 0 4zm-28.05 0a2 2 0 0 0 0-4h-4a2 2 0 0 0 0 4zm56.1 0a2 2 0 0 0 0-4h-4a2 2 0 0 0 0 4zm-42.08 0a2 2 0 0 0 0-4h-4a2 2 0 0 0 0 4zm28.06 0a2 2 0 0 0 0-4h-4a2 2 0 0 0 0 4zm145.76-4h-4a2 2 0 0 0 0 4h4a2 2 0 0 0 0-4zm-14 0h-4a2 2 0 0 0 0 4h4a2 2 0 0 0 0-4zm-28.09 0h-4a2 2 0 0 0 0 4h4a2 2 0 1 0 0-4zm56.09 0h-4a2 2 0 0 0 0 4h4a2 2 0 0 0 0-4zm-42.07 0h-4a2 2 0 0 0 0 4h4a2 2 0 0 0 0-4zm196.37 0h-4a2 2 0 0 0 0 4h4a2 2 0 0 0 0-4zm-56.1 0h-4a2 2 0 0 0 0 4h4a2 2 0 0 0 0-4zm14.02 0h-4a2 2 0 0 0 0 4h4a2 2 0 0 0 0-4zm28.06 0h-4a2 2 0 0 0 0 4h4a2 2 0 0 0 0-4zm-14.03 0h-4a2 2 0 0 0 0 4h4a2 2 0 0 0 0-4zm-42.08 0h-4a2 2 0 0 0 0 4h4a2 2 0 0 0 0-4zm-28.05 0h-4a2 2 0 0 0 0 4h4a2 2 0 0 0 0-4zm-14.03 0h-4a2 2 0 0 0 0 4h4a2 2 0 0 0 0-4zm28.05 0h-4a2 2 0 0 0 0 4h4a2 2 0 0 0 0-4zm-42.07 0h-4a2 2 0 0 0 0 4h4a2 2 0 0 0 0-4zm-14.07 0h-4a2 2 0 0 0 0 4h4a2 2 0 0 0 0-4z"/></symbol></svg>